{
.appVersion = "3243";
.formatVersion = 3;
DisplayStrings = (
"ù",
"A˛",
" ̊",
"ĺÍ",
"◌",
"Thing2T™"
);
axes = (
{
name = Weight;
tag = wght;
}
);
classes = (
{
automatic = 1;
code = "";
name = Uppercase;
}
);
customParameters = (
{
name = "Use Typo Metrics";
value = 1;
},
{
name = fsType;
value = (
);
}
);
date = "2024-04-18 15:46:03 +0000";
familyName = Buenard;
features = (
{
code = "lookup ccmp_Other_1 {
	@CombiningTopAccents = [acutecomb brevecomb caroncomb circumflexcomb dieresiscomb dotaccentcomb gravecomb hungarumlautcomb macroncomb ringcomb tildecomb];
	lookupflag UseMarkFilteringSet @CombiningTopAccents;
	sub i' @CombiningTopAccents by idotless;
	sub iogonek' @CombiningTopAccents by iogonekdotless;
	sub j' acutecomb' by jacute;
	sub J' acutecomb' by Jacute;
	sub j' @CombiningTopAccents by jdotless;
} ccmp_Other_1;

";
tag = ccmp;
}
);
fontMaster = (
{
axesValues = (
400
);
customParameters = (
{
name = hheaAscender;
value = 1031;
},
{
name = hheaDescender;
value = -270;
},
{
name = hheaLineGap;
value = 0;
},
{
name = typoLineGap;
value = 0;
},
{
name = typoDescender;
value = -270;
},
{
name = typoAscender;
value = 1031;
},
{
name = winAscent;
value = 1009;
},
{
name = winDescent;
value = 260;
},
{
name = "Axis Location";
value = (
{
Axis = Weight;
Location = 400;
}
);
}
);
id = "619f1a1e-fd92-11ee-b280-8aa624eb3053";
metricValues = (
{
pos = 702;
},
{
pos = -244;
}
);
name = Regular;
},
{
axesValues = (
700
);
customParameters = (
{
name = hheaAscender;
value = 1031;
},
{
name = hheaDescender;
value = -270;
},
{
name = hheaLineGap;
value = 0;
},
{
name = typoLineGap;
value = 0;
},
{
name = typoDescender;
value = -270;
},
{
name = typoAscender;
value = 1031;
},
{
name = winAscent;
value = 1009;
},
{
name = winDescent;
value = 260;
},
{
name = "Axis Location";
value = (
{
Axis = Weight;
Location = 700;
}
);
}
);
iconName = Bold;
id = "66e3d46a-fd92-11ee-8244-8aa624eb3053";
metricValues = (
{
pos = 750;
},
{
pos = -250;
}
);
name = Bold;
}
);
glyphs = (
{
glyphname = A;
lastChange = "2024-04-29 12:45:11 +0000";
layers = (
{
anchors = (
{
name = bottom;
pos = (307,0);
},
{
name = ogonek;
pos = (561,0);
},
{
name = top;
pos = (303,0);
}
);
layerId = "619f1a1e-fd92-11ee-b280-8aa624eb3053";
shapes = (
{
closed = 1;
nodes = (
(3,-8,l),
(45,-2,o),
(72,0,o),
(98,0,cs),
(125,0,o),
(171,-2,o),
(212,-8,c),
(218,25,l),
(218,25,o),
(181,31,o),
(159,38,cs),
(142,43,o),
(134,51,o),
(134,65,cs),
(134,69,o),
(134,74,o),
(136,79,c),
(190,237,l),
(423,237,l),
(480,79,ls),
(482,74,o),
(483,69,o),
(483,65,cs),
(483,52,o),
(474,43,o),
(457,38,cs),
(435,31,o),
(400,25,o),
(400,25,c),
(406,-8,l),
(448,-2,o),
(509,0,o),
(536,0,cs),
(562,0,o),
(603,-2,o),
(645,-8,c),
(652,25,l),
(595,37,o),
(589,44,o),
(568,101,cs),
(353,674,l),
(332,662,o),
(302,651,o),
(277,645,c),
(78,101,ls),
(57,44,o),
(53,37,o),
(-4,25,c)
);
},
{
closed = 1;
nodes = (
(299,575,l),
(306,572,l),
(317,530,l),
(405,287,l),
(207,287,l),
(294,537,l)
);
}
);
width = 650;
},
{
anchors = (
{
name = bottom;
pos = (302,0);
},
{
name = ogonek;
pos = (544,0);
},
{
name = top;
pos = (304,0);
}
);
layerId = "66e3d46a-fd92-11ee-8244-8aa624eb3053";
shapes = (
{
closed = 1;
nodes = (
(-1,-9,l),
(45,-3,o),
(74,0,o),
(102,0,cs),
(130,0,o),
(180,-3,o),
(223,-9,c),
(229,30,l),
(229,30,o),
(194,40,o),
(173,48,cs),
(157,54,o),
(148,61,o),
(148,75,cs),
(148,80,o),
(148,84,o),
(150,89,cs),
(198,228,l),
(400,228,l),
(450,89,ls),
(452,84,o),
(453,79,o),
(453,75,cs),
(453,62,o),
(443,54,o),
(427,48,cs),
(406,40,o),
(373,30,o),
(373,30,c),
(379,-9,l),
(429,-3,o),
(502,0,o),
(533,0,cs),
(561,0,o),
(608,-3,o),
(654,-9,c),
(661,30,l),
(607,43,o),
(603,51,o),
(580,111,cs),
(362,675,l),
(338,663,o),
(304,651,o),
(273,645,c),
(77,111,ls),
(55,50,o),
(53,43,o),
(-9,30,c)
);
},
{
closed = 1;
nodes = (
(291,523,l),
(298,520,l),
(309,478,l),
(376,292,l),
(220,292,l),
(286,485,l)
);
}
);
width = 652;
}
);
unicode = 65;
},
{
glyphname = Abreve;
lastChange = "2024-04-29 10:05:10 +0000";
layers = (
{
layerId = "619f1a1e-fd92-11ee-b280-8aa624eb3053";
shapes = (
{
ref = A;
},
{
pos = (142,0);
ref = brevecomb.case;
}
);
width = 650;
},
{
background = {
shapes = (
{
closed = 1;
nodes = (
(148,81,o),
(149,86,o),
(150,89,cs),
(197,228,l),
(399,228,l),
(450,89,ls),
(452,84,o),
(453,80,o),
(453,75,cs),
(453,52,o),
(417,43,o),
(373,30,c),
(379,-9,l),
(429,-3,o),
(476,0,o),
(520,0,cs),
(563,0,o),
(608,-3,o),
(654,-9,c),
(661,30,l),
(609,42,o),
(604,48,o),
(580,111,cs),
(362,675,l),
(334,661,o),
(304,651,o),
(273,645,c),
(77,111,ls),
(54,47,o),
(51,42,o),
(-9,30,c),
(-1,-9,l),
(45,-3,o),
(83,0,o),
(113,0,cs),
(143,0,o),
(180,-3,o),
(223,-9,c),
(229,30,l),
(173,48,ls),
(156,54,o),
(148,63,o),
(148,75,cs)
);
},
{
closed = 1;
nodes = (
(408,845,l),
(398,801,o),
(365,779,o),
(310,779,cs),
(255,779,o),
(222,801,o),
(212,845,c),
(178,835,l),
(178,750,o),
(227,692,o),
(308,692,cs),
(388,692,o),
(442,752,o),
(442,835,c)
);
},
{
closed = 1;
nodes = (
(298,520,l),
(309,478,l),
(376,292,l),
(219,292,l),
(286,485,l),
(291,523,l),
(291,523,l)
);
}
);
};
layerId = "66e3d46a-fd92-11ee-8244-8aa624eb3053";
shapes = (
{
ref = A;
},
{
pos = (149,0);
ref = brevecomb.case;
}
);
width = 652;
}
);
unicode = 258;
},
{
glyphname = Amacron;
lastChange = "2024-04-29 10:05:41 +0000";
layers = (
{
layerId = "619f1a1e-fd92-11ee-b280-8aa624eb3053";
shapes = (
{
ref = A;
},
{
pos = (138,0);
ref = macroncomb.case;
}
);
width = 650;
},
{
background = {
shapes = (
{
closed = 1;
nodes = (
(148,81,o),
(148.667,85.667,o),
(150,89,cs),
(197,228,l),
(399,228,l),
(450,89,ls),
(452,84.333,o),
(453,79.667,o),
(453,75,cs),
(453,52.333,o),
(417,43.333,o),
(373,30,c),
(379,-9,l),
(429,-3,o),
(475.833,0,o),
(519.5,0,cs),
(563.167,0,o),
(608,-3,o),
(654,-9,c),
(661,30,l),
(609,42,o),
(604,48.333,o),
(580,111,cs),
(362,675,l),
(334,661,o),
(304.333,651,o),
(273,645,c),
(77,111,ls),
(54.333,47,o),
(51,42,o),
(-9,30,c),
(-1,-9,l),
(45,-3,o),
(83,0,o),
(113,0,cs),
(143,0,o),
(179.667,-3,o),
(223,-9,c),
(229,30,l),
(173,48,ls),
(156.333,54,o),
(148,63,o),
(148,75,cs)
);
},
{
closed = 1;
nodes = (
(443,781,l),
(180,781,l),
(166,705,l),
(429,705,l),
(429,705,l)
);
},
{
closed = 1;
nodes = (
(298,520,l),
(309,478,l),
(376,292,l),
(219,292,l),
(286,485,l),
(291,523,l),
(291,523,l)
);
}
);
};
layerId = "66e3d46a-fd92-11ee-8244-8aa624eb3053";
shapes = (
{
ref = A;
},
{
pos = (139,0);
ref = macroncomb.case;
}
);
width = 652;
}
);
unicode = 256;
},
{
glyphname = Aogonek;
lastChange = "2024-04-29 10:26:53 +0000";
layers = (
{
background = {
shapes = (
{
closed = 1;
nodes = (
(510,-103,o),
(539.667,-56.333,o),
(599,-3,c),
(607.667,-3.667,o),
(623,-5.333,o),
(645,-8,c),
(652,25,l),
(596,37,o),
(589.333,43.667,o),
(568,101,cs),
(353,674,l),
(331.667,661.333,o),
(306.333,651.667,o),
(277,645,c),
(78,101,ls),
(56.667,42.333,o),
(52,37,o),
(-4,25,c),
(3,-8,l),
(40.333,-2.667,o),
(75.333,0,o),
(108,0,cs),
(140.667,0,o),
(175.333,-2.667,o),
(212,-8,c),
(218,25,l),
(159,38,ls),
(142.333,42.667,o),
(134,51.667,o),
(134,65,cs),
(134,71,o),
(134.667,75.667,o),
(136,79,cs),
(190,237,l),
(423,237,l),
(480,79,ls),
(482,74.333,o),
(483,69.667,o),
(483,65,cs),
(483,39.667,o),
(446.667,33,o),
(400,25,c),
(406,-8,l),
(443.333,-2.667,o),
(486.667,0,o),
(536,0,cs),
(561,0,l),
(523,-30,o),
(495.333,-53.667,o),
(478,-71,cs),
(447.333,-100.333,o),
(440,-121.667,o),
(440,-151,cs),
(440,-238.129,o),
(534.235,-270.44,o),
(629,-206,c),
(614,-176,l),
(544.284,-206.501,o),
(510,-182.776,o),
(510,-143,cs)
);
},
{
closed = 1;
nodes = (
(306,572,l),
(317,530,l),
(405,287,l),
(207,287,l),
(294,537,l),
(299,575,l),
(299,575,l)
);
}
);
};
layerId = "619f1a1e-fd92-11ee-b280-8aa624eb3053";
shapes = (
{
ref = A;
},
{
pos = (384,0);
ref = ogonekcomb;
}
);
width = 650;
},
{
background = {
shapes = (
{
closed = 1;
nodes = (
(507,-101,o),
(532.333,-54,o),
(583,-2,c),
(596.333,-2.667,o),
(620,-5,o),
(654,-9,c),
(661,30,l),
(609,42,o),
(604,48.333,o),
(580,111,cs),
(362,675,l),
(334,661,o),
(304.333,651,o),
(273,645,c),
(77,111,ls),
(54.333,47,o),
(51,42,o),
(-9,30,c),
(-1,-9,l),
(45,-3,o),
(83,0,o),
(113,0,cs),
(143,0,o),
(179.667,-3,o),
(223,-9,c),
(229,30,l),
(173,48,ls),
(156.333,54,o),
(148,63,o),
(148,75,cs),
(148,81,o),
(148.667,85.667,o),
(150,89,cs),
(197,228,l),
(399,228,l),
(450,89,ls),
(452,84.333,o),
(453,79.667,o),
(453,75,cs),
(453,52.333,o),
(417,43.333,o),
(373,30,c),
(379,-9,l),
(429,-3,o),
(480.333,0,o),
(533,0,cs),
(544,0,l),
(504,-29.333,o),
(474.667,-53.333,o),
(456,-72,cs),
(425.333,-100,o),
(417,-121.667,o),
(417,-151,cs),
(417,-209.667,o),
(454.833,-245,o),
(519.5,-245,cs),
(551.833,-245,o),
(587.333,-231.333,o),
(626,-204,c),
(606,-171,l),
(567.165,-194.802,o),
(531.34,-196.076,o),
(517,-176,cs),
(510.333,-166.667,o),
(507,-155.667,o),
(507,-143,cs)
);
},
{
closed = 1;
nodes = (
(298,520,l),
(309,478,l),
(376,292,l),
(219,292,l),
(286,485,l),
(291,523,l),
(291,523,l)
);
}
);
};
layerId = "66e3d46a-fd92-11ee-8244-8aa624eb3053";
shapes = (
{
ref = A;
},
{
pos = (367,0);
ref = ogonekcomb;
}
);
width = 652;
}
);
unicode = 260;
},
{
glyphname = Aringacute;
lastChange = "2024-04-29 13:01:59 +0000";
layers = (
{
background = {
shapes = (
{
closed = 1;
nodes = (
(134,71,o),
(134.667,75.667,o),
(136,79,cs),
(190,237,l),
(423,237,l),
(480,79,ls),
(482,74.333,o),
(483,69.667,o),
(483,65,cs),
(483,39.667,o),
(446.667,33,o),
(400,25,c),
(406,-8,l),
(443.333,-2.667,o),
(483.167,0,o),
(525.5,0,cs),
(567.833,0,o),
(607.667,-2.667,o),
(645,-8,c),
(652,25,l),
(596,37,o),
(589.333,43.667,o),
(568,101,cs),
(353,674,l),
(331.667,661.333,o),
(306.333,651.667,o),
(277,645,c),
(78,101,ls),
(56.667,42.333,o),
(52,37,o),
(-4,25,c),
(3,-8,l),
(40.333,-2.667,o),
(75.333,0,o),
(108,0,cs),
(140.667,0,o),
(175.333,-2.667,o),
(212,-8,c),
(218,25,l),
(159,38,ls),
(142.333,42.667,o),
(134,51.667,o),
(134,65,cs)
);
},
{
closed = 1;
nodes = (
(306,572,l),
(317,530,l),
(405,287,l),
(207,287,l),
(294,537,l),
(299,575,l),
(299,575,l)
);
},
{
closed = 1;
nodes = (
(276,803,l),
(304.579,833.621,o),
(358,814.565,o),
(358,766,cs),
(358,736.667,o),
(336.667,714,o),
(310,714,cs),
(264.633,714,o),
(247.738,772.719,o),
(276,803,c)
);
},
{
closed = 1;
nodes = (
(249.5,706.5,l),
(283.762,672.238,o),
(336.238,672.238,o),
(370.5,706.5,cs),
(387.5,723.5,o),
(396,743.333,o),
(396,766,cs),
(396,811.333,o),
(356.667,851,o),
(310,851,cs),
(263.333,851,o),
(224,811.333,o),
(224,766,cs),
(224,743.333,o),
(232.5,723.5,o),
(249.5,706.5,c)
);
},
{
closed = 1;
nodes = (
(417,999.667,o),
(366.333,1009,o),
(349,1009,c),
(334.333,999.667,o),
(239.667,901.333,o),
(225,884,c),
(251,857,l),
(439,975,l),
(433,993,l),
(433,993,l)
);
}
);
};
layerId = "619f1a1e-fd92-11ee-b280-8aa624eb3053";
shapes = (
{
alignment = -1;
ref = A;
},
{
alignment = -1;
pos = (149,178);
ref = ringcomb;
},
{
alignment = -1;
pos = (177,176);
ref = acutecomb.case;
}
);
width = 650;
},
{
background = {
shapes = (
{
closed = 1;
nodes = (
(147,81,o),
(147.667,85.667,o),
(149,89,cs),
(196,228,l),
(398,228,l),
(449,89,ls),
(451,84.333,o),
(452,79.667,o),
(452,75,cs),
(452,52.333,o),
(416,43.333,o),
(372,30,c),
(378,-9,l),
(428,-3,o),
(474.833,0,o),
(518.5,0,cs),
(562.167,0,o),
(607,-3,o),
(653,-9,c),
(660,30,l),
(608,42,o),
(603,48.333,o),
(579,111,cs),
(361,675,l),
(333,661,o),
(303.333,651,o),
(272,645,c),
(76,111,ls),
(53.333,47,o),
(50,42,o),
(-10,30,c),
(-2,-9,l),
(44,-3,o),
(82.167,0,o),
(112.5,0,cs),
(142.833,0,o),
(179.333,-3,o),
(222,-9,c),
(228,30,l),
(172,48,ls),
(155.333,54,o),
(147,63,o),
(147,75,cs)
);
},
{
closed = 1;
nodes = (
(239,702.5,l),
(279.187,667.001,o),
(340.67,667.025,o),
(381.5,702.5,cs),
(401.833,720.167,o),
(412,741.333,o),
(412,766,cs),
(412,815.333,o),
(364.667,856,o),
(310,856,cs),
(255.333,856,o),
(209,815.333,o),
(209,766,cs),
(209,741.333,o),
(219,720.167,o),
(239,702.5,c)
);
},
{
closed = 1;
nodes = (
(407.667,1022.667,o),
(373,1029,o),
(341,1031,c),
(326.333,1023,o),
(240.667,926,o),
(222,902,c),
(260,864,l),
(450,983,l),
(445,1012,l),
(445,1012,l)
);
},
{
closed = 1;
nodes = (
(297,520,l),
(308,478,l),
(375,292,l),
(218,292,l),
(285,485,l),
(290,523,l),
(290,523,l)
);
},
{
closed = 1;
nodes = (
(281,798,l),
(307.483,826.69,o),
(352,804.404,o),
(352,766,cs),
(352,740.667,o),
(332.667,721,o),
(310,721,cs),
(271.804,721,o),
(256.617,771.585,o),
(281,798,c)
);
}
);
};
layerId = "66e3d46a-fd92-11ee-8244-8aa624eb3053";
shapes = (
{
alignment = -1;
ref = A;
},
{
alignment = -1;
pos = (149,178);
ref = ringcomb;
},
{
alignment = -1;
pos = (179,183);
ref = acutecomb.case;
}
);
width = 652;
}
);
unicode = 506;
},
{
glyphname = AE;
lastChange = "2024-04-29 10:23:32 +0000";
layers = (
{
anchors = (
{
name = top;
pos = (530,0);
}
);
layerId = "619f1a1e-fd92-11ee-b280-8aa624eb3053";
shapes = (
{
closed = 1;
nodes = (
(346,656,l),
(85,101,ls),
(70,69,o),
(63,52,o),
(45,42,c),
(33,34,o),
(16,30,o),
(-12,25,c),
(-5,-8,l),
(33,-2,o),
(56,0,o),
(80,0,cs),
(109,0,o),
(159,-2,o),
(204,-8,c),
(210,25,l),
(210,25,o),
(168,30,o),
(151,38,cs),
(136,45,o),
(147,66,o),
(153,79,cs),
(410,641,l)
);
},
{
closed = 1;
nodes = (
(461,312,l),
(461,360,l),
(216,360,l),
(216,312,l)
);
},
{
closed = 1;
nodes = (
(433,650,o),
(385,651,o),
(346,656,c),
(339,603,l),
(414,603,l),
(414,69,ls),
(414,52,o),
(413,45,o),
(398,38,cs),
(379,30,o),
(339,25,o),
(339,25,c),
(346,-8,l),
(388,-3,o),
(433,0,o),
(459,0,cs),
(788,0,l),
(797,29,o),
(808,135,o),
(809,167,c),
(773,173,l),
(766,145,o),
(737,66,o),
(718,48,c),
(503,48,l),
(503,312,l),
(638,312,ls),
(654,312,o),
(666,310,o),
(671,297,cs),
(678,281,o),
(683,238,o),
(683,238,c),
(721,242,l),
(716,273,o),
(713,315,o),
(713,336,cs),
(713,357,o),
(716,399,o),
(721,430,c),
(683,434,l),
(683,434,o),
(678,390,o),
(671,375,c),
(666,361,o),
(654,360,o),
(638,360,cs),
(503,360,l),
(503,603,l),
(708,603,l),
(721,586,o),
(736,519,o),
(740,495,c),
(777,501,l),
(777,558,o),
(777,607,o),
(777,656,c),
(753,652,o),
(716,650,o),
(695,650,cs),
(459,650,ls)
);
}
);
width = 857;
},
{
anchors = (
{
name = top;
pos = (536,0);
}
);
layerId = "66e3d46a-fd92-11ee-8244-8aa624eb3053";
shapes = (
{
closed = 1;
nodes = (
(328,657,l),
(72,111,ls),
(57,79,o),
(49,64,o),
(32,52,cs),
(20,43,o),
(4,36,o),
(-22,30,c),
(-15,-8,l),
(21,-2,o),
(44,0,o),
(67,0,cs),
(97,0,o),
(151,-2,o),
(198,-8,c),
(204,30,l),
(204,30,o),
(165,38,o),
(148,48,cs),
(134,56,o),
(143,76,o),
(149,89,cs),
(402,641,l)
);
},
{
closed = 1;
nodes = (
(453,305,l),
(453,368,l),
(208,368,l),
(208,305,l)
);
},
{
closed = 1;
nodes = (
(415,650,o),
(367,652,o),
(328,657,c),
(321,588,l),
(396,588,l),
(396,79,ls),
(396,62,o),
(394,56,o),
(380,48,cs),
(362,38,o),
(324,30,o),
(324,30,c),
(331,-9,l),
(371,-4,o),
(416,0,o),
(441,0,cs),
(790,0,l),
(799,30,o),
(809,137,o),
(810,170,c),
(760,178,l),
(753,152,o),
(724,79,o),
(705,63,c),
(525,63,l),
(525,305,l),
(625,305,ls),
(641,305,o),
(652,303,o),
(658,290,cs),
(667,272,o),
(675,228,o),
(675,228,c),
(718,234,l),
(713,269,o),
(710,311,o),
(710,334,cs),
(710,356,o),
(713,400,o),
(718,433,c),
(675,439,l),
(675,439,o),
(666,398,o),
(658,383,cs),
(651,370,o),
(641,368,o),
(625,368,cs),
(525,368,l),
(525,588,l),
(695,588,l),
(708,573,o),
(723,512,o),
(727,490,c),
(779,499,l),
(779,558,o),
(779,605,o),
(779,656,c),
(754,652,o),
(714,650,o),
(692,650,cs),
(441,650,ls)
);
}
);
width = 854;
}
);
unicode = 198;
},
{
glyphname = AEacute;
lastChange = "2024-04-29 10:23:39 +0000";
layers = (
{
background = {
shapes = (
{
closed = 1;
nodes = (
(415,650,o),
(377.333,652,o),
(346,656,c),
(85,101,ls),
(69.667,67.667,o),
(56.333,48,o),
(45,42,cs),
(35.667,36,o),
(16.667,30.333,o),
(-12,25,c),
(-5,-8,l),
(29,-2.667,o),
(62.333,0,o),
(95,0,cs),
(127.667,0,o),
(164,-2.667,o),
(204,-8,c),
(210,25,l),
(199,26,ls),
(176.333,29.333,o),
(160.667,33,o),
(152,37,cs),
(146.667,39.667,o),
(144,44.167,o),
(144,50.5,cs),
(144,56.833,o),
(147,66.333,o),
(153,79,cs),
(259,312,l),
(414,312,l),
(414,69,ls),
(414,37,o),
(392.333,31.667,o),
(339,25,c),
(346,-8,l),
(390.667,-2.667,o),
(428.333,0,o),
(459,0,cs),
(788,0,l),
(796,26.667,o),
(807.667,129.667,o),
(809,167,c),
(773,173,l),
(763.667,138.333,o),
(735.333,64,o),
(718,48,c),
(503,48,l),
(503,312,l),
(638,312,ls),
(674,312,o),
(676.333,295.333,o),
(683,238,c),
(721,242,l),
(715.667,275.333,o),
(713,306.667,o),
(713,336,cs),
(713,365.333,o),
(715.667,396.667,o),
(721,430,c),
(683,434,l),
(682,422,ls),
(678.667,400,o),
(675,384.333,o),
(671,375,cs),
(667.667,365,o),
(656.667,360,o),
(638,360,cs),
(503,360,l),
(503,603,l),
(708,603,l),
(720,587.667,o),
(730.667,551.667,o),
(740,495,c),
(777,501,l),
(777,656,l),
(753,652,o),
(725.667,650,o),
(695,650,cs),
(459,650,l),
(459,650,l)
);
},
{
closed = 1;
nodes = (
(281,360,l),
(392,603,l),
(414,603,l),
(414,360,l),
(414,360,l)
);
},
{
closed = 1;
nodes = (
(639,823.667,o),
(588.333,833,o),
(571,833,c),
(556.333,823.667,o),
(461.667,725.333,o),
(447,708,c),
(473,681,l),
(661,799,l),
(655,817,l),
(655,817,l)
);
}
);
};
layerId = "619f1a1e-fd92-11ee-b280-8aa624eb3053";
shapes = (
{
ref = AE;
},
{
pos = (400,0);
ref = acutecomb.case;
}
);
width = 857;
},
{
background = {
shapes = (
{
closed = 1;
nodes = (
(402.333,650,o),
(364.667,652.333,o),
(328,657,c),
(72,111,ls),
(42.667,49.667,o),
(26,40.667,o),
(-22,30,c),
(-15,-8,l),
(17,-2.667,o),
(50,0,o),
(84,0,cs),
(118,0,o),
(156,-2.667,o),
(198,-8,c),
(204,30,l),
(194,32,ls),
(173.333,37.333,o),
(158.333,42.667,o),
(149,48,cs),
(143.667,50.667,o),
(141,55.333,o),
(141,62,cs),
(141,68.667,o),
(143.667,77.667,o),
(149,89,cs),
(248,305,l),
(396,305,l),
(396,79,ls),
(396,49.667,o),
(374.667,40.667,o),
(324,30,c),
(331,-9,l),
(379,-3,o),
(415.667,0,o),
(441,0,cs),
(790,0,l),
(798,26.667,o),
(808.667,130,o),
(810,170,c),
(760,178,l),
(750.667,144.667,o),
(722.333,77.667,o),
(705,63,c),
(525,63,l),
(525,305,l),
(625,305,ls),
(659.667,305,o),
(664.333,286.667,o),
(675,228,c),
(718,234,l),
(712.667,271.333,o),
(710,305,o),
(710,335,cs),
(710,365,o),
(712.667,397.667,o),
(718,433,c),
(675,439,l),
(672,428,ls),
(666.667,405.333,o),
(662,390.333,o),
(658,383,cs),
(652.667,373,o),
(641.667,368,o),
(625,368,cs),
(525,368,l),
(525,588,l),
(695,588,l),
(707,574,o),
(717.667,541.333,o),
(727,490,c),
(779,499,l),
(779,656,l),
(754.333,652,o),
(725.333,650,o),
(692,650,cs),
(441,650,l),
(441,650,l)
);
},
{
closed = 1;
nodes = (
(632.667,838.667,o),
(598,845,o),
(566,847,c),
(551.333,839,o),
(465.667,742,o),
(447,718,c),
(485,680,l),
(675,799,l),
(670,828,l),
(670,828,l)
);
},
{
closed = 1;
nodes = (
(277,368,l),
(377,588,l),
(396,588,l),
(396,368,l),
(396,368,l)
);
}
);
};
layerId = "66e3d46a-fd92-11ee-8244-8aa624eb3053";
shapes = (
{
ref = AE;
},
{
pos = (406,0);
ref = acutecomb.case;
}
);
width = 854;
}
);
unicode = 508;
},
{
glyphname = B;
lastChange = "2024-04-18 14:46:39 +0000";
layers = (
{
layerId = "619f1a1e-fd92-11ee-b280-8aa624eb3053";
shapes = (
{
closed = 1;
nodes = (
(442,-8,o),
(557,57,o),
(557,190,cs),
(557,311,o),
(463,357,o),
(384,362,c),
(384,369,l),
(436,380,o),
(511,413,o),
(511,510,cs),
(511,628,o),
(397,658,o),
(279,658,cs),
(204,658,o),
(125,646,o),
(57,653,c),
(50,622,l),
(50,622,o),
(90,617,o),
(109,609,cs),
(124,602,o),
(125,595,o),
(125,578,cs),
(125,69,ls),
(125,52,o),
(124,45,o),
(109,38,cs),
(90,30,o),
(50,25,o),
(50,25,c),
(57,-8,l),
(99,-3,o),
(144,0,o),
(170,0,cs),
(210,0,o),
(276,-8,o),
(309,-8,cs)
);
},
{
closed = 1;
nodes = (
(301,324,ls),
(400,324,o),
(456,278,o),
(456,180,cs),
(456,77,o),
(384,32,o),
(306,32,cs),
(271,32,o),
(214,42,o),
(214,81,cs),
(214,324,l)
);
},
{
closed = 1;
nodes = (
(230,616,o),
(256,619,o),
(279,619,cs),
(362,619,o),
(416,582,o),
(416,499,cs),
(416,414,o),
(362,366,o),
(277,366,cs),
(214,366,l),
(214,612,l)
);
}
);
width = 593;
},
{
layerId = "66e3d46a-fd92-11ee-8244-8aa624eb3053";
shapes = (
{
closed = 1;
nodes = (
(461,-8,o),
(582,57,o),
(582,190,cs),
(582,311,o),
(482,357,o),
(399,362,c),
(399,369,l),
(455,380,o),
(536,413,o),
(536,510,cs),
(536,628,o),
(416,658,o),
(289,658,cs),
(210,658,o),
(128,646,o),
(56,653,c),
(48,617,l),
(48,617,o),
(86,609,o),
(104,599,cs),
(118,591,o),
(120,585,o),
(120,568,cs),
(120,79,ls),
(120,62,o),
(118,56,o),
(104,48,cs),
(86,38,o),
(48,30,o),
(48,30,c),
(56,-8,l),
(102,-3,o),
(152,0,o),
(180,0,cs),
(220,0,o),
(286,-8,o),
(319,-8,cs)
);
},
{
closed = 1;
nodes = (
(311,319,ls),
(395,319,o),
(441,275,o),
(441,180,cs),
(441,83,o),
(379,42,o),
(316,42,cs),
(291,42,o),
(249,52,o),
(249,91,cs),
(249,319,l)
);
},
{
closed = 1;
nodes = (
(260,606,o),
(276,609,o),
(289,609,cs),
(357,609,o),
(401,576,o),
(401,499,cs),
(401,420,o),
(357,376,o),
(287,376,cs),
(249,376,l),
(249,602,l)
);
}
);
width = 617;
}
);
unicode = 66;
},
{
glyphname = C;
lastChange = "2024-04-29 10:21:29 +0000";
layers = (
{
anchors = (
{
name = bottom;
pos = (385,0);
},
{
name = top;
pos = (390,0);
}
);
layerId = "619f1a1e-fd92-11ee-b280-8aa624eb3053";
shapes = (
{
closed = 1;
nodes = (
(460,-16,o),
(547,1,o),
(594,17,c),
(605,67,o),
(614,129,o),
(615,181,c),
(581,186,l),
(550,79,o),
(503,30,o),
(395,30,cs),
(242,30,o),
(148,176,o),
(148,329,cs),
(148,503,o),
(231,620,o),
(380,620,cs),
(434,620,o),
(492,612,o),
(525,594,c),
(543,567,o),
(552,513,o),
(559,457,c),
(593,463,l),
(606,512,o),
(615,582,o),
(620,634,c),
(547,649,o),
(482,666,o),
(393,666,cs),
(180,666,o),
(47,512,o),
(47,299,cs),
(47,104,o),
(190,-16,o),
(385,-16,cs)
);
}
);
width = 660;
},
{
anchors = (
{
name = bottom;
pos = (403,0);
},
{
name = top;
pos = (403,0);
}
);
layerId = "66e3d46a-fd92-11ee-8244-8aa624eb3053";
shapes = (
{
closed = 1;
nodes = (
(480,-16,o),
(569,1,o),
(617,17,c),
(627,71,o),
(637,135,o),
(638,191,c),
(584,196,l),
(556,89,o),
(512,40,o),
(413,40,cs),
(275,40,o),
(191,182,o),
(191,329,cs),
(191,497,o),
(264,610,o),
(398,610,cs),
(446,610,o),
(498,603,o),
(528,584,c),
(546,558,o),
(555,502,o),
(562,448,c),
(616,458,l),
(629,508,o),
(638,580,o),
(643,634,c),
(568,649,o),
(502,666,o),
(411,666,cs),
(183,666,o),
(40,512,o),
(40,299,cs),
(40,104,o),
(193,-16,o),
(403,-16,cs)
);
}
);
width = 680;
}
);
unicode = 67;
},
{
glyphname = D;
lastChange = "2024-04-29 10:55:32 +0000";
layers = (
{
anchors = (
{
name = top;
pos = (376,0);
}
);
layerId = "619f1a1e-fd92-11ee-b280-8aa624eb3053";
shapes = (
{
closed = 1;
nodes = (
(274,36,o),
(214,46,o),
(214,88,cs),
(214,606,l),
(230,610,o),
(263,615,o),
(310,615,cs),
(508,615,o),
(602,523,o),
(602,325,cs),
(602,156,o),
(517,36,o),
(348,36,cs)
);
},
{
closed = 1;
nodes = (
(576,-8,o),
(703,136,o),
(703,355,cs),
(703,576,o),
(550,660,o),
(329,660,cs),
(219,660,o),
(132,647,o),
(57,653,c),
(50,622,l),
(50,622,o),
(90,616,o),
(109,607,cs),
(124,599,o),
(125,595,o),
(125,579,cs),
(125,69,ls),
(125,52,o),
(124,45,o),
(109,38,cs),
(90,30,o),
(50,25,o),
(50,25,c),
(57,-8,l),
(102,-3,o),
(144,0,o),
(170,0,cs),
(210,0,o),
(276,-8,o),
(357,-8,cs)
);
}
);
width = 750;
},
{
anchors = (
{
name = top;
pos = (388,0);
}
);
layerId = "66e3d46a-fd92-11ee-8244-8aa624eb3053";
shapes = (
{
closed = 1;
nodes = (
(299,46,o),
(249,56,o),
(249,98,cs),
(249,596,l),
(260,600,o),
(284,605,o),
(320,605,cs),
(503,605,o),
(587,517,o),
(587,325,cs),
(587,162,o),
(512,46,o),
(358,46,cs)
);
},
{
closed = 1;
nodes = (
(595,-8,o),
(728,136,o),
(728,355,cs),
(728,576,o),
(569,660,o),
(339,660,cs),
(225,660,o),
(133,648,o),
(56,654,c),
(48,617,l),
(48,617,o),
(87,609,o),
(104,597,c),
(119,588,o),
(120,585,o),
(120,569,cs),
(120,79,ls),
(120,62,o),
(118,56,o),
(104,48,cs),
(86,38,o),
(49,30,o),
(49,30,c),
(57,-9,l),
(106,-4,o),
(152,0,o),
(180,0,cs),
(220,0,o),
(286,-8,o),
(367,-8,cs)
);
}
);
width = 768;
}
);
unicode = 68;
},
{
glyphname = Dcroat;
lastChange = "2024-04-29 12:42:31 +0000";
layers = (
{
layerId = "619f1a1e-fd92-11ee-b280-8aa624eb3053";
shapes = (
{
closed = 1;
nodes = (
(57,653,l),
(50,622,l),
(60,620,ls),
(84.667,615.333,o),
(101.333,610.667,o),
(110,606,cs),
(123.333,599.333,o),
(125,596.333,o),
(125,579,cs),
(125,361,l),
(55,361,l),
(46,315,l),
(125,315,l),
(125,69,ls),
(125,37,o),
(103.333,31.667,o),
(50,25,c),
(57,-8,l),
(105,-2.667,o),
(138.333,0,o),
(157,0,cs),
(209.27,0,o),
(285.895,-8,o),
(357,-8,cs),
(573,-8,o),
(703,134.333,o),
(703,353,cs),
(703,462.333,o),
(668,541.333,o),
(598,590,cs),
(532.667,636.667,o),
(443,660,o),
(329,660,cs),
(95,652,l)
);
},
{
closed = 1;
nodes = (
(386,315,l),
(395,361,l),
(214,361,l),
(214,606,l),
(238,612,o),
(270,615,o),
(310,615,cs),
(504.667,615,o),
(602,521.333,o),
(602,334,cs),
(602,147.333,o),
(513.833,36,o),
(342.5,36,cs),
(256.833,36,o),
(214,53.333,o),
(214,88,cs),
(214,315,l)
);
}
);
width = 750;
},
{
layerId = "66e3d46a-fd92-11ee-8244-8aa624eb3053";
shapes = (
{
closed = 1;
nodes = (
(61,654,l),
(53,617,l),
(63,614,ls),
(83,609.333,o),
(98.667,603.333,o),
(110,596,cs),
(123.333,588,o),
(125,585,o),
(125,569,cs),
(125,365,l),
(56,365,l),
(46,313,l),
(125,313,l),
(125,79,ls),
(125,49.667,o),
(103.333,40.667,o),
(54,30,c),
(62,-9,l),
(120.667,-3,o),
(158.333,0,o),
(175,0,cs),
(224.571,0,o),
(300.632,-8,o),
(372,-8,cs),
(597.333,-8,o),
(733,134.333,o),
(733,353,cs),
(733,462.333,o),
(696.667,541.333,o),
(624,590,cs),
(556,636.667,o),
(462.667,660,o),
(344,660,cs),
(104,653,l)
);
},
{
closed = 1;
nodes = (
(397,313,l),
(407,365,l),
(254,365,l),
(254,596,l),
(270.667,602,o),
(294.333,605,o),
(325,605,cs),
(507.667,605,o),
(592,514.167,o),
(592,333.5,cs),
(592,152.833,o),
(511.833,46,o),
(364.5,46,cs),
(290.833,46,o),
(254,63.333,o),
(254,98,cs),
(254,313,l)
);
}
);
width = 773;
}
);
unicode = 272;
},
{
glyphname = Eth;
lastChange = "2024-04-18 14:46:39 +0000";
layers = (
{
layerId = "619f1a1e-fd92-11ee-b280-8aa624eb3053";
shapes = (
{
closed = 1;
nodes = (
(274,36,o),
(214,46,o),
(214,88,cs),
(214,606,l),
(230,610,o),
(263,615,o),
(310,615,cs),
(508,615,o),
(602,523,o),
(602,325,cs),
(602,156,o),
(517,36,o),
(348,36,cs)
);
},
{
closed = 1;
nodes = (
(576,-8,o),
(703,136,o),
(703,355,cs),
(703,576,o),
(550,660,o),
(329,660,cs),
(219,660,o),
(132,647,o),
(57,653,c),
(50,622,l),
(50,622,o),
(90,616,o),
(109,607,cs),
(124,599,o),
(125,595,o),
(125,579,cs),
(125,69,ls),
(125,52,o),
(124,45,o),
(109,38,cs),
(90,30,o),
(50,25,o),
(50,25,c),
(57,-8,l),
(102,-3,o),
(144,0,o),
(170,0,cs),
(210,0,o),
(276,-8,o),
(357,-8,cs)
);
},
{
closed = 1;
nodes = (
(46,315,l),
(386,315,l),
(395,361,l),
(55,361,l)
);
}
);
width = 750;
},
{
layerId = "66e3d46a-fd92-11ee-8244-8aa624eb3053";
shapes = (
{
closed = 1;
nodes = (
(304,46,o),
(254,56,o),
(254,98,cs),
(254,596,l),
(265,600,o),
(289,605,o),
(325,605,cs),
(508,605,o),
(592,517,o),
(592,325,cs),
(592,162,o),
(517,46,o),
(363,46,cs)
);
},
{
closed = 1;
nodes = (
(600,-8,o),
(733,136,o),
(733,355,cs),
(733,576,o),
(574,660,o),
(344,660,cs),
(230,660,o),
(138,648,o),
(61,654,c),
(53,617,l),
(53,617,o),
(92,609,o),
(109,597,c),
(124,588,o),
(125,585,o),
(125,569,cs),
(125,79,ls),
(125,62,o),
(123,56,o),
(109,48,cs),
(91,38,o),
(54,30,o),
(54,30,c),
(62,-9,l),
(111,-4,o),
(157,0,o),
(185,0,cs),
(225,0,o),
(291,-8,o),
(372,-8,cs)
);
},
{
closed = 1;
nodes = (
(46,313,l),
(397,313,l),
(407,365,l),
(56,365,l)
);
}
);
width = 773;
}
);
unicode = 208;
},
{
glyphname = E;
lastChange = "2024-04-29 10:58:32 +0000";
layers = (
{
anchors = (
{
name = ogonek;
pos = (430,0);
},
{
name = top;
pos = (294,0);
}
);
layerId = "619f1a1e-fd92-11ee-b280-8aa624eb3053";
shapes = (
{
closed = 1;
nodes = (
(364,312,ls),
(380,312,o),
(392,310,o),
(397,297,cs),
(404,281,o),
(409,238,o),
(409,238,c),
(447,242,l),
(442,273,o),
(439,315,o),
(439,336,cs),
(439,357,o),
(442,399,o),
(447,430,c),
(409,434,l),
(409,434,o),
(404,390,o),
(397,375,c),
(392,361,o),
(380,360,o),
(364,360,cs),
(214,360,l),
(214,603,l),
(434,603,l),
(447,586,o),
(462,519,o),
(466,495,c),
(503,501,l),
(507,558,o),
(507,607,o),
(503,656,c),
(478,652,o),
(442,650,o),
(421,650,cs),
(170,650,ls),
(144,650,o),
(99,654,o),
(57,659,c),
(50,626,l),
(50,626,o),
(90,621,o),
(109,613,cs),
(124,607,o),
(125,599,o),
(125,583,cs),
(125,69,ls),
(125,52,o),
(124,45,o),
(109,38,cs),
(90,30,o),
(50,25,o),
(50,25,c),
(57,-8,l),
(99,-3,o),
(144,0,o),
(170,0,cs),
(514,0,l),
(523,29,o),
(534,135,o),
(535,167,c),
(499,173,l),
(492,145,o),
(463,66,o),
(444,48,c),
(214,48,l),
(214,312,l)
);
}
);
width = 583;
},
{
anchors = (
{
name = ogonek;
pos = (429,0);
},
{
name = top;
pos = (304,0);
}
);
layerId = "66e3d46a-fd92-11ee-8244-8aa624eb3053";
shapes = (
{
closed = 1;
nodes = (
(364,307,ls),
(380,307,o),
(391,304,o),
(397,292,cs),
(405,276,o),
(414,237,o),
(414,237,c),
(457,241,l),
(452,272,o),
(449,315,o),
(449,336,cs),
(449,358,o),
(452,402,o),
(457,435,c),
(414,440,l),
(414,440,o),
(405,399,o),
(397,384,cs),
(390,371,o),
(380,369,o),
(364,369,cs),
(249,369,l),
(249,589,l),
(439,589,l),
(452,574,o),
(467,513,o),
(471,491,c),
(517,499,l),
(522,558,o),
(518,605,o),
(518,656,c),
(489,652,o),
(449,650,o),
(426,650,cs),
(180,650,ls),
(151,650,o),
(102,655,o),
(54,660,c),
(45,621,l),
(45,621,o),
(84,613,o),
(104,603,cs),
(119,596,o),
(120,589,o),
(120,573,cs),
(120,79,ls),
(120,62,o),
(119,56,o),
(104,48,cs),
(85,38,o),
(45,30,o),
(45,30,c),
(53,-9,l),
(101,-4,o),
(151,0,o),
(180,0,cs),
(529,0,l),
(538,30,o),
(549,138,o),
(550,171,c),
(504,179,l),
(497,153,o),
(468,78,o),
(449,62,c),
(249,62,l),
(249,307,l)
);
}
);
width = 594;
}
);
unicode = 69;
},
{
glyphname = Ecaron;
lastChange = "2024-04-29 10:56:04 +0000";
layers = (
{
layerId = "619f1a1e-fd92-11ee-b280-8aa624eb3053";
shapes = (
{
ref = E;
},
{
pos = (133,0);
ref = caroncomb.case;
}
);
width = 583;
},
{
background = {
shapes = (
{
closed = 1;
nodes = (
(488.667,652,o),
(458,650,o),
(426,650,cs),
(180,650,ls),
(160,650,o),
(118,653.333,o),
(54,660,c),
(45,621,l),
(56,618,ls),
(75.333,614,o),
(91.333,609,o),
(104,603,cs),
(114.667,598.333,o),
(120,588.333,o),
(120,573,cs),
(120,79,ls),
(120,69.667,o),
(119.333,63.333,o),
(118,60,cs),
(112.667,48.667,o),
(88.333,38.667,o),
(45,30,c),
(53,-9,l),
(110.333,-3,o),
(152.667,0,o),
(180,0,cs),
(529,0,l),
(537,28,o),
(548.667,132.333,o),
(550,171,c),
(504,179,l),
(494.667,145.667,o),
(466.333,76.667,o),
(449,62,c),
(249,62,l),
(249,307,l),
(364,307,ls),
(398.667,307,o),
(402,289,o),
(414,237,c),
(457,241,l),
(451.667,274.333,o),
(449,306.167,o),
(449,336.5,cs),
(449,366.833,o),
(451.667,399.667,o),
(457,435,c),
(414,440,l),
(412,430,ls),
(406,406.667,o),
(401,391.333,o),
(397,384,cs),
(391.667,374,o),
(380.667,369,o),
(364,369,cs),
(249,369,l),
(249,589,l),
(439,589,l),
(451,575,o),
(461.667,542.333,o),
(471,491,c),
(517,499,l),
(519,522.333,o),
(520,545.667,o),
(520,569,cs),
(518,656,l),
(518,656,l)
);
},
{
closed = 1;
nodes = (
(372,709,o),
(445.667,807.667,o),
(455,825,c),
(411,856,l),
(303,767,l),
(195,856,l),
(152,825,l),
(164,805,o),
(234,707.667,o),
(250,697,c),
(262.667,693.667,o),
(280.167,692,o),
(302.5,692,cs),
(324.833,692,o),
(342.667,693.667,o),
(356,697,c)
);
}
);
};
layerId = "66e3d46a-fd92-11ee-8244-8aa624eb3053";
shapes = (
{
ref = E;
},
{
pos = (144,0);
ref = caroncomb.case;
}
);
width = 594;
}
);
unicode = 282;
},
{
glyphname = Emacron;
lastChange = "2024-04-29 10:05:52 +0000";
layers = (
{
layerId = "619f1a1e-fd92-11ee-b280-8aa624eb3053";
shapes = (
{
ref = E;
},
{
pos = (129,0);
ref = macroncomb.case;
}
);
width = 583;
},
{
background = {
shapes = (
{
closed = 1;
nodes = (
(488.667,652,o),
(458,650,o),
(426,650,cs),
(180,650,ls),
(160,650,o),
(118,653.333,o),
(54,660,c),
(45,621,l),
(56,618,ls),
(75.333,614,o),
(91.333,609,o),
(104,603,cs),
(114.667,598.333,o),
(120,588.333,o),
(120,573,cs),
(120,79,ls),
(120,69.667,o),
(119.333,63.333,o),
(118,60,cs),
(112.667,48.667,o),
(88.333,38.667,o),
(45,30,c),
(53,-9,l),
(110.333,-3,o),
(152.667,0,o),
(180,0,cs),
(529,0,l),
(537,28,o),
(548.667,132.333,o),
(550,171,c),
(504,179,l),
(494.667,145.667,o),
(466.333,76.667,o),
(449,62,c),
(249,62,l),
(249,307,l),
(364,307,ls),
(398.667,307,o),
(402,289,o),
(414,237,c),
(457,241,l),
(451.667,274.333,o),
(449,306.167,o),
(449,336.5,cs),
(449,366.833,o),
(451.667,399.667,o),
(457,435,c),
(414,440,l),
(412,430,ls),
(406,406.667,o),
(401,391.333,o),
(397,384,cs),
(391.667,374,o),
(380.667,369,o),
(364,369,cs),
(249,369,l),
(249,589,l),
(439,589,l),
(451,575,o),
(461.667,542.333,o),
(471,491,c),
(517,499,l),
(519,522.333,o),
(520,545.667,o),
(520,569,cs),
(518,656,l),
(518,656,l)
);
},
{
closed = 1;
nodes = (
(443,781,l),
(180,781,l),
(166,705,l),
(429,705,l),
(429,705,l)
);
}
);
};
layerId = "66e3d46a-fd92-11ee-8244-8aa624eb3053";
shapes = (
{
ref = E;
},
{
pos = (139,0);
ref = macroncomb.case;
}
);
width = 594;
}
);
unicode = 274;
},
{
glyphname = Eogonek;
lastChange = "2024-04-29 11:00:11 +0000";
layers = (
{
background = {
shapes = (
{
closed = 1;
nodes = (
(380,-101.667,o),
(411,-54,o),
(473,0,c),
(514,0,l),
(522,26.667,o),
(533.667,129.667,o),
(535,167,c),
(499,173,l),
(489.667,138.333,o),
(461.333,64,o),
(444,48,c),
(214,48,l),
(214,312,l),
(364,312,ls),
(400,312,o),
(402.333,295.333,o),
(409,238,c),
(447,242,l),
(441.667,275.333,o),
(439,306.667,o),
(439,336,cs),
(439,365.333,o),
(441.667,396.667,o),
(447,430,c),
(409,434,l),
(408,422,ls),
(404.667,400,o),
(401,384.333,o),
(397,375,cs),
(393.667,365,o),
(382.667,360,o),
(364,360,cs),
(214,360,l),
(214,603,l),
(434,603,l),
(446,587.667,o),
(456.667,551.667,o),
(466,495,c),
(503,501,l),
(505,528.333,o),
(506,555,o),
(506,581,cs),
(506,607,o),
(505,632,o),
(503,656,c),
(478.333,652,o),
(451,650,o),
(421,650,cs),
(170,650,ls),
(145.333,650,o),
(107.667,653,o),
(57,659,c),
(50,626,l),
(60,624,ls),
(84,620.667,o),
(100.333,617,o),
(109,613,cs),
(119.667,609,o),
(125,599,o),
(125,583,cs),
(125,69,ls),
(125,37,o),
(103.333,31.667,o),
(50,25,c),
(57,-8,l),
(101.667,-2.667,o),
(139.333,0,o),
(170,0,cs),
(432,0,l),
(392,-31.333,o),
(363.667,-55.333,o),
(347,-72,cs),
(317.667,-100,o),
(310,-121.667,o),
(310,-151,cs),
(310,-238.129,o),
(404.235,-270.44,o),
(499,-206,c),
(484,-176,l),
(414.284,-206.501,o),
(380,-182.776,o),
(380,-143,cs)
);
}
);
};
layerId = "619f1a1e-fd92-11ee-b280-8aa624eb3053";
shapes = (
{
ref = E;
},
{
pos = (253,0);
ref = ogonekcomb;
}
);
width = 583;
},
{
background = {
shapes = (
{
closed = 1;
nodes = (
(488.667,652,o),
(458,650,o),
(426,650,cs),
(180,650,ls),
(160,650,o),
(118,653.333,o),
(54,660,c),
(45,621,l),
(56,618,ls),
(75.333,614,o),
(91.333,609,o),
(104,603,cs),
(114.667,598.333,o),
(120,588.333,o),
(120,573,cs),
(120,79,ls),
(120,69.667,o),
(119.333,63.333,o),
(118,60,cs),
(112.667,48.667,o),
(88.333,38.667,o),
(45,30,c),
(53,-9,l),
(110.333,-3,o),
(152.667,0,o),
(180,0,cs),
(430,0,l),
(390,-29.333,o),
(360.667,-53.333,o),
(342,-72,cs),
(311.333,-100,o),
(303,-121.667,o),
(303,-151,cs),
(303,-209.667,o),
(340.833,-245,o),
(405.5,-245,cs),
(437.833,-245,o),
(473.333,-231.333,o),
(512,-204,c),
(492,-171,l),
(453.165,-194.802,o),
(417.34,-196.076,o),
(403,-176,cs),
(396.333,-166.667,o),
(393,-155.667,o),
(393,-143,cs),
(393,-101,o),
(419,-53.333,o),
(471,0,c),
(529,0,l),
(537,28,o),
(548.667,132.333,o),
(550,171,c),
(504,179,l),
(494.667,145.667,o),
(466.333,76.667,o),
(449,62,c),
(249,62,l),
(249,307,l),
(364,307,ls),
(398.667,307,o),
(402,289,o),
(414,237,c),
(457,241,l),
(451.667,274.333,o),
(449,306.167,o),
(449,336.5,cs),
(449,366.833,o),
(451.667,399.667,o),
(457,435,c),
(414,440,l),
(412,430,ls),
(406,406.667,o),
(401,391.333,o),
(397,384,cs),
(391.667,374,o),
(380.667,369,o),
(364,369,cs),
(249,369,l),
(249,589,l),
(439,589,l),
(451,575,o),
(461.667,542.333,o),
(471,491,c),
(517,499,l),
(519,522.333,o),
(520,545.667,o),
(520,569,cs),
(518,656,l),
(518,656,l)
);
}
);
};
layerId = "66e3d46a-fd92-11ee-8244-8aa624eb3053";
shapes = (
{
ref = E;
},
{
pos = (252,0);
ref = ogonekcomb;
}
);
width = 594;
}
);
unicode = 280;
},
{
glyphname = F;
lastChange = "2024-04-18 14:46:39 +0000";
layers = (
{
layerId = "619f1a1e-fd92-11ee-b280-8aa624eb3053";
shapes = (
{
closed = 1;
nodes = (
(361,308,o),
(373,306,o),
(378,293,cs),
(385,277,o),
(390,234,o),
(390,234,c),
(428,238,l),
(423,269,o),
(420,311,o),
(420,332,cs),
(420,353,o),
(423,395,o),
(428,426,c),
(390,430,l),
(390,430,o),
(385,386,o),
(378,371,c),
(373,357,o),
(361,356,o),
(345,356,cs),
(214,356,l),
(214,603,l),
(423,603,l),
(437,586,o),
(452,517,o),
(457,493,c),
(494,499,l),
(496,540,o),
(497,623,o),
(493,656,c),
(468,652,o),
(432,650,o),
(411,650,cs),
(170,650,ls),
(144,650,o),
(99,654,o),
(57,659,c),
(50,626,l),
(73,623,o),
(94,618,o),
(109,613,cs),
(124,608,o),
(125,600,o),
(125,583,cs),
(125,69,ls),
(125,52,o),
(124,45,o),
(109,38,cs),
(90,30,o),
(50,25,o),
(50,25,c),
(57,-8,l),
(103,-3,o),
(152,0,o),
(180,0,cs),
(210,0,o),
(268,-3,o),
(312,-8,c),
(319,28,l),
(319,28,o),
(255,36,o),
(236,42,cs),
(216,48,o),
(214,59,o),
(214,77,cs),
(214,308,l),
(345,308,ls)
);
}
);
width = 512;
},
{
layerId = "66e3d46a-fd92-11ee-8244-8aa624eb3053";
shapes = (
{
closed = 1;
nodes = (
(371,302,o),
(383,300,o),
(388,287,cs),
(394,272,o),
(400,230,o),
(400,230,c),
(438,235,l),
(433,266,o),
(430,310,o),
(430,331,cs),
(430,353,o),
(433,398,o),
(438,431,c),
(400,436,l),
(400,436,o),
(394,393,o),
(388,379,cs),
(382,365,o),
(371,364,o),
(355,364,cs),
(249,364,l),
(249,588,l),
(428,588,l),
(442,573,o),
(457,510,o),
(462,488,c),
(508,496,l),
(510,538,o),
(512,622,o),
(508,656,c),
(481,652,o),
(443,650,o),
(421,650,cs),
(180,650,ls),
(152,650,o),
(98,655,o),
(57,660,c),
(48,621,l),
(67,617,o),
(90,610,o),
(104,604,cs),
(119,598,o),
(120,590,o),
(120,573,cs),
(120,79,ls),
(120,62,o),
(118,56,o),
(104,48,cs),
(86,38,o),
(48,30,o),
(48,30,c),
(55,-9,l),
(95,-4,o),
(160,0,o),
(190,0,cs),
(224,0,o),
(302,-4,o),
(344,-9,c),
(351,33,l),
(351,33,o),
(289,45,o),
(271,52,cs),
(251,59,o),
(249,69,o),
(249,87,cs),
(249,302,l),
(355,302,ls)
);
}
);
width = 523;
}
);
unicode = 70;
},
{
glyphname = G;
lastChange = "2024-04-29 10:37:03 +0000";
layers = (
{
anchors = (
{
name = bottom;
pos = (355,0);
},
{
name = top;
pos = (395,0);
}
);
layerId = "619f1a1e-fd92-11ee-b280-8aa624eb3053";
shapes = (
{
closed = 1;
nodes = (
(486,40,o),
(442,30,o),
(395,30,cs),
(242,30,o),
(148,176,o),
(148,329,cs),
(148,503,o),
(231,620,o),
(380,620,cs),
(434,620,o),
(493,612,o),
(526,594,c),
(544,567,o),
(552,523,o),
(559,467,c),
(593,473,l),
(606,522,o),
(614,582,o),
(619,634,c),
(546,649,o),
(482,666,o),
(393,666,cs),
(180,666,o),
(47,512,o),
(47,299,cs),
(47,104,o),
(190,-16,o),
(385,-16,cs),
(470,-16,o),
(553,0,o),
(603,19,c),
(603,210,ls),
(603,227,o),
(604,234,o),
(619,241,cs),
(634,248,o),
(664,254,o),
(664,254,c),
(658,287,l),
(630,281,o),
(584,279,o),
(548,279,cs),
(518,279,o),
(467,282,o),
(423,287,c),
(416,251,l),
(416,251,o),
(473,243,o),
(492,237,cs),
(512,231,o),
(514,220,o),
(514,202,cs),
(514,56,l)
);
}
);
width = 690;
},
{
anchors = (
{
name = bottom;
pos = (362,0);
},
{
name = top;
pos = (403,0);
}
);
layerId = "66e3d46a-fd92-11ee-8244-8aa624eb3053";
shapes = (
{
closed = 1;
nodes = (
(474,50,o),
(440,40,o),
(403,40,cs),
(265,40,o),
(181,182,o),
(181,329,cs),
(181,497,o),
(254,610,o),
(388,610,cs),
(436,610,o),
(489,603,o),
(519,584,c),
(537,557,o),
(545,516,o),
(552,460,c),
(606,468,l),
(618,519,o),
(627,580,o),
(632,634,c),
(557,649,o),
(492,666,o),
(401,666,cs),
(179,666,o),
(40,512,o),
(40,299,cs),
(40,104,o),
(189,-16,o),
(393,-16,cs),
(484,-16,o),
(573,0,o),
(626,19,c),
(626,200,ls),
(626,217,o),
(628,222,o),
(642,231,cs),
(656,240,o),
(684,249,o),
(684,249,c),
(677,288,l),
(647,282,o),
(596,279,o),
(556,279,cs),
(522,279,o),
(463,283,o),
(411,288,c),
(402,246,l),
(402,246,o),
(457,234,o),
(475,227,cs),
(495,220,o),
(497,209,o),
(497,192,cs),
(497,66,l)
);
}
);
width = 707;
}
);
unicode = 71;
},
{
glyphname = Gcircumflex;
lastChange = "2024-04-29 10:38:31 +0000";
layers = (
{
background = {
shapes = (
{
closed = 1;
nodes = (
(484,38.667,o),
(444.333,30,o),
(395,30,cs),
(248.333,30,o),
(148,165.667,o),
(148,335,cs),
(148,504.333,o),
(235.333,620,o),
(374,620,cs),
(443.333,620,o),
(494,611.333,o),
(526,594,c),
(540,572.667,o),
(551,530.333,o),
(559,467,c),
(593,473,l),
(603.667,514.333,o),
(612.333,568,o),
(619,634,c),
(620.047,633.85,o),
(572.948,645.368,o),
(531.5,652,cs),
(502.596,656.625,o),
(464.849,666,o),
(393,666,cs),
(182.333,666,o),
(47,512,o),
(47,308,cs),
(47,104,o),
(186.333,-16,o),
(385,-16,cs),
(469,-16,o),
(541.667,-4.333,o),
(603,19,c),
(603,210,ls),
(603,242,o),
(624,246,o),
(664,254,c),
(658,287,l),
(633.333,281.667,o),
(599.667,279,o),
(557,279,cs),
(514.333,279,o),
(469.667,281.667,o),
(423,287,c),
(416,251,l),
(492,237,l),
(510.667,231.667,o),
(514,222,o),
(514,202,cs),
(514,56,l),
(514,56,l)
);
},
{
closed = 1;
nodes = (
(336,817,o),
(258,716.667,o),
(250,702,c),
(278,681,l),
(393,771,l),
(508,681,l),
(536,702,l),
(528,716.667,o),
(450,817,o),
(434,829,c),
(423.333,830.333,o),
(409.667,831,o),
(393,831,cs),
(376.333,831,o),
(362.667,830.333,o),
(352,829,c)
);
}
);
};
layerId = "619f1a1e-fd92-11ee-b280-8aa624eb3053";
shapes = (
{
ref = G;
},
{
pos = (234,0);
ref = circumflexcomb.case;
}
);
width = 690;
},
{
background = {
shapes = (
{
closed = 1;
nodes = (
(182.333,666,o),
(40,515,o),
(40,299,cs),
(40,107,o),
(185,-16,o),
(393,-16,cs),
(483,-16,o),
(560.667,-4.333,o),
(626,19,c),
(626,200,ls),
(626,228,o),
(646.667,237,o),
(684,249,c),
(677,288,l),
(647,282,o),
(610.833,279,o),
(568.5,279,cs),
(526.167,279,o),
(473.667,282,o),
(411,288,c),
(402,246,l),
(475,227,l),
(489.667,221.667,o),
(497,210,o),
(497,192,cs),
(497,66,l),
(472.333,48.667,o),
(441,40,o),
(403,40,cs),
(271,40,o),
(181,172.167,o),
(181,335.5,cs),
(181,498.833,o),
(257.5,610,o),
(383.5,610,cs),
(446.5,610,o),
(491.667,601.333,o),
(519,584,c),
(533.667,562.667,o),
(544.667,521.333,o),
(552,460,c),
(606,468,l),
(618,517.333,o),
(626.667,572.667,o),
(632,634,c),
(536,655.333,o),
(459,666,o),
(401,666,cs)
);
},
{
closed = 1;
nodes = (
(332,835,o),
(258.333,736.333,o),
(249,719,c),
(293,688,l),
(401,777,l),
(509,688,l),
(552,719,l),
(540,739,o),
(470,836.333,o),
(454,847,c),
(441.333,850.333,o),
(423.833,852,o),
(401.5,852,cs),
(379.167,852,o),
(361.333,850.333,o),
(348,847,c)
);
}
);
};
layerId = "66e3d46a-fd92-11ee-8244-8aa624eb3053";
shapes = (
{
ref = G;
},
{
pos = (242,0);
ref = circumflexcomb.case;
}
);
width = 707;
}
);
unicode = 284;
},
{
glyphname = H;
lastChange = "2024-04-29 10:37:30 +0000";
layers = (
{
anchors = (
{
name = top;
pos = (397,0);
}
);
layerId = "619f1a1e-fd92-11ee-b280-8aa624eb3053";
shapes = (
{
closed = 1;
nodes = (
(214,364,l),
(214,582,ls),
(214,598,o),
(215,604,o),
(230,611,cs),
(249,619,o),
(298,625,o),
(298,625,c),
(291,658,l),
(245,653,o),
(199,650,o),
(171,650,cs),
(143,650,o),
(103,653,o),
(57,658,c),
(50,625,l),
(50,625,o),
(90,620,o),
(109,612,cs),
(124,605,o),
(125,599,o),
(125,582,cs),
(125,68,ls),
(125,51,o),
(124,45,o),
(109,38,cs),
(90,30,o),
(50,25,o),
(50,25,c),
(57,-8,l),
(103,-3,o),
(143,0,o),
(171,0,cs),
(199,0,o),
(245,-3,o),
(291,-8,c),
(298,25,l),
(298,25,o),
(249,31,o),
(230,39,cs),
(215,46,o),
(214,52,o),
(214,70,cs),
(214,311,l),
(581,311,l),
(581,70,ls),
(581,52,o),
(580,46,o),
(565,39,cs),
(546,31,o),
(497,25,o),
(497,25,c),
(504,-8,l),
(550,-3,o),
(596,0,o),
(624,0,cs),
(652,0,o),
(692,-3,o),
(738,-8,c),
(745,25,l),
(745,25,o),
(705,30,o),
(686,38,cs),
(671,45,o),
(670,51,o),
(670,68,cs),
(670,582,ls),
(670,599,o),
(671,605,o),
(686,612,cs),
(705,620,o),
(745,625,o),
(745,625,c),
(738,658,l),
(692,653,o),
(652,650,o),
(624,650,cs),
(596,650,o),
(550,653,o),
(504,658,c),
(497,625,l),
(497,625,o),
(546,619,o),
(565,611,cs),
(580,604,o),
(581,598,o),
(581,580,cs),
(581,364,l)
);
}
);
width = 795;
},
{
anchors = (
{
name = top;
pos = (407,0);
}
);
layerId = "66e3d46a-fd92-11ee-8244-8aa624eb3053";
shapes = (
{
closed = 1;
nodes = (
(249,373,l),
(249,572,ls),
(249,588,o),
(250,594,o),
(265,601,cs),
(283,609,o),
(330,615,o),
(330,615,c),
(321,659,l),
(272,653,o),
(213,650,o),
(181,650,cs),
(151,650,o),
(101,653,o),
(57,659,c),
(48,620,l),
(48,620,o),
(86,612,o),
(104,602,cs),
(118,594,o),
(120,589,o),
(120,572,cs),
(120,78,ls),
(120,61,o),
(118,56,o),
(104,48,cs),
(86,38,o),
(48,30,o),
(48,30,c),
(56,-9,l),
(101,-3,o),
(151,0,o),
(181,0,cs),
(213,0,o),
(272,-3,o),
(322,-9,c),
(330,35,l),
(330,35,o),
(283,41,o),
(265,49,cs),
(250,56,o),
(249,62,o),
(249,80,cs),
(249,305,l),
(566,305,l),
(566,80,ls),
(566,62,o),
(565,56,o),
(550,49,cs),
(532,41,o),
(485,35,o),
(485,35,c),
(493,-9,l),
(543,-3,o),
(602,0,o),
(634,0,cs),
(664,0,o),
(714,-3,o),
(759,-9,c),
(767,30,l),
(767,30,o),
(729,38,o),
(711,48,cs),
(697,56,o),
(695,61,o),
(695,78,cs),
(695,572,ls),
(695,589,o),
(697,594,o),
(711,602,cs),
(729,612,o),
(767,620,o),
(767,620,c),
(759,659,l),
(714,653,o),
(664,650,o),
(634,650,cs),
(602,650,o),
(543,653,o),
(494,659,c),
(485,615,l),
(485,615,o),
(532,609,o),
(550,601,cs),
(565,594,o),
(566,588,o),
(566,570,cs),
(566,373,l)
);
}
);
width = 815;
}
);
unicode = 72;
},
{
glyphname = Hbar;
lastChange = "2024-04-29 12:43:44 +0000";
layers = (
{
background = {
shapes = (
{
closed = 0;
nodes = (
(125,527,l),
(54,527,l),
(54,527,l),
(46,484,l),
(125,484,l)
);
},
{
closed = 0;
nodes = (
(670,484,l),
(740,484,l),
(748,527,l),
(670,527,l)
);
},
{
closed = 0;
nodes = (
(581,527,l),
(214,527,l)
);
},
{
closed = 0;
nodes = (
(214,484,l),
(581,484,l)
);
}
);
};
layerId = "619f1a1e-fd92-11ee-b280-8aa624eb3053";
shapes = (
{
ref = H;
},
{
closed = 1;
nodes = (
(46,486,l),
(740,486,l),
(747,528,l),
(54,528,l)
);
}
);
width = 795;
},
{
background = {
shapes = (
{
closed = 0;
nodes = (
(120,530,l),
(46,530,l),
(46,530,l),
(36,478,l),
(120,478,l)
);
},
{
closed = 0;
nodes = (
(695,478,l),
(769,478,l),
(779,530,l),
(695,530,l)
);
},
{
closed = 0;
nodes = (
(566,530,l),
(249,530,l)
);
},
{
closed = 0;
nodes = (
(249,478,l),
(566,478,l)
);
}
);
};
layerId = "66e3d46a-fd92-11ee-8244-8aa624eb3053";
shapes = (
{
ref = H;
},
{
closed = 1;
nodes = (
(35,479,l),
(768,479,l),
(779,531,l),
(47,531,l)
);
}
);
width = 815;
}
);
unicode = 294;
},
{
glyphname = Hcircumflex;
lastChange = "2024-04-29 10:38:31 +0000";
layers = (
{
background = {
shapes = (
{
closed = 1;
nodes = (
(214,582,ls),
(214,596.667,o),
(219.833,606.5,o),
(231.5,611.5,cs),
(243.167,616.5,o),
(265.333,621,o),
(298,625,c),
(291,658,l),
(241.667,652.667,o),
(202.667,650,o),
(174,650,cs),
(145.333,650,o),
(106.333,652.667,o),
(57,658,c),
(50,625,l),
(60,624,ls),
(84,620,o),
(100.667,616,o),
(110,612,cs),
(123.333,605.333,o),
(125,600.667,o),
(125,582,cs),
(125,68,ls),
(125,58.667,o),
(124,52,o),
(122,48,cs),
(118,38,o),
(94,30.333,o),
(50,25,c),
(57,-8,l),
(106.333,-2.667,o),
(145.333,0,o),
(174,0,cs),
(202.667,0,o),
(241.667,-2.667,o),
(291,-8,c),
(298,25,l),
(285,26,ls),
(259.667,29.333,o),
(240.667,34,o),
(228,40,cs),
(216,45.333,o),
(214,51.333,o),
(214,70,cs),
(214,311,l),
(581,311,l),
(581,70,ls),
(581,60.667,o),
(580,54,o),
(578,50,cs),
(574,39.333,o),
(547,31,o),
(497,25,c),
(504,-8,l),
(553.333,-2.667,o),
(592.333,0,o),
(621,0,cs),
(649.667,0,o),
(688.667,-2.667,o),
(738,-8,c),
(745,25,l),
(734,26,ls),
(710.667,30,o),
(694,34,o),
(684,38,cs),
(672,44.667,o),
(670,49.333,o),
(670,68,cs),
(670,582,ls),
(670,591.333,o),
(670.667,598,o),
(672,602,cs),
(676.667,612,o),
(701,619.667,o),
(745,625,c),
(738,658,l),
(688.667,652.667,o),
(649.667,650,o),
(621,650,cs),
(592.333,650,o),
(553.333,652.667,o),
(504,658,c),
(497,625,l),
(510,624,ls),
(535.333,620.667,o),
(554,616,o),
(566,610,cs),
(579.333,604.667,o),
(581,598.667,o),
(581,580,cs),
(581,364,l),
(214,364,l),
(214,364,l)
);
},
{
closed = 1;
nodes = (
(341,817,o),
(263,716.667,o),
(255,702,c),
(283,681,l),
(398,771,l),
(513,681,l),
(541,702,l),
(533,716.667,o),
(455,817,o),
(439,829,c),
(428.333,830.333,o),
(414.667,831,o),
(398,831,cs),
(381.333,831,o),
(367.667,830.333,o),
(357,829,c)
);
}
);
};
layerId = "619f1a1e-fd92-11ee-b280-8aa624eb3053";
shapes = (
{
ref = H;
},
{
pos = (236,0);
ref = circumflexcomb.case;
}
);
width = 795;
},
{
background = {
shapes = (
{
closed = 1;
nodes = (
(249,572,ls),
(249,586.667,o),
(254.667,596.5,o),
(266,601.5,cs),
(277.333,606.5,o),
(298.667,611,o),
(330,615,c),
(321,659,l),
(272.333,653,o),
(227.167,650,o),
(185.5,650,cs),
(143.833,650,o),
(101,653,o),
(57,659,c),
(48,620,l),
(58,618,ls),
(78.667,612.667,o),
(95.333,606.667,o),
(108,600,cs),
(116,595.333,o),
(120,586,o),
(120,572,cs),
(120,78,ls),
(120,50,o),
(98.667,40.667,o),
(48,30,c),
(56,-9,l),
(101.333,-3,o),
(144.5,0,o),
(185.5,0,cs),
(226.5,0,o),
(272,-3,o),
(322,-9,c),
(330,35,l),
(318,36,ls),
(293.333,39.333,o),
(275.333,44,o),
(264,50,cs),
(250.667,55.333,o),
(249,61.333,o),
(249,80,cs),
(249,305,l),
(566,305,l),
(566,80,ls),
(566,70.667,o),
(565.333,64,o),
(564,60,cs),
(559.333,49.333,o),
(533,41,o),
(485,35,c),
(493,-9,l),
(543,-3,o),
(588.667,0,o),
(630,0,cs),
(671.333,0,o),
(714.333,-3,o),
(759,-9,c),
(767,30,l),
(757,32,ls),
(736.333,37.333,o),
(719.667,43.333,o),
(707,50,cs),
(699,54.667,o),
(695,64,o),
(695,78,cs),
(695,572,ls),
(695,600,o),
(716.333,609.333,o),
(767,620,c),
(759,659,l),
(714.333,653,o),
(671.333,650,o),
(630,650,cs),
(588.667,650,o),
(543.333,653,o),
(494,659,c),
(485,615,l),
(498,614,ls),
(521.333,610.667,o),
(539.333,606,o),
(552,600,cs),
(564,594.667,o),
(566,588.667,o),
(566,570,cs),
(566,373,l),
(249,373,l),
(249,373,l)
);
},
{
closed = 1;
nodes = (
(338,835,o),
(264.333,736.333,o),
(255,719,c),
(299,688,l),
(407,777,l),
(515,688,l),
(558,719,l),
(546,739,o),
(476,836.333,o),
(460,847,c),
(447.333,850.333,o),
(429.833,852,o),
(407.5,852,cs),
(385.167,852,o),
(367.333,850.333,o),
(354,847,c)
);
}
);
};
layerId = "66e3d46a-fd92-11ee-8244-8aa624eb3053";
shapes = (
{
ref = H;
},
{
pos = (246,0);
ref = circumflexcomb.case;
}
);
width = 815;
}
);
unicode = 292;
},
{
glyphname = I;
lastChange = "2024-04-29 10:27:26 +0000";
layers = (
{
anchors = (
{
name = ogonek;
pos = (198,0);
},
{
name = top;
pos = (171,0);
}
);
layerId = "619f1a1e-fd92-11ee-b280-8aa624eb3053";
shapes = (
{
closed = 1;
nodes = (
(214,599,o),
(215,605,o),
(230,612,cs),
(249,620,o),
(291,625,o),
(291,625,c),
(284,658,l),
(242,653,o),
(197,650,o),
(170,650,cs),
(144,650,o),
(99,653,o),
(57,658,c),
(50,625,l),
(50,625,o),
(90,620,o),
(109,612,cs),
(124,605,o),
(125,599,o),
(125,582,cs),
(125,68,ls),
(125,51,o),
(124,45,o),
(109,38,cs),
(90,30,o),
(50,25,o),
(50,25,c),
(57,-8,l),
(99,-3,o),
(144,0,o),
(170,0,cs),
(197,0,o),
(242,-3,o),
(284,-8,c),
(291,25,l),
(291,25,o),
(249,30,o),
(230,38,cs),
(215,45,o),
(214,51,o),
(214,68,cs),
(214,582,ls)
);
}
);
width = 339;
},
{
anchors = (
{
name = ogonek;
pos = (209,2);
},
{
name = top;
pos = (186,0);
}
);
layerId = "66e3d46a-fd92-11ee-8244-8aa624eb3053";
shapes = (
{
closed = 1;
nodes = (
(249,589,o),
(250,594,o),
(265,602,cs),
(282,612,o),
(323,620,o),
(323,620,c),
(316,659,l),
(270,653,o),
(215,650,o),
(185,650,cs),
(156,650,o),
(101,653,o),
(55,659,c),
(48,620,l),
(48,620,o),
(87,612,o),
(104,602,cs),
(119,594,o),
(120,589,o),
(120,572,cs),
(120,78,ls),
(120,61,o),
(119,56,o),
(104,48,cs),
(87,38,o),
(48,30,o),
(48,30,c),
(55,-9,l),
(101,-3,o),
(156,0,o),
(185,0,cs),
(215,0,o),
(270,-3,o),
(316,-9,c),
(323,30,l),
(323,30,o),
(282,38,o),
(265,48,cs),
(250,56,o),
(249,61,o),
(249,78,cs),
(249,572,ls)
);
}
);
width = 369;
}
);
unicode = 73;
},
{
glyphname = Idot;
lastChange = "2024-04-29 10:51:15 +0000";
layers = (
{
layerId = "619f1a1e-fd92-11ee-b280-8aa624eb3053";
shapes = (
{
ref = I;
},
{
pos = (29,0);
ref = dotaccentcomb.case;
}
);
width = 339;
},
{
background = {
shapes = (
{
closed = 1;
nodes = (
(249,580.667,o),
(250,586.667,o),
(252,590,c),
(256.667,602,o),
(280.333,612,o),
(323,620,c),
(316,659,l),
(270,653,o),
(226.5,650,o),
(185.5,650,cs),
(144.5,650,o),
(101,653,o),
(55,659,c),
(48,620,l),
(58,618,ls),
(78.667,612.667,o),
(94.667,607,o),
(106,601,cs),
(118,594.333,o),
(120,589.333,o),
(120,572,cs),
(120,78,ls),
(120,69.333,o),
(119.333,63.333,o),
(118,60,cs),
(112.667,48.667,o),
(89.333,38.667,o),
(48,30,c),
(55,-9,l),
(101,-3,o),
(144.5,0,o),
(185.5,0,cs),
(226.5,0,o),
(270,-3,o),
(316,-9,c),
(323,30,l),
(312,32,ls),
(290.667,37.333,o),
(274.667,43,o),
(264,49,cs),
(250.667,55.667,o),
(249,60.667,o),
(249,78,cs),
(249,572,l),
(249,572,l)
);
},
{
closed = 1;
nodes = (
(126,712.5,l),
(156.955,684.91,o),
(214.915,684.947,o),
(246.5,712.5,cs),
(262.167,726.167,o),
(270,743.667,o),
(270,765,cs),
(270,807.667,o),
(235.333,838,o),
(186,838,cs),
(136.667,838,o),
(103,807.667,o),
(103,765,cs),
(103,743.667,o),
(110.667,726.167,o),
(126,712.5,c)
);
}
);
};
layerId = "66e3d46a-fd92-11ee-8244-8aa624eb3053";
shapes = (
{
ref = I;
},
{
pos = (46,0);
ref = dotaccentcomb.case;
}
);
width = 369;
}
);
unicode = 304;
},
{
glyphname = Iogonek;
lastChange = "2024-04-29 10:27:33 +0000";
layers = (
{
background = {
shapes = (
{
closed = 1;
nodes = (
(146,-103,o),
(175.667,-56.333,o),
(235,-3,c),
(247,-3.667,o),
(263.333,-5.333,o),
(284,-8,c),
(291,25,l),
(280,26,ls),
(255.333,30,o),
(238,34,o),
(228,38,cs),
(216,44.667,o),
(214,49.333,o),
(214,68,cs),
(214,582,ls),
(214,591.333,o),
(214.667,598,o),
(216,602,c),
(221.333,612,o),
(246.333,619.667,o),
(291,625,c),
(284,658,l),
(239.333,652.667,o),
(201.5,650,o),
(170.5,650,cs),
(139.5,650,o),
(101.667,652.667,o),
(57,658,c),
(50,625,l),
(60,624,ls),
(84,620,o),
(100.667,616,o),
(110,612,cs),
(123.333,605.333,o),
(125,600.667,o),
(125,582,cs),
(125,68,ls),
(125,58.667,o),
(124,52,o),
(122,48,cs),
(118,38,o),
(94,30.333,o),
(50,25,c),
(57,-8,l),
(101.667,-2.667,o),
(139.333,0,o),
(170,0,cs),
(197,0,l),
(159,-30,o),
(131.333,-53.667,o),
(114,-71,cs),
(83.333,-100.333,o),
(76,-121.667,o),
(76,-151,cs),
(76,-238.129,o),
(170.235,-270.44,o),
(265,-206,c),
(250,-176,l),
(180.284,-206.501,o),
(146,-182.776,o),
(146,-143,cs)
);
}
);
};
layerId = "619f1a1e-fd92-11ee-b280-8aa624eb3053";
shapes = (
{
ref = I;
},
{
pos = (21,0);
ref = ogonekcomb;
}
);
width = 339;
},
{
background = {
shapes = (
{
closed = 1;
nodes = (
(170,-101,o),
(195.333,-54,o),
(246,-2,c),
(262.667,-2.667,o),
(286,-5,o),
(316,-9,c),
(323,30,l),
(312,32,ls),
(290.667,37.333,o),
(274.667,43,o),
(264,49,cs),
(250.667,55.667,o),
(249,60.667,o),
(249,78,cs),
(249,572,ls),
(249,580.667,o),
(250,586.667,o),
(252,590,c),
(256.667,602,o),
(280.333,612,o),
(323,620,c),
(316,659,l),
(270,653,o),
(226.5,650,o),
(185.5,650,cs),
(144.5,650,o),
(101,653,o),
(55,659,c),
(48,620,l),
(58,618,ls),
(78.667,612.667,o),
(94.667,607,o),
(106,601,cs),
(118,594.333,o),
(120,589.333,o),
(120,572,cs),
(120,78,ls),
(120,69.333,o),
(119.333,63.333,o),
(118,60,cs),
(112.667,48.667,o),
(89.333,38.667,o),
(48,30,c),
(55,-9,l),
(101,-3,o),
(144.333,0,o),
(185,0,cs),
(206,0,l),
(171.333,-25.333,o),
(142,-49.333,o),
(118,-72,cs),
(61.715,-123.842,o),
(75.779,-191.092,o),
(107,-220,cs),
(142.58,-252.945,o),
(211.928,-258.482,o),
(289,-204,c),
(269,-171,l),
(230.165,-194.802,o),
(194.34,-196.076,o),
(180,-176,cs),
(173.333,-166.667,o),
(170,-155.667,o),
(170,-143,cs)
);
}
);
};
layerId = "66e3d46a-fd92-11ee-8244-8aa624eb3053";
shapes = (
{
ref = I;
},
{
pos = (32,2);
ref = ogonekcomb;
}
);
width = 369;
}
);
unicode = 302;
},
{
glyphname = Itilde;
lastChange = "2024-04-29 10:49:11 +0000";
layers = (
{
background = {
shapes = (
{
closed = 1;
nodes = (
(214,591.333,o),
(214.667,598,o),
(216,602,c),
(221.333,612,o),
(246.333,619.667,o),
(291,625,c),
(284,658,l),
(239.333,652.667,o),
(201.5,650,o),
(170.5,650,cs),
(139.5,650,o),
(101.667,652.667,o),
(57,658,c),
(50,625,l),
(60,624,ls),
(84,620,o),
(100.667,616,o),
(110,612,cs),
(123.333,605.333,o),
(125,600.667,o),
(125,582,cs),
(125,68,ls),
(125,58.667,o),
(124,52,o),
(122,48,cs),
(118,38,o),
(94,30.333,o),
(50,25,c),
(57,-8,l),
(101.667,-2.667,o),
(139.5,0,o),
(170.5,0,cs),
(201.5,0,o),
(239.333,-2.667,o),
(284,-8,c),
(291,25,l),
(280,26,ls),
(255.333,30,o),
(238,34,o),
(228,38,cs),
(216,44.667,o),
(214,49.333,o),
(214,68,cs),
(214,582,l),
(214,582,l)
);
},
{
closed = 1;
nodes = (
(84.905,741.53,o),
(104.093,742.736,o),
(171,713,cs),
(201,699.667,o),
(220,692.333,o),
(228,691,c),
(251,695,l),
(268.333,708.333,o),
(311.333,759,o),
(326,783,c),
(299,800,l),
(257.118,748.545,o),
(239.607,747.204,o),
(172,776.5,cs),
(142,789.5,o),
(123,796.667,o),
(115,798,c),
(92,794,l),
(73.333,779.333,o),
(30.333,731,o),
(17,707,c),
(44,691,l),
(44,691,l)
);
}
);
};
layerId = "619f1a1e-fd92-11ee-b280-8aa624eb3053";
shapes = (
{
ref = I;
},
{
alignment = -1;
pos = (-50,167);
ref = tildecomb;
}
);
width = 339;
},
{
background = {
shapes = (
{
closed = 1;
nodes = (
(249,580.667,o),
(250,586.667,o),
(252,590,c),
(256.667,602,o),
(280.333,612,o),
(323,620,c),
(316,659,l),
(270,653,o),
(226.5,650,o),
(185.5,650,cs),
(144.5,650,o),
(101,653,o),
(55,659,c),
(48,620,l),
(58,618,ls),
(78.667,612.667,o),
(94.667,607,o),
(106,601,cs),
(118,594.333,o),
(120,589.333,o),
(120,572,cs),
(120,78,ls),
(120,69.333,o),
(119.333,63.333,o),
(118,60,cs),
(112.667,48.667,o),
(89.333,38.667,o),
(48,30,c),
(55,-9,l),
(101,-3,o),
(144.5,0,o),
(185.5,0,cs),
(226.5,0,o),
(270,-3,o),
(316,-9,c),
(323,30,l),
(312,32,ls),
(290.667,37.333,o),
(274.667,43,o),
(264,49,cs),
(250.667,55.667,o),
(249,60.667,o),
(249,78,cs),
(249,572,l),
(249,572,l)
);
},
{
closed = 1;
nodes = (
(266,689,l),
(283.333,703.667,o),
(333,767,o),
(349,795,c),
(317,817,l),
(273.993,767.849,o),
(252.037,766.759,o),
(187,800,cs),
(157,815.333,o),
(138,823.667,o),
(130,825,c),
(107,821,l),
(88.333,803.667,o),
(38,731.333,o),
(22,702,c),
(53,683,l),
(96.785,737.435,o),
(117.524,739.956,o),
(186,708,cs),
(216,694,o),
(235,686.333,o),
(243,685,c)
);
}
);
};
layerId = "66e3d46a-fd92-11ee-8244-8aa624eb3053";
shapes = (
{
ref = I;
},
{
alignment = -1;
pos = (-35,172);
ref = tildecomb;
}
);
width = 369;
}
);
unicode = 296;
},
{
glyphname = J;
lastChange = "2024-04-29 10:38:25 +0000";
layers = (
{
anchors = (
{
name = top;
pos = (151,0);
}
);
layerId = "619f1a1e-fd92-11ee-b280-8aa624eb3053";
shapes = (
{
closed = 1;
nodes = (
(196,599,o),
(197,605,o),
(212,612,cs),
(231,620,o),
(273,625,o),
(273,625,c),
(266,658,l),
(224,653,o),
(179,650,o),
(152,650,cs),
(126,650,o),
(81,653,o),
(39,658,c),
(32,625,l),
(32,625,o),
(72,620,o),
(91,612,cs),
(106,605,o),
(107,599,o),
(107,582,cs),
(107,0,ls),
(107,-81,o),
(68,-156,o),
(0,-235,c),
(24,-260,l),
(96,-189,ls),
(191,-96,o),
(196,-42,o),
(196,50,cs),
(196,582,ls)
);
}
);
width = 303;
},
{
anchors = (
{
name = top;
pos = (146,0);
}
);
layerId = "66e3d46a-fd92-11ee-8244-8aa624eb3053";
shapes = (
{
closed = 1;
nodes = (
(211,589,o),
(212,594,o),
(227,602,cs),
(244,612,o),
(285,620,o),
(285,620,c),
(278,659,l),
(232,653,o),
(177,650,o),
(147,650,cs),
(118,650,o),
(63,653,o),
(17,659,c),
(10,620,l),
(10,620,o),
(49,612,o),
(66,602,cs),
(81,594,o),
(82,589,o),
(82,572,cs),
(82,0,ls),
(82,-79,o),
(41,-153,o),
(-30,-230,c),
(0,-260,l),
(96,-189,ls),
(210,-104,o),
(211,-42,o),
(211,50,cs),
(211,572,ls)
);
}
);
width = 303;
}
);
unicode = 74;
},
{
glyphname = K;
lastChange = "2024-04-29 10:14:07 +0000";
layers = (
{
anchors = (
{
name = bottom;
pos = (361,0);
}
);
layerId = "619f1a1e-fd92-11ee-b280-8aa624eb3053";
shapes = (
{
closed = 1;
nodes = (
(453,80,ls),
(464,68,o),
(471,58,o),
(471,50,cs),
(471,34,o),
(441,31,o),
(413,25,c),
(420,-8,l),
(458,-2,o),
(508,0,o),
(549,0,cs),
(592,0,o),
(625,-2,o),
(665,-8,c),
(672,25,l),
(632,35,o),
(607,42,o),
(558,96,cs),
(312,363,l),
(514,576,ls),
(543,607,o),
(563,618,o),
(609,625,c),
(602,658,l),
(568,652,o),
(544,650,o),
(515,650,cs),
(486,650,o),
(450,652,o),
(415,658,c),
(408,625,l),
(434,621,o),
(464,615,o),
(464,602,cs),
(464,595,o),
(462,590,o),
(449,576,cs),
(228,345,l),
(228,327,l)
);
},
{
closed = 1;
nodes = (
(214,599,o),
(215,605,o),
(230,612,cs),
(249,620,o),
(284,625,o),
(284,625,c),
(277,658,l),
(235,653,o),
(197,650,o),
(170,650,cs),
(144,650,o),
(99,653,o),
(57,658,c),
(50,625,l),
(50,625,o),
(90,620,o),
(109,612,cs),
(124,605,o),
(125,599,o),
(125,582,cs),
(125,68,ls),
(125,51,o),
(124,45,o),
(109,38,cs),
(90,30,o),
(50,25,o),
(50,25,c),
(57,-8,l),
(103,-3,o),
(152,0,o),
(180,0,cs),
(210,0,o),
(256,-3,o),
(300,-8,c),
(307,27,l),
(307,27,o),
(255,34,o),
(236,40,cs),
(216,46,o),
(214,57,o),
(214,75,cs),
(214,582,ls)
);
}
);
width = 668;
},
{
anchors = (
{
name = bottom;
pos = (390,0);
}
);
layerId = "66e3d46a-fd92-11ee-8244-8aa624eb3053";
shapes = (
{
closed = 1;
nodes = (
(471,80,ls),
(482,68,o),
(489,58,o),
(489,50,cs),
(489,34,o),
(459,31,o),
(431,25,c),
(440,-8,l),
(481,-2,o),
(537,0,o),
(584,0,cs),
(637,0,o),
(675,-2,o),
(725,-8,c),
(732,25,l),
(692,35,o),
(667,42,o),
(618,96,cs),
(367,371,l),
(561,576,ls),
(589,607,o),
(610,618,o),
(656,625,c),
(649,658,l),
(611,652,o),
(583,650,o),
(550,650,cs),
(520,650,o),
(482,652,o),
(445,658,c),
(438,625,l),
(464,621,o),
(494,615,o),
(494,602,cs),
(494,595,o),
(492,590,o),
(479,576,cs),
(263,350,l),
(263,317,l)
);
},
{
closed = 1;
nodes = (
(249,589,o),
(250,594,o),
(265,602,cs),
(282,612,o),
(323,620,o),
(323,620,c),
(316,659,l),
(270,653,o),
(215,650,o),
(185,650,cs),
(156,650,o),
(101,653,o),
(55,659,c),
(48,620,l),
(48,620,o),
(87,612,o),
(104,602,cs),
(119,594,o),
(120,589,o),
(120,572,cs),
(120,78,ls),
(120,61,o),
(119,56,o),
(104,48,cs),
(87,38,o),
(48,30,o),
(48,30,c),
(55,-9,l),
(101,-3,o),
(156,0,o),
(185,0,cs),
(217,0,o),
(276,-3,o),
(326,-9,c),
(333,30,l),
(333,30,o),
(284,38,o),
(265,48,cs),
(250,56,o),
(249,61,o),
(249,78,cs),
(249,572,ls)
);
}
);
width = 717;
}
);
unicode = 75;
},
{
glyphname = L;
lastChange = "2024-04-29 10:22:07 +0000";
layers = (
{
anchors = (
{
name = bottom;
pos = (285,0);
},
{
name = top;
pos = (170,-8);
}
);
layerId = "619f1a1e-fd92-11ee-b280-8aa624eb3053";
shapes = (
{
closed = 1;
nodes = (
(214,591,o),
(216,602,o),
(236,608,cs),
(255,614,o),
(319,622,o),
(319,622,c),
(312,658,l),
(268,653,o),
(210,650,o),
(180,650,cs),
(152,650,o),
(103,653,o),
(57,658,c),
(50,625,l),
(50,625,o),
(90,620,o),
(109,612,cs),
(124,605,o),
(125,598,o),
(125,581,cs),
(125,69,ls),
(125,52,o),
(124,44,o),
(109,37,cs),
(90,29,o),
(50,24,o),
(50,24,c),
(57,-8,l),
(108,-3,o),
(141,0,o),
(167,0,cs),
(496,0,l),
(504,28,o),
(519,135,o),
(520,166,c),
(486,173,l),
(478,145,o),
(443,66,o),
(425,48,c),
(214,48,l),
(214,573,ls)
);
}
);
width = 528;
},
{
anchors = (
{
name = bottom;
pos = (291,0);
},
{
name = top;
pos = (176,4);
}
);
layerId = "66e3d46a-fd92-11ee-8244-8aa624eb3053";
shapes = (
{
closed = 1;
nodes = (
(249,581,o),
(252,591,o),
(271,598,cs),
(289,605,o),
(351,617,o),
(351,617,c),
(343,659,l),
(295,653,o),
(224,650,o),
(190,650,cs),
(160,650,o),
(103,653,o),
(57,659,c),
(48,620,l),
(48,620,o),
(86,612,o),
(104,602,cs),
(118,594,o),
(120,588,o),
(120,571,cs),
(120,79,ls),
(120,62,o),
(118,55,o),
(104,47,cs),
(86,37,o),
(48,29,o),
(48,29,c),
(56,-9,l),
(111,-4,o),
(149,0,o),
(177,0,cs),
(511,0,l),
(519,29,o),
(533,137,o),
(534,169,c),
(486,178,l),
(478,152,o),
(444,79,o),
(425,63,c),
(249,63,l),
(249,563,ls)
);
}
);
width = 540;
}
);
unicode = 76;
},
{
glyphname = Lacute;
lastChange = "2024-04-29 10:22:53 +0000";
layers = (
{
background = {
shapes = (
{
closed = 1;
nodes = (
(214,593,o),
(216.5,602.333,o),
(238.5,609,cs),
(249.5,612.333,o),
(276.333,616.667,o),
(319,622,c),
(312,658,l),
(265.333,652.667,o),
(223.5,650,o),
(186.5,650,cs),
(149.5,650,o),
(106.333,652.667,o),
(57,658,c),
(50,625,l),
(60,624,ls),
(84,620,o),
(100.333,616,o),
(109,612,cs),
(119.667,607.333,o),
(125,597,o),
(125,581,cs),
(125,69,ls),
(125,35.667,o),
(103.333,30.667,o),
(50,24,c),
(57,-8,l),
(111.667,-2.667,o),
(148.333,0,o),
(167,0,cs),
(496,0,l),
(504,28,o),
(518.667,134,o),
(520,166,c),
(486,173,l),
(476.667,141,o),
(441,64,o),
(425,48,c),
(214,48,l),
(214,573,ls)
);
},
{
closed = 1;
nodes = (
(277,823.667,o),
(226.333,833,o),
(209,833,c),
(194.333,823.667,o),
(99.667,725.333,o),
(85,708,c),
(111,681,l),
(299,799,l),
(293,817,l)
);
}
);
};
layerId = "619f1a1e-fd92-11ee-b280-8aa624eb3053";
shapes = (
{
ref = L;
},
{
pos = (40,-8);
ref = acutecomb.case;
}
);
width = 528;
},
{
layerId = "66e3d46a-fd92-11ee-8244-8aa624eb3053";
shapes = (
{
ref = L;
},
{
pos = (46,4);
ref = acutecomb.case;
}
);
width = 540;
}
);
unicode = 313;
},
{
glyphname = Lcaron;
lastChange = "2024-04-29 12:48:28 +0000";
layers = (
{
background = {
shapes = (
{
closed = 1;
nodes = (
(214,593,o),
(216.5,602.333,o),
(238.5,609,cs),
(249.5,612.333,o),
(276.333,616.667,o),
(319,622,c),
(312,658,l),
(265.333,652.667,o),
(223.5,650,o),
(186.5,650,cs),
(149.5,650,o),
(106.333,652.667,o),
(57,658,c),
(50,625,l),
(60,624,ls),
(84,620,o),
(100.333,616,o),
(109,612,cs),
(119.667,607.333,o),
(125,597,o),
(125,581,cs),
(125,69,ls),
(125,35.667,o),
(103.333,30.667,o),
(50,24,c),
(57,-8,l),
(111.667,-2.667,o),
(148.333,0,o),
(167,0,cs),
(496,0,l),
(504,28,o),
(518.667,134,o),
(520,166,c),
(486,173,l),
(476.667,141,o),
(441,64,o),
(425,48,c),
(214,48,l),
(214,573,ls)
);
},
{
closed = 1;
nodes = (
(399,707.333,o),
(371.667,678.333,o),
(361,661,c),
(368,645,l),
(431.498,638.431,o),
(441.575,620.562,o),
(406.5,567.5,cs),
(393.5,547.833,o),
(380,531,o),
(366,517,c),
(388,499,l),
(433.333,537.667,o),
(492,611.333,o),
(492,650,cs),
(492,688.667,o),
(451,715.333,o),
(415,718,c)
);
}
);
};
layerId = "619f1a1e-fd92-11ee-b280-8aa624eb3053";
shapes = (
{
ref = L;
},
{
alignment = -1;
pos = (317,759);
ref = commaaccentcomb;
}
);
width = 528;
},
{
background = {
shapes = (
{
closed = 1;
nodes = (
(249,581,o),
(255.667,592.5,o),
(269,597.5,cs),
(282.333,602.5,o),
(309.667,609,o),
(351,617,c),
(343,659,l),
(295,653,o),
(246.833,650,o),
(198.5,650,cs),
(150.167,650,o),
(103,653,o),
(57,659,c),
(48,620,l),
(58,618,ls),
(78.667,612.667,o),
(95.333,606.667,o),
(108,600,cs),
(116,595.333,o),
(120,585.667,o),
(120,571,cs),
(120,79,ls),
(120,48.333,o),
(98.667,39.667,o),
(48,29,c),
(56,-9,l),
(122,-3,o),
(162.333,0,o),
(177,0,cs),
(511,0,l),
(519,28,o),
(532.667,135.667,o),
(534,169,c),
(486,178,l),
(476.667,147.333,o),
(442.333,77.667,o),
(425,63,c),
(249,63,l),
(249,563,ls)
);
},
{
closed = 1;
nodes = (
(422.333,706.667,o),
(391.667,670.667,o),
(377,648,c),
(386,629,l),
(442.094,623.501,o),
(450.381,607.039,o),
(420,557,cs),
(408.667,538.333,o),
(397,522.667,o),
(385,510,c),
(414,486,l),
(468.667,524.667,o),
(538,601.5,o),
(538,643.5,cs),
(538,685.5,o),
(486.333,717.333,o),
(441,720,c)
);
}
);
};
layerId = "66e3d46a-fd92-11ee-8244-8aa624eb3053";
shapes = (
{
ref = L;
},
{
alignment = -1;
pos = (347,755);
ref = commaaccentcomb;
}
);
width = 540;
}
);
unicode = 317;
},
{
glyphname = Ldot;
lastChange = "2024-04-29 12:55:53 +0000";
layers = (
{
background = {
shapes = (
{
closed = 1;
nodes = (
(214,593,o),
(216.5,602.333,o),
(238.5,609,cs),
(249.5,612.333,o),
(276.333,616.667,o),
(319,622,c),
(312,658,l),
(265.333,652.667,o),
(223.5,650,o),
(186.5,650,cs),
(149.5,650,o),
(106.333,652.667,o),
(57,658,c),
(50,625,l),
(60,624,ls),
(84,620,o),
(100.333,616,o),
(109,612,cs),
(119.667,607.333,o),
(125,597,o),
(125,581,cs),
(125,69,ls),
(125,35.667,o),
(103.333,30.667,o),
(50,24,c),
(57,-8,l),
(111.667,-2.667,o),
(148.333,0,o),
(167,0,cs),
(496,0,l),
(504,28,o),
(518.667,134,o),
(520,166,c),
(486,173,l),
(476.667,141,o),
(441,64,o),
(425,48,c),
(214,48,l),
(214,573,l),
(214,573,l)
);
},
{
closed = 1;
nodes = (
(358.5,320.5,l),
(388.488,292.446,o),
(454,305.034,o),
(454,358,cs),
(454,388.667,o),
(431.167,411,o),
(398.5,411,cs),
(343.003,411,o),
(328.072,348.965,o),
(358.5,320.5,c)
);
}
);
};
layerId = "619f1a1e-fd92-11ee-b280-8aa624eb3053";
shapes = (
{
ref = L;
},
{
pos = (257,87);
ref = periodcentered;
}
);
width = 528;
},
{
background = {
shapes = (
{
closed = 1;
nodes = (
(249,581,o),
(255.667,592.5,o),
(269,597.5,cs),
(282.333,602.5,o),
(309.667,609,o),
(351,617,c),
(343,659,l),
(295,653,o),
(246.833,650,o),
(198.5,650,cs),
(150.167,650,o),
(103,653,o),
(57,659,c),
(48,620,l),
(58,618,ls),
(78.667,612.667,o),
(95.333,606.667,o),
(108,600,cs),
(116,595.333,o),
(120,585.667,o),
(120,571,cs),
(120,79,ls),
(120,48.333,o),
(98.667,39.667,o),
(48,29,c),
(56,-9,l),
(122,-3,o),
(162.333,0,o),
(177,0,cs),
(511,0,l),
(519,28,o),
(532.667,135.667,o),
(534,169,c),
(486,178,l),
(476.667,147.333,o),
(442.333,77.667,o),
(425,63,c),
(249,63,l),
(249,563,l),
(249,563,l)
);
},
{
closed = 1;
nodes = (
(363,298.5,l),
(393.955,270.91,o),
(451.915,270.947,o),
(483.5,298.5,cs),
(499.167,312.167,o),
(507,329.667,o),
(507,351,cs),
(507,393.667,o),
(472.333,424,o),
(423,424,cs),
(373.667,424,o),
(340,393.667,o),
(340,351,cs),
(340,329.667,o),
(347.667,312.167,o),
(363,298.5,c)
);
}
);
};
layerId = "66e3d46a-fd92-11ee-8244-8aa624eb3053";
shapes = (
{
ref = L;
},
{
pos = (283,74);
ref = periodcentered;
}
);
width = 540;
}
);
unicode = 319;
},
{
glyphname = Lslash;
lastChange = "2024-04-29 12:56:18 +0000";
layers = (
{
background = {
shapes = (
{
closed = 1;
nodes = (
(214,593,o),
(216.5,602.333,o),
(238.5,609,cs),
(249.5,612.333,o),
(276.333,616.667,o),
(319,622,c),
(312,658,l),
(265.333,652.667,o),
(223.5,650,o),
(186.5,650,cs),
(149.5,650,o),
(106.333,652.667,o),
(57,658,c),
(50,625,l),
(60,624,ls),
(84,620,o),
(100.333,616,o),
(109,612,cs),
(119.667,607.333,o),
(125,597,o),
(125,581,cs),
(125,336,l),
(25,283,l),
(36,240,l),
(125,287,l),
(125,69,ls),
(125,35.667,o),
(103.333,30.667,o),
(50,24,c),
(57,-8,l),
(111.667,-2.667,o),
(148.333,0,o),
(167,0,cs),
(496,0,l),
(504,28,o),
(518.667,134,o),
(520,166,c),
(486,173,l),
(476.667,141,o),
(441,64,o),
(425,48,c),
(214,48,l),
(214,335,l),
(391,430,l),
(380,473,l),
(214,384,l),
(214,573,ls)
);
}
);
};
layerId = "619f1a1e-fd92-11ee-b280-8aa624eb3053";
shapes = (
{
closed = 1;
nodes = (
(25,283,l),
(36,240,l),
(391,430,l),
(380,473,l)
);
},
{
ref = L;
}
);
width = 528;
},
{
background = {
shapes = (
{
closed = 1;
nodes = (
(249,581,o),
(255.667,592.5,o),
(269,597.5,cs),
(282.333,602.5,o),
(309.667,609,o),
(351,617,c),
(343,659,l),
(295,653,o),
(246.833,650,o),
(198.5,650,cs),
(150.167,650,o),
(103,653,o),
(57,659,c),
(48,620,l),
(58,618,ls),
(78.667,612.667,o),
(95.333,606.667,o),
(108,600,cs),
(116,595.333,o),
(120,585.667,o),
(120,571,cs),
(120,339,l),
(23,287,l),
(37,234,l),
(120,278,l),
(120,79,ls),
(120,48.333,o),
(98.667,39.667,o),
(48,29,c),
(56,-9,l),
(122,-3,o),
(162.333,0,o),
(177,0,cs),
(511,0,l),
(519,28,o),
(532.667,135.667,o),
(534,169,c),
(486,178,l),
(476.667,147.333,o),
(442.333,77.667,o),
(425,63,c),
(249,63,l),
(249,347,l),
(397,427,l),
(383,480,l),
(249,408,l),
(249,563,ls)
);
}
);
};
layerId = "66e3d46a-fd92-11ee-8244-8aa624eb3053";
shapes = (
{
closed = 1;
nodes = (
(23,287,l),
(37,234,l),
(397,427,l),
(383,480,l)
);
},
{
ref = L;
}
);
width = 540;
}
);
unicode = 321;
},
{
glyphname = M;
lastChange = "2024-04-29 10:22:39 +0000";
layers = (
{
anchors = (
{
name = top;
pos = (461,0);
}
);
layerId = "619f1a1e-fd92-11ee-b280-8aa624eb3053";
shapes = (
{
closed = 1;
nodes = (
(477,142,o),
(474,109,o),
(474,109,c),
(467,111,l),
(467,111,o),
(462,138,o),
(454,158,cs),
(288,591,ls),
(276,623,o),
(268,659,o),
(268,659,c),
(245,654,o),
(191,650,o),
(170,650,cs),
(150,650,o),
(112,651,o),
(70,659,c),
(63,626,l),
(63,626,o),
(103,621,o),
(121,613,cs),
(136,607,o),
(138,598,o),
(137,582,cs),
(100,69,ls),
(99,52,o),
(97,45,o),
(83,38,c),
(64,30,o),
(29,25,o),
(29,25,c),
(36,-8,l),
(78,-3,o),
(106,0,o),
(132,0,cs),
(159,0,o),
(202,-3,o),
(244,-8,c),
(251,27,l),
(251,27,o),
(198,34,o),
(180,42,cs),
(165,49,o),
(162,55,o),
(163,72,cs),
(198,563,l),
(205,568,l),
(205,568,o),
(215,525,o),
(224,502,cs),
(373,129,ls),
(394,77,o),
(422,-17,o),
(422,-17,c),
(482,0,l),
(482,0,o),
(507,84,o),
(530,142,cs),
(674,503,ls),
(684,527,o),
(695,577,o),
(695,577,c),
(701,572,l),
(730,72,ls),
(731,55,o),
(728,48,o),
(713,42,c),
(694,33,o),
(642,27,o),
(642,27,c),
(649,-8,l),
(690,-3,o),
(744,0,o),
(771,0,cs),
(797,0,o),
(844,-3,o),
(886,-8,c),
(893,25,l),
(893,25,o),
(857,30,o),
(838,38,cs),
(823,45,o),
(821,55,o),
(820,72,cs),
(790,579,l),
(790,595,o),
(791,607,o),
(806,613,cs),
(825,621,o),
(864,626,o),
(864,626,c),
(857,659,l),
(815,651,o),
(772,650,o),
(752,650,cs),
(731,650,o),
(692,654,o),
(669,659,c),
(669,659,o),
(658,617,o),
(646,585,cs),
(483,157,ls)
);
}
);
width = 926;
},
{
anchors = (
{
name = top;
pos = (468,0);
}
);
layerId = "66e3d46a-fd92-11ee-8244-8aa624eb3053";
shapes = (
{
closed = 1;
nodes = (
(486,186,o),
(484,153,o),
(484,153,c),
(477,155,l),
(477,155,o),
(472,182,o),
(464,202,cs),
(320,591,ls),
(308,623,o),
(300,660,o),
(300,660,c),
(272,655,o),
(201,650,o),
(175,650,cs),
(154,650,o),
(112,652,o),
(68,660,c),
(61,621,l),
(61,621,o),
(103,612,o),
(121,603,cs),
(135,596,o),
(138,587,o),
(137,572,cs),
(100,79,ls),
(99,62,o),
(97,55,o),
(83,48,cs),
(64,38,o),
(27,30,o),
(27,30,c),
(35,-9,l),
(70,-4,o),
(110,0,o),
(137,0,cs),
(166,0,o),
(224,-4,o),
(260,-9,c),
(268,32,l),
(268,32,o),
(218,42,o),
(200,52,cs),
(185,60,o),
(182,65,o),
(183,82,cs),
(212,498,l),
(219,503,l),
(219,503,o),
(229,460,o),
(238,437,cs),
(358,129,ls),
(379,77,o),
(407,-18,o),
(407,-18,c),
(502,6,l),
(502,6,o),
(523,86,o),
(545,142,cs),
(664,442,ls),
(674,466,o),
(685,516,o),
(685,516,c),
(691,511,l),
(715,82,ls),
(716,65,o),
(713,60,o),
(698,52,cs),
(679,42,o),
(630,32,o),
(630,32,c),
(637,-9,l),
(681,-4,o),
(746,0,o),
(776,0,cs),
(804,0,o),
(861,-3,o),
(903,-9,c),
(910,30,l),
(910,30,o),
(876,38,o),
(858,48,cs),
(844,56,o),
(841,64,o),
(840,82,cs),
(810,569,ls),
(809,585,o),
(812,596,o),
(826,603,cs),
(844,612,o),
(881,621,o),
(881,621,c),
(874,660,l),
(828,652,o),
(779,650,o),
(757,650,cs),
(733,650,o),
(683,655,o),
(657,660,c),
(657,660,o),
(648,617,o),
(636,585,cs),
(493,201,l)
);
}
);
width = 944;
}
);
unicode = 77;
},
{
glyphname = N;
lastChange = "2024-04-29 10:14:07 +0000";
layers = (
{
anchors = (
{
name = bottom;
pos = (391,0);
},
{
name = top;
pos = (392,0);
}
);
layerId = "619f1a1e-fd92-11ee-b280-8aa624eb3053";
shapes = (
{
closed = 1;
nodes = (
(196,572,l),
(196,572,o),
(215,531,o),
(232,507,cs),
(475,178,ls),
(555,70,o),
(590,-14,o),
(590,-14,c),
(665,1,l),
(665,1,o),
(657,104,o),
(657,193,cs),
(657,583,ls),
(657,599,o),
(660,607,o),
(674,613,cs),
(693,621,o),
(732,626,o),
(732,626,c),
(725,659,l),
(684,654,o),
(648,650,o),
(621,650,cs),
(595,650,o),
(556,654,o),
(514,659,c),
(507,624,l),
(507,624,o),
(556,618,o),
(574,610,cs),
(589,604,o),
(591,596,o),
(591,580,cs),
(591,149,l),
(586,145,l),
(586,145,o),
(573,189,o),
(554,216,cs),
(303,563,ls),
(262,619,o),
(241,659,o),
(241,659,c),
(218,654,o),
(182,650,o),
(161,650,cs),
(142,650,o),
(99,651,o),
(57,659,c),
(50,626,l),
(50,626,o),
(91,621,o),
(109,613,cs),
(124,607,o),
(125,599,o),
(125,583,cs),
(125,69,ls),
(125,52,o),
(124,45,o),
(109,38,cs),
(90,30,o),
(50,25,o),
(50,25,c),
(57,-8,l),
(103,-3,o),
(152,0,o),
(180,0,cs),
(210,0,o),
(245,-3,o),
(289,-8,c),
(296,28,l),
(296,28,o),
(232,36,o),
(213,42,cs),
(193,48,o),
(191,59,o),
(191,77,cs),
(191,568,l)
);
}
);
width = 764;
},
{
anchors = (
{
name = bottom;
pos = (388,0);
},
{
name = top;
pos = (391,0);
}
);
layerId = "66e3d46a-fd92-11ee-8244-8aa624eb3053";
shapes = (
{
closed = 1;
nodes = (
(210,529,l),
(210,529,o),
(229,488,o),
(246,464,cs),
(446,178,ls),
(523,68,o),
(560,-14,o),
(560,-14,c),
(668,7,l),
(668,7,o),
(660,106,o),
(660,193,cs),
(660,573,ls),
(660,589,o),
(663,596,o),
(677,603,cs),
(697,613,o),
(735,621,o),
(735,621,c),
(728,660,l),
(687,654,o),
(648,650,o),
(620,650,cs),
(591,650,o),
(544,654,o),
(498,660,c),
(491,619,l),
(491,619,o),
(539,609,o),
(558,600,cs),
(572,593,o),
(575,586,o),
(575,570,cs),
(575,196,l),
(570,192,l),
(570,192,o),
(557,236,o),
(538,263,cs),
(330,563,ls),
(291,620,o),
(268,660,o),
(268,660,c),
(240,655,o),
(186,650,o),
(160,650,cs),
(140,650,o),
(96,652,o),
(52,660,c),
(45,621,l),
(45,621,o),
(85,612,o),
(104,603,cs),
(118,596,o),
(120,589,o),
(120,573,cs),
(120,79,ls),
(120,62,o),
(119,55,o),
(104,48,cs),
(83,37,o),
(42,30,o),
(42,30,c),
(50,-9,l),
(98,-3,o),
(149,0,o),
(179,0,cs),
(211,0,o),
(253,-3,o),
(299,-9,c),
(307,33,l),
(307,33,o),
(245,44,o),
(227,52,c),
(207,58,o),
(205,69,o),
(205,87,cs),
(205,525,l)
);
}
);
width = 769;
}
);
unicode = 78;
},
{
glyphname = Eng;
lastChange = "2024-04-29 10:29:12 +0000";
layers = (
{
layerId = "619f1a1e-fd92-11ee-b280-8aa624eb3053";
shapes = (
{
closed = 1;
nodes = (
(57,-8,l),
(106.333,-2.667,o),
(145.667,0,o),
(175,0,cs),
(204.333,0,o),
(242.333,-2.667,o),
(289,-8,c),
(296,28,l),
(268,33,o),
(241,37,o),
(213,42,c),
(194.333,47.333,o),
(191,57,o),
(191,77,cs),
(191,240.667,o),
(191,404.333,o),
(191,568,c),
(196,572,l),
(197.667,568.333,o),
(199.333,564.667,o),
(201,561,cs),
(210.333,541,o),
(220.667,523,o),
(232,507,cs),
(313,397.333,o),
(394,287.667,o),
(475,178,cs),
(513.667,124.667,o),
(578,20.333,o),
(578,-5,cs),
(578,-77.667,o),
(542.333,-154.333,o),
(471,-235,c),
(479,-243.333,o),
(487,-251.667,o),
(495,-260,c),
(519,-236.333,o),
(543,-212.667,o),
(567,-189,c),
(610,-143,o),
(633,-107,o),
(645,-68,cs),
(655,-34,o),
(657,2,o),
(657,50,cs),
(657,227.667,o),
(657,405.333,o),
(657,583,cs),
(657,613.667,o),
(680,619.333,o),
(732,626,c),
(729.667,637,o),
(727.333,648,o),
(725,659,c),
(675.667,653,o),
(640.833,650,o),
(620.5,650,cs),
(600.167,650,o),
(564.667,653,o),
(514,659,c),
(511.667,647.333,o),
(509.333,635.667,o),
(507,624,c),
(511.333,623.333,o),
(515.667,622.667,o),
(520,622,cs),
(545.333,619.333,o),
(563.333,615.333,o),
(574,610,cs),
(585.333,605.333,o),
(591,595.333,o),
(591,580,cs),
(591,436.333,o),
(591,292.667,o),
(591,149,c),
(589.333,147.667,o),
(587.667,146.333,o),
(586,145,c),
(584.667,149,o),
(583.333,153,o),
(582,157,cs),
(574.667,179.667,o),
(565.333,199.333,o),
(554,216,cs),
(470.333,331.667,o),
(386.667,447.333,o),
(303,563,cs),
(275.667,600.333,o),
(255,632.333,o),
(241,659,c),
(213.667,653,o),
(184,650,o),
(152,650,cs),
(120,650,o),
(88.333,653,o),
(57,659,c),
(54.667,648,o),
(52.333,637,o),
(50,626,c),
(53.667,625.333,o),
(57.333,624.667,o),
(61,624,cs),
(83.667,621.333,o),
(99.667,617.667,o),
(109,613,cs),
(119.667,609,o),
(125,599,o),
(125,583,cs),
(125,411.667,o),
(125,240.333,o),
(125,69,cs),
(125,54,o),
(120,44,o),
(109,38,cs),
(97,32,o),
(78,28,o),
(50,25,c)
);
}
);
width = 764;
},
{
layerId = "66e3d46a-fd92-11ee-8244-8aa624eb3053";
shapes = (
{
closed = 1;
nodes = (
(50,-9,l),
(98,-3,o),
(140,0,o),
(176,0,cs),
(212,0,o),
(253,-3,o),
(299,-9,c),
(307,33,l),
(271,40,o),
(241,45,o),
(227,52,c),
(208.333,57.333,o),
(205,67,o),
(205,87,cs),
(205,233,o),
(205,379,o),
(205,525,c),
(210,529,l),
(211.667,525.333,o),
(213.333,521.667,o),
(215,518,cs),
(224.333,498,o),
(234.667,480,o),
(246,464,cs),
(312.667,368.667,o),
(379.333,273.333,o),
(446,178,cs),
(516,78,o),
(551,18.667,o),
(551,0,cs),
(551,-72,o),
(512,-148.667,o),
(434,-230,c),
(444,-240,o),
(454,-250,o),
(464,-260,c),
(494.333,-236.333,o),
(524.667,-212.667,o),
(555,-189,cs),
(605.667,-149,o),
(635,-114.833,o),
(647,-71.5,cs),
(659,-28.167,o),
(660,-8.667,o),
(660,50,cs),
(660,224.333,o),
(660,398.667,o),
(660,573,cs),
(660,601,o),
(684.333,610.333,o),
(735,621,c),
(732.667,634,o),
(730.333,647,o),
(728,660,c),
(682.667,653.333,o),
(645.833,650,o),
(617.5,650,cs),
(589.167,650,o),
(549.333,653.333,o),
(498,660,c),
(495.667,646.333,o),
(493.333,632.667,o),
(491,619,c),
(495.333,618,o),
(499.667,617,o),
(504,616,cs),
(532.667,609.333,o),
(550.667,604,o),
(558,600,cs),
(569.333,594.667,o),
(575,584.667,o),
(575,570,cs),
(575,445.333,o),
(575,320.667,o),
(575,196,c),
(573.333,194.667,o),
(571.667,193.333,o),
(570,192,c),
(568.667,196,o),
(567.333,200,o),
(566,204,cs),
(557.333,228,o),
(548,247.667,o),
(538,263,cs),
(468.667,363,o),
(399.333,463,o),
(330,563,cs),
(304,601,o),
(283.333,633.333,o),
(268,660,c),
(230.667,653.333,o),
(194.5,650,o),
(159.5,650,cs),
(124.5,650,o),
(88.667,653.333,o),
(52,660,c),
(49.667,647,o),
(47.333,634,o),
(45,621,c),
(50,620,o),
(54,618,o),
(59,617,cs),
(74,612,o),
(89,608,o),
(104,603,c),
(114.667,597.667,o),
(120,587.667,o),
(120,573,cs),
(120,408.333,o),
(120,243.667,o),
(120,79,cs),
(120,63,o),
(114.667,52.667,o),
(104,48,cs),
(90,40.667,o),
(69.333,34.667,o),
(42,30,c)
);
}
);
width = 769;
}
);
unicode = 330;
},
{
glyphname = O;
lastChange = "2024-04-18 14:46:39 +0000";
layers = (
{
anchors = (
{
name = top;
pos = (375,0);
}
);
layerId = "619f1a1e-fd92-11ee-b280-8aa624eb3053";
shapes = (
{
closed = 1;
nodes = (
(47,106,o),
(177,-16,o),
(380,-16,cs),
(583,-16,o),
(708,138,o),
(708,341,cs),
(708,544,o),
(578,666,o),
(375,666,cs),
(172,666,o),
(47,512,o),
(47,309,cs)
);
},
{
closed = 1;
nodes = (
(148,496,o),
(215,618,o),
(366,618,cs),
(531,618,o),
(607,470,o),
(607,305,cs),
(607,154,o),
(540,32,o),
(389,32,cs),
(224,32,o),
(148,180,o),
(148,345,cs)
);
}
);
width = 755;
},
{
anchors = (
{
name = top;
pos = (383,0);
}
);
layerId = "66e3d46a-fd92-11ee-8244-8aa624eb3053";
shapes = (
{
closed = 1;
nodes = (
(40,106,o),
(176,-16,o),
(388,-16,cs),
(600,-16,o),
(731,138,o),
(731,341,cs),
(731,544,o),
(595,666,o),
(383,666,cs),
(171,666,o),
(40,512,o),
(40,309,cs)
);
},
{
closed = 1;
nodes = (
(181,490,o),
(239,608,o),
(374,608,cs),
(524,608,o),
(590,464,o),
(590,305,cs),
(590,160,o),
(532,42,o),
(397,42,cs),
(247,42,o),
(181,186,o),
(181,345,cs)
);
}
);
width = 771;
}
);
unicode = 79;
},
{
glyphname = Ohorn;
lastChange = "2024-04-29 11:07:24 +0000";
layers = (
{
layerId = "619f1a1e-fd92-11ee-b280-8aa624eb3053";
shapes = (
{
closed = 1;
nodes = (
(176.333,666,o),
(47,515,o),
(47,311,cs),
(47,107,o),
(176.667,-16,o),
(378,-16,cs),
(579.333,-16,o),
(708,133.667,o),
(708,343,cs),
(708,447.667,o),
(675,529.333,o),
(609,588,c),
(681,611.333,o),
(717,651.333,o),
(717,708,cs),
(717,736,o),
(701,766.333,o),
(677,777,c),
(658.333,773,o),
(615,750.333,o),
(599,737,c),
(599,714,l),
(621.667,708.667,o),
(643,690.333,o),
(643,673,cs),
(643,647.667,o),
(620.333,627.333,o),
(575,612,c),
(520.333,648,o),
(453.667,666,o),
(375,666,cs)
);
},
{
closed = 1;
nodes = (
(520.5,618,o),
(607,480.333,o),
(607,311,cs),
(607,141.667,o),
(534.5,32,o),
(384.5,32,cs),
(234.5,32,o),
(148,169.667,o),
(148,339,cs),
(148,508.333,o),
(220.5,618,o),
(370.5,618,cs)
);
}
);
width = 755;
},
{
layerId = "66e3d46a-fd92-11ee-8244-8aa624eb3053";
shapes = (
{
closed = 1;
nodes = (
(175,666,o),
(40,515,o),
(40,311,cs),
(40,107,o),
(175.333,-16,o),
(386,-16,cs),
(596.667,-16,o),
(731,134.167,o),
(731,341.5,cs),
(731,445.167,o),
(697.333,526.333,o),
(630,585,c),
(706.667,611.667,o),
(745,651.333,o),
(745,704,cs),
(745,730.667,o),
(723.333,765.667,o),
(694,779,c),
(670,773.667,o),
(617.667,744,o),
(599,728,c),
(599,708,l),
(621.667,702.667,o),
(642,687.333,o),
(642,670,cs),
(642,646.667,o),
(624.333,628.333,o),
(589,615,c),
(531,649,o),
(462.333,666,o),
(383,666,cs)
);
},
{
closed = 1;
nodes = (
(513.667,608,o),
(590,474.833,o),
(590,311.5,cs),
(590,148.167,o),
(526.667,42,o),
(392,42,cs),
(257.333,42,o),
(181,175.167,o),
(181,338.5,cs),
(181,501.833,o),
(244.333,608,o),
(379,608,cs)
);
}
);
width = 771;
}
);
unicode = 416;
},
{
glyphname = Ohungarumlaut;
lastChange = "2024-04-29 10:32:56 +0000";
layers = (
{
background = {
shapes = (
{
closed = 1;
nodes = (
(378,-16,l),
(579.333,-16,o),
(708,135,o),
(708,339,cs),
(708,543,o),
(578.333,666,o),
(377,666,cs),
(175.667,666,o),
(47,515,o),
(47,311,cs),
(47,107,o),
(176.667,-16,o),
(378,-16,c)
);
},
{
closed = 1;
nodes = (
(370.5,618,l),
(520.5,618,o),
(607,480.333,o),
(607,311,cs),
(607,141.667,o),
(534.5,32,o),
(384.5,32,cs),
(234.5,32,o),
(148,169.667,o),
(148,339,cs),
(148,508.333,o),
(220.5,618,o),
(370.5,618,c)
);
},
{
closed = 1;
nodes = (
(477,831.667,o),
(463,808.833,o),
(439,768.5,cs),
(415,728.167,o),
(402,706.667,o),
(400,704,c),
(436,688,l),
(576,822,l),
(566,839,l),
(560,839.667,o),
(548.167,840,o),
(530.5,840,cs),
(512.833,840,o),
(496.333,839,o),
(481,837,c)
);
},
{
closed = 1;
nodes = (
(328,831.667,o),
(314,808.833,o),
(290,768.5,cs),
(266,728.167,o),
(253,706.667,o),
(251,704,c),
(287,688,l),
(427,822,l),
(417,839,l),
(411,839.667,o),
(399.167,840,o),
(381.5,840,cs),
(363.833,840,o),
(347.333,839,o),
(332,837,c)
);
}
);
};
layerId = "619f1a1e-fd92-11ee-b280-8aa624eb3053";
shapes = (
{
ref = O;
},
{
pos = (246,0);
ref = hungarumlautcomb.case;
}
);
width = 755;
},
{
background = {
shapes = (
{
closed = 1;
nodes = (
(386,-16,l),
(596.667,-16,o),
(731,135,o),
(731,339,cs),
(731,543,o),
(595.667,666,o),
(385,666,cs),
(174.333,666,o),
(40,515,o),
(40,311,cs),
(40,107,o),
(175.333,-16,o),
(386,-16,c)
);
},
{
closed = 1;
nodes = (
(379,608,l),
(513.667,608,o),
(590,474.833,o),
(590,311.5,cs),
(590,148.167,o),
(526.667,42,o),
(392,42,cs),
(257.333,42,o),
(181,175.167,o),
(181,338.5,cs),
(181,501.833,o),
(244.333,608,o),
(379,608,c)
);
},
{
closed = 1;
nodes = (
(551.667,887.333,o),
(484.333,871.667,o),
(467,865,c),
(456.333,851.667,o),
(416.667,725.667,o),
(410,699,c),
(461,680,l),
(586,866,l),
(569,890,l),
(569,890,l)
);
},
{
closed = 1;
nodes = (
(382.667,887.333,o),
(315.333,871.667,o),
(298,865,c),
(287.333,851.667,o),
(247.667,725.667,o),
(241,699,c),
(292,680,l),
(417,866,l),
(400,890,l),
(400,890,l)
);
}
);
};
layerId = "66e3d46a-fd92-11ee-8244-8aa624eb3053";
shapes = (
{
ref = O;
},
{
pos = (256,0);
ref = hungarumlautcomb.case;
}
);
width = 771;
}
);
unicode = 336;
},
{
glyphname = Oslash;
lastChange = "2024-04-29 10:26:00 +0000";
layers = (
{
layerId = "619f1a1e-fd92-11ee-b280-8aa624eb3053";
shapes = (
{
closed = 1;
nodes = (
(137,-31,l),
(619,660,l),
(585,697,l),
(102,5,l)
);
},
{
ref = O;
}
);
width = 755;
},
{
layerId = "66e3d46a-fd92-11ee-8244-8aa624eb3053";
shapes = (
{
closed = 1;
nodes = (
(149,-34,l),
(631,658,l),
(593,699,l),
(111,7,l)
);
},
{
ref = O;
}
);
width = 775;
}
);
unicode = 216;
},
{
glyphname = Oslashacute;
lastChange = "2024-04-29 10:26:23 +0000";
layers = (
{
layerId = "619f1a1e-fd92-11ee-b280-8aa624eb3053";
shapes = (
{
ref = Oslash;
},
{
pos = (245,0);
ref = acutecomb.case;
}
);
width = 755;
},
{
background = {
shapes = (
{
closed = 1;
nodes = (
(149,-34,l),
(193,29,l),
(249,-1,o),
(314.667,-16,o),
(390,-16,cs),
(598,-16,o),
(733,134.333,o),
(733,341,cs),
(733,463,o),
(688,552.667,o),
(598,610,c),
(631,658,l),
(593,699,l),
(549,636,l),
(498.333,656,o),
(443.667,666,o),
(385,666,cs),
(177,666,o),
(42,516.833,o),
(42,305.5,cs),
(42,199.833,o),
(77.333,118,o),
(148,60,c),
(111,7,l),
(111,7,l)
);
},
{
closed = 1;
nodes = (
(537,523,l),
(537,523,l)
);
},
{
closed = 1;
nodes = (
(424.667,608,o),
(466,593.667,o),
(500,565,c),
(219,162,l),
(171.703,260.536,o),
(164.607,433.126,o),
(231.5,534.5,cs),
(263.833,583.5,o),
(312,608,o),
(376,608,cs)
);
},
{
closed = 1;
nodes = (
(482.667,838.667,o),
(448,845,o),
(416,847,c),
(401.333,839,o),
(315.667,742,o),
(297,718,c),
(335,680,l),
(525,799,l),
(520,828,l),
(520,828,l)
);
}
);
};
layerId = "66e3d46a-fd92-11ee-8244-8aa624eb3053";
shapes = (
{
ref = Oslash;
},
{
pos = (253,0);
ref = acutecomb.case;
}
);
width = 775;
}
);
unicode = 510;
},
{
glyphname = OE;
lastChange = "2024-04-18 14:51:21 +0000";
layers = (
{
layerId = "619f1a1e-fd92-11ee-b280-8aa624eb3053";
shapes = (
{
closed = 1;
nodes = (
(58,106,o),
(182,-16,o),
(376,-16,cs),
(399,-16,o),
(423,-13,o),
(443,-8,c),
(517,45,l),
(511,74,l),
(479,47,o),
(438,32,o),
(385,32,cs),
(229,32,o),
(159,180,o),
(159,345,cs),
(159,496,o),
(219,618,o),
(362,618,cs),
(426,618,o),
(474,595,o),
(511,557,c),
(520,615,l),
(443,659,l),
(421,664,o),
(396,666,o),
(371,666,cs),
(177,666,o),
(58,512,o),
(58,309,cs)
);
},
{
closed = 1;
nodes = (
(443,-8,l),
(485,-3,o),
(530,0,o),
(556,0,cs),
(885,0,l),
(894,29,o),
(905,135,o),
(906,167,c),
(870,173,l),
(863,145,o),
(834,66,o),
(815,48,c),
(600,48,l),
(600,312,l),
(735,312,ls),
(751,312,o),
(763,310,o),
(768,297,cs),
(775,281,o),
(780,238,o),
(780,238,c),
(818,242,l),
(813,273,o),
(810,315,o),
(810,336,cs),
(810,357,o),
(813,399,o),
(818,430,c),
(780,434,l),
(780,434,o),
(775,390,o),
(768,375,c),
(763,361,o),
(751,360,o),
(735,360,cs),
(600,360,l),
(600,603,l),
(805,603,l),
(818,586,o),
(833,519,o),
(837,495,c),
(874,501,l),
(874,558,o),
(874,607,o),
(874,656,c),
(850,652,o),
(813,650,o),
(792,650,cs),
(556,650,ls),
(530,650,o),
(485,654,o),
(443,659,c),
(436,626,l),
(511,583,l),
(511,69,ls),
(511,52,o),
(510,45,o),
(495,38,cs),
(476,30,o),
(436,25,o),
(436,25,c)
);
}
);
width = 954;
},
{
layerId = "66e3d46a-fd92-11ee-8244-8aa624eb3053";
shapes = (
{
closed = 1;
nodes = (
(40,104,o),
(170,-16,o),
(373,-16,cs),
(394,-16,o),
(416,-13,o),
(435,-8,c),
(509,45,l),
(503,79,l),
(472,58,o),
(433,47,o),
(382,47,cs),
(241,47,o),
(181,189,o),
(181,345,cs),
(181,490,o),
(234,608,o),
(359,608,cs),
(421,608,o),
(467,587,o),
(503,552,c),
(512,615,l),
(435,659,l),
(415,664,o),
(391,666,o),
(368,666,cs),
(165,666,o),
(40,510,o),
(40,304,cs)
);
},
{
closed = 1;
nodes = (
(423,-9,l),
(463,-4,o),
(508,0,o),
(533,0,cs),
(882,0,l),
(891,30,o),
(901,137,o),
(902,170,c),
(852,178,l),
(845,152,o),
(816,79,o),
(797,63,c),
(617,63,l),
(617,305,l),
(717,305,ls),
(733,305,o),
(744,303,o),
(750,290,cs),
(758,272,o),
(767,228,o),
(767,228,c),
(810,234,l),
(805,269,o),
(802,311,o),
(802,334,cs),
(802,356,o),
(805,400,o),
(810,433,c),
(767,439,l),
(767,439,o),
(758,398,o),
(750,383,cs),
(743,370,o),
(733,368,o),
(717,368,cs),
(617,368,l),
(617,588,l),
(787,588,l),
(800,573,o),
(815,512,o),
(819,490,c),
(871,499,l),
(871,558,o),
(871,605,o),
(871,656,c),
(846,652,o),
(806,650,o),
(784,650,cs),
(533,650,ls),
(507,650,o),
(474,654,o),
(435,659,c),
(423,614,l),
(488,588,l),
(488,79,ls),
(488,62,o),
(486,56,o),
(472,48,cs),
(454,38,o),
(416,30,o),
(416,30,c)
);
}
);
width = 946;
}
);
unicode = 338;
},
{
glyphname = P;
lastChange = "2024-04-18 14:46:39 +0000";
layers = (
{
layerId = "619f1a1e-fd92-11ee-b280-8aa624eb3053";
shapes = (
{
closed = 1;
nodes = (
(227,615,o),
(254,619,o),
(271,619,cs),
(362,619,o),
(422,573,o),
(422,461,cs),
(422,358,o),
(364,310,o),
(261,310,cs),
(250,310,o),
(235,312,o),
(228,314,c),
(232,298,l),
(243,290,o),
(278,273,o),
(298,273,cs),
(411,273,o),
(521,361,o),
(521,474,cs),
(521,612,o),
(415,658,o),
(277,658,cs),
(195,658,o),
(114,645,o),
(57,653,c),
(50,622,l),
(50,622,o),
(90,617,o),
(109,609,cs),
(124,602,o),
(125,595,o),
(125,579,cs),
(125,69,ls),
(125,52,o),
(124,45,o),
(109,38,cs),
(90,30,o),
(50,25,o),
(50,25,c),
(57,-8,l),
(103,-3,o),
(152,0,o),
(180,0,cs),
(210,0,o),
(268,-3,o),
(312,-8,c),
(319,28,l),
(319,28,o),
(255,36,o),
(236,42,cs),
(216,48,o),
(214,59,o),
(214,77,cs),
(214,612,l)
);
}
);
width = 537;
},
{
layerId = "66e3d46a-fd92-11ee-8244-8aa624eb3053";
shapes = (
{
closed = 1;
nodes = (
(258,605,o),
(274,609,o),
(286,609,cs),
(359,609,o),
(407,565,o),
(407,461,cs),
(407,361,o),
(369,315,o),
(296,315,cs),
(285,315,o),
(270,319,o),
(263,319,c),
(267,298,l),
(278,290,o),
(314,273,o),
(333,273,cs),
(438,273,o),
(546,361,o),
(546,474,cs),
(546,612,o),
(434,658,o),
(287,658,cs),
(201,658,o),
(114,646,o),
(55,654,c),
(47,617,l),
(47,617,o),
(86,609,o),
(104,599,cs),
(118,591,o),
(120,585,o),
(120,569,cs),
(120,79,ls),
(120,62,o),
(118,56,o),
(104,48,cs),
(86,38,o),
(48,30,o),
(48,30,c),
(56,-9,l),
(106,-4,o),
(160,0,o),
(190,0,cs),
(224,0,o),
(292,-4,o),
(344,-9,c),
(352,33,l),
(352,33,o),
(289,45,o),
(271,52,cs),
(251,59,o),
(249,69,o),
(249,87,cs),
(249,602,l)
);
}
);
width = 558;
}
);
unicode = 80;
},
{
glyphname = Thorn;
lastChange = "2024-04-18 14:48:29 +0000";
layers = (
{
layerId = "619f1a1e-fd92-11ee-b280-8aa624eb3053";
shapes = (
{
closed = 1;
nodes = (
(227,495,o),
(254,499,o),
(271,499,cs),
(362,499,o),
(422,454,o),
(422,351,cs),
(422,254,o),
(364,210,o),
(261,210,cs),
(250,210,o),
(235,214,o),
(228,214,c),
(232,198,l),
(243,190,o),
(278,173,o),
(298,173,cs),
(411,173,o),
(521,257,o),
(521,364,cs),
(521,494,o),
(415,538,o),
(277,538,cs),
(229,538,o),
(182,532,o),
(140,532,c),
(214,492,l)
);
},
{
closed = 1;
nodes = (
(214,599,o),
(215,605,o),
(230,612,cs),
(249,620,o),
(291,625,o),
(291,625,c),
(284,658,l),
(242,653,o),
(197,650,o),
(170,650,cs),
(144,650,o),
(99,653,o),
(57,658,c),
(50,625,l),
(50,625,o),
(90,620,o),
(109,612,cs),
(124,605,o),
(125,599,o),
(125,582,cs),
(125,68,ls),
(125,51,o),
(124,45,o),
(109,38,cs),
(90,30,o),
(50,25,o),
(50,25,c),
(57,-8,l),
(99,-3,o),
(144,0,o),
(170,0,cs),
(197,0,o),
(242,-3,o),
(284,-8,c),
(291,25,l),
(291,25,o),
(249,30,o),
(230,38,cs),
(215,45,o),
(214,51,o),
(214,68,cs),
(214,582,ls)
);
}
);
width = 537;
},
{
layerId = "66e3d46a-fd92-11ee-8244-8aa624eb3053";
shapes = (
{
closed = 1;
nodes = (
(258,491,o),
(274,495,o),
(286,495,cs),
(359,495,o),
(407,454,o),
(407,357,cs),
(407,260,o),
(369,216,o),
(296,216,cs),
(285,216,o),
(270,220,o),
(263,220,c),
(267,199,l),
(278,191,o),
(314,174,o),
(333,174,cs),
(438,174,o),
(546,260,o),
(546,370,cs),
(546,500,o),
(434,544,o),
(287,544,cs),
(255,544,o),
(223,542,o),
(193,541,c),
(249,488,l)
);
},
{
closed = 1;
nodes = (
(249,589,o),
(250,594,o),
(265,602,cs),
(283,612,o),
(323,620,o),
(323,620,c),
(316,659,l),
(270,653,o),
(215,650,o),
(185,650,cs),
(156,650,o),
(101,653,o),
(55,659,c),
(48,620,l),
(48,620,o),
(88,612,o),
(104,602,c),
(119,594,o),
(120,589,o),
(120,572,cs),
(120,78,ls),
(120,61,o),
(119,56,o),
(104,48,cs),
(87,38,o),
(48,30,o),
(48,30,c),
(55,-9,l),
(101,-3,o),
(156,0,o),
(185,0,cs),
(215,0,o),
(270,-3,o),
(316,-9,c),
(323,30,l),
(323,30,o),
(282,38,o),
(265,48,cs),
(250,56,o),
(249,61,o),
(249,78,cs),
(249,572,ls)
);
}
);
width = 547;
}
);
unicode = 222;
},
{
glyphname = Q;
lastChange = "2024-04-18 14:46:39 +0000";
layers = (
{
layerId = "619f1a1e-fd92-11ee-b280-8aa624eb3053";
shapes = (
{
closed = 1;
nodes = (
(47,106,o),
(177,-16,o),
(380,-16,cs),
(583,-16,o),
(708,138,o),
(708,341,cs),
(708,544,o),
(578,666,o),
(375,666,cs),
(172,666,o),
(47,512,o),
(47,309,cs)
);
},
{
closed = 1;
nodes = (
(148,496,o),
(215,618,o),
(366,618,cs),
(531,618,o),
(607,470,o),
(607,305,cs),
(607,152,o),
(542,30,o),
(389,30,cs),
(224,30,o),
(148,180,o),
(148,345,cs)
);
},
{
closed = 1;
nodes = (
(365,-15,l),
(340,-26,o),
(273,-88,o),
(251,-115,c),
(279,-138,l),
(294,-122,o),
(332,-91,o),
(357,-91,cs),
(408,-91,o),
(483,-213,o),
(560,-213,cs),
(599,-213,o),
(628,-190,o),
(691,-120,c),
(668,-92,l),
(648,-116,o),
(621,-135,o),
(595,-135,cs),
(532,-135,o),
(448,-31,o),
(391,-15,c)
);
}
);
width = 755;
},
{
layerId = "66e3d46a-fd92-11ee-8244-8aa624eb3053";
shapes = (
{
closed = 1;
nodes = (
(40,106,o),
(176,-16,o),
(388,-16,cs),
(600,-16,o),
(731,138,o),
(731,341,cs),
(731,544,o),
(595,666,o),
(383,666,cs),
(171,666,o),
(40,512,o),
(40,309,cs)
);
},
{
closed = 1;
nodes = (
(181,490,o),
(239,608,o),
(374,608,cs),
(524,608,o),
(590,464,o),
(590,305,cs),
(590,158,o),
(532,40,o),
(397,40,cs),
(247,40,o),
(181,186,o),
(181,345,cs)
);
},
{
closed = 1;
nodes = (
(373,-15,l),
(347,-30,o),
(275,-105,o),
(252,-136,c),
(287,-163,l),
(302,-145,o),
(340,-111,o),
(365,-111,cs),
(416,-111,o),
(491,-213,o),
(568,-213,cs),
(610,-213,o),
(645,-188,o),
(714,-94,c),
(686,-58,l),
(663,-90,o),
(632,-115,o),
(603,-115,cs),
(540,-115,o),
(456,-27,o),
(399,-15,c)
);
}
);
width = 771;
}
);
unicode = 81;
},
{
glyphname = R;
lastChange = "2024-04-29 10:24:23 +0000";
layers = (
{
anchors = (
{
name = bottom;
pos = (360,0);
},
{
name = top;
pos = (280,0);
}
);
layerId = "619f1a1e-fd92-11ee-b280-8aa624eb3053";
shapes = (
{
closed = 1;
nodes = (
(229,616,o),
(262,619,o),
(279,619,cs),
(377,619,o),
(422,573,o),
(422,475,cs),
(422,378,o),
(366,331,o),
(269,331,cs),
(214,331,l),
(214,612,l)
);
},
{
closed = 1;
nodes = (
(125,52,o),
(124,45,o),
(109,38,cs),
(90,30,o),
(50,25,o),
(50,25,c),
(57,-8,l),
(103,-3,o),
(152,0,o),
(180,0,cs),
(210,0,o),
(268,-3,o),
(312,-8,c),
(319,28,l),
(319,28,o),
(255,36,o),
(236,42,cs),
(216,48,o),
(214,59,o),
(214,77,cs),
(214,289,l),
(257,289,ls),
(278,289,o),
(287,286,o),
(293,283,cs),
(313,274,o),
(323,254,o),
(346,217,cs),
(396,134,o),
(461,-6,o),
(504,-6,cs),
(646,-6,l),
(651,26,l),
(624,26,o),
(598,29,o),
(570,47,cs),
(500,94,o),
(443,292,o),
(368,313,c),
(368,320,l),
(450,326,o),
(521,400,o),
(521,489,cs),
(521,618,o),
(408,658,o),
(279,658,cs),
(202,658,o),
(112,646,o),
(57,653,c),
(50,622,l),
(50,622,o),
(90,617,o),
(109,609,cs),
(124,602,o),
(125,595,o),
(125,579,cs),
(125,69,ls)
);
}
);
width = 649;
},
{
anchors = (
{
name = bottom;
pos = (362,0);
},
{
name = top;
pos = (282,0);
}
);
layerId = "66e3d46a-fd92-11ee-8244-8aa624eb3053";
shapes = (
{
closed = 1;
nodes = (
(259,606,o),
(277,609,o),
(289,609,cs),
(372,609,o),
(407,567,o),
(407,475,cs),
(407,384,o),
(361,341,o),
(279,341,cs),
(249,341,l),
(249,602,l)
);
},
{
closed = 1;
nodes = (
(120,62,o),
(119,56,o),
(104,48,cs),
(87,38,o),
(48,30,o),
(48,30,c),
(55,-9,l),
(105,-4,o),
(160,0,o),
(190,0,cs),
(224,0,o),
(292,-4,o),
(344,-9,c),
(351,33,l),
(351,33,o),
(289,45,o),
(271,52,cs),
(251,59,o),
(249,69,o),
(249,87,cs),
(249,284,l),
(267,284,ls),
(281,284,o),
(291,281,o),
(300,274,cs),
(313,264,o),
(325,246,o),
(341,217,cs),
(387,133,o),
(452,-6,o),
(494,-6,cs),
(671,-6,l),
(677,31,l),
(652,31,o),
(627,37,o),
(600,56,cs),
(528,107,o),
(470,292,o),
(383,313,c),
(383,320,l),
(471,326,o),
(546,400,o),
(546,489,cs),
(546,618,o),
(427,658,o),
(289,658,cs),
(208,658,o),
(112,647,o),
(55,654,c),
(48,617,l),
(48,617,o),
(86,610,o),
(104,600,cs),
(118,592,o),
(120,585,o),
(120,569,cs),
(120,79,ls)
);
}
);
width = 665;
}
);
unicode = 82;
},
{
glyphname = Racute;
lastChange = "2024-04-29 10:56:18 +0000";
layers = (
{
background = {
shapes = (
{
closed = 1;
nodes = (
(231.333,616.667,o),
(253,619,o),
(279,619,cs),
(376.333,619,o),
(422,573.333,o),
(422,476,cs),
(422,378.667,o),
(367.667,331,o),
(269,331,cs),
(214,331,l),
(214,612,l),
(214,612,l)
);
},
{
closed = 1;
nodes = (
(70.333,650,o),
(60.333,651,o),
(57,653,c),
(50,622,l),
(60,620,ls),
(84,616.667,o),
(100.333,613,o),
(109,609,cs),
(119.667,604.333,o),
(125,594.333,o),
(125,579,cs),
(125,69,ls),
(125,37,o),
(103.333,31.667,o),
(50,25,c),
(57,-8,l),
(106.333,-2.667,o),
(149.5,0,o),
(186.5,0,cs),
(223.5,0,o),
(265.333,-2.667,o),
(312,-8,c),
(319,28,l),
(236,42,l),
(217.333,47.333,o),
(214,57,o),
(214,77,cs),
(214,289,l),
(257,289,ls),
(281.667,289,o),
(298.667,283.333,o),
(308,272,cs),
(316.479,263.521,o),
(317.422,262.499,o),
(337,231.5,cs),
(352.205,207.426,o),
(380.498,154.503,o),
(412,102,cs),
(452.667,30,o),
(483.333,-6,o),
(504,-6,cs),
(646,-6,l),
(651,26,l),
(619,26,o),
(590.667,34,o),
(566,50,cs),
(541.333,66,o),
(509.667,112.667,o),
(471,190,cs),
(443,246,o),
(401.333,303.667,o),
(368,313,c),
(368,320,l),
(450.667,326.667,o),
(521,401,o),
(521,489,cs),
(521,609,o),
(423,658,o),
(279,658,c),
(87,650,l),
(87,650,l)
);
},
{
closed = 1;
nodes = (
(389,823.667,o),
(338.333,833,o),
(321,833,c),
(306.333,823.667,o),
(211.667,725.333,o),
(197,708,c),
(223,681,l),
(411,799,l),
(405,817,l),
(405,817,l)
);
}
);
};
layerId = "619f1a1e-fd92-11ee-b280-8aa624eb3053";
shapes = (
{
ref = R;
},
{
pos = (150,0);
ref = acutecomb.case;
}
);
width = 649;
},
{
background = {
shapes = (
{
closed = 1;
nodes = (
(260.333,606.667,o),
(273.667,609,o),
(289,609,cs),
(371.667,609,o),
(407,567,o),
(407,475,cs),
(407,385.667,o),
(364.333,341,o),
(279,341,cs),
(249,341,l),
(249,602,l),
(249,602,l)
);
},
{
closed = 1;
nodes = (
(68,651,o),
(57,652,o),
(55,654,c),
(48,617,l),
(58,615,ls),
(76.667,611,o),
(93.333,605.333,o),
(108,598,cs),
(116,593.333,o),
(120,583.667,o),
(120,569,cs),
(120,79,ls),
(120,69.667,o),
(119.333,63.333,o),
(118,60,cs),
(112.667,48.667,o),
(89.333,38.667,o),
(48,30,c),
(55,-9,l),
(115,-3,o),
(162.5,0,o),
(197.5,0,cs),
(232.5,0,o),
(281.333,-3,o),
(344,-9,c),
(351,33,l),
(271,52,l),
(252.333,58.667,o),
(249,67,o),
(249,87,cs),
(249,284,l),
(267,284,ls),
(299,284,o),
(314.167,265.833,o),
(333.5,230.5,cs),
(356.911,187.715,o),
(390.268,119.698,o),
(434,50,cs),
(458,12.667,o),
(478,-6,o),
(494,-6,cs),
(671,-6,l),
(677,31,l),
(649.667,31,o),
(623,40,o),
(597,58,cs),
(571,76,o),
(537.667,122,o),
(497,196,cs),
(467.667,249.333,o),
(423,303.667,o),
(383,313,c),
(383,320,l),
(472.333,326.667,o),
(546,401,o),
(546,489,cs),
(546,609,o),
(442.333,658,o),
(289,658,cs),
(88,651,l),
(88,651,l)
);
},
{
closed = 1;
nodes = (
(378.667,838.667,o),
(344,845,o),
(312,847,c),
(297.333,839,o),
(211.667,742,o),
(193,718,c),
(231,680,l),
(421,799,l),
(416,828,l),
(416,828,l)
);
}
);
};
layerId = "66e3d46a-fd92-11ee-8244-8aa624eb3053";
shapes = (
{
ref = R;
},
{
pos = (152,0);
ref = acutecomb.case;
}
);
width = 665;
}
);
unicode = 340;
},
{
glyphname = S;
lastChange = "2024-04-29 10:39:27 +0000";
layers = (
{
anchors = (
{
name = bottom;
pos = (261,0);
},
{
name = top;
pos = (275,0);
}
);
layerId = "619f1a1e-fd92-11ee-b280-8aa624eb3053";
shapes = (
{
closed = 1;
nodes = (
(145,30,o),
(101,104,o),
(94,192,c),
(57,183,l),
(54,163,o),
(53,116,o),
(53,78,cs),
(53,53,o),
(53,32,o),
(55,21,c),
(94,4,o),
(170,-16,o),
(228,-16,cs),
(365,-16,o),
(469,50,o),
(469,187,cs),
(469,284,o),
(380,333,o),
(297,378,cs),
(223,418,o),
(154,454,o),
(154,520,cs),
(154,585,o),
(203,622,o),
(269,622,cs),
(309,622,o),
(354,611,o),
(375,597,c),
(387,566,o),
(391,519,o),
(394,480,c),
(428,486,l),
(435,512,o),
(451,607,o),
(454,640,c),
(404,649,o),
(330,666,o),
(277,666,cs),
(161,666,o),
(70,603,o),
(70,487,cs),
(70,385,o),
(160,338,o),
(243,292,cs),
(313,253,o),
(377,215,o),
(377,145,cs),
(377,72,o),
(321,30,o),
(248,30,cs)
);
}
);
width = 524;
},
{
anchors = (
{
name = bottom;
pos = (266,0);
},
{
name = top;
pos = (276,0);
}
);
layerId = "66e3d46a-fd92-11ee-8244-8aa624eb3053";
shapes = (
{
closed = 1;
nodes = (
(151,40,o),
(111,114,o),
(104,199,c),
(52,188,l),
(48,169,o),
(48,124,o),
(48,88,cs),
(48,59,o),
(48,34,o),
(50,21,c),
(90,4,o),
(168,-16,o),
(228,-16,cs),
(374,-16,o),
(484,50,o),
(484,187,cs),
(484,292,o),
(394,344,o),
(312,390,cs),
(243,428,o),
(179,462,o),
(179,520,cs),
(179,579,o),
(218,612,o),
(269,612,cs),
(305,612,o),
(346,601,o),
(365,587,c),
(377,557,o),
(381,512,o),
(384,475,c),
(433,482,l),
(440,509,o),
(457,606,o),
(459,640,c),
(408,649,o),
(331,666,o),
(277,666,cs),
(152,666,o),
(55,603,o),
(55,487,cs),
(55,380,o),
(144,331,o),
(224,284,cs),
(291,245,o),
(352,209,o),
(352,145,cs),
(352,78,o),
(306,40,o),
(248,40,cs)
);
}
);
width = 524;
}
);
unicode = 83;
},
{
glyphname = Scircumflex;
lastChange = "2024-04-29 10:44:58 +0000";
layers = (
{
background = {
shapes = (
{
closed = 1;
nodes = (
(57,183,l),
(54.333,165,o),
(53,135.333,o),
(53,94,cs),
(53,52.667,o),
(53.667,28.333,o),
(55,21,c),
(193.901,-39.463,o),
(327.827,-22.391,o),
(402.5,36,cs),
(446.833,70.667,o),
(469,121,o),
(469,187,cs),
(469,233.667,o),
(450,272.667,o),
(412,304,cs),
(373.333,336,o),
(350,349.5,o),
(302,375.5,cs),
(278,388.5,o),
(261.333,397.333,o),
(252,402,cs),
(186.667,438.667,o),
(154,478,o),
(154,520,cs),
(154,584,o),
(198,622,o),
(278,622,cs),
(318,622,o),
(350.333,613.667,o),
(375,597,c),
(383,575.667,o),
(389.333,536.667,o),
(394,480,c),
(428,486,l),
(440,530.667,o),
(448.667,582,o),
(454,640,c),
(358,657.333,o),
(299,666,o),
(277,666,cs),
(157,666,o),
(70,599,o),
(70,487,cs),
(70,462.333,o),
(76.333,437.333,o),
(89,412,cs),
(98.333,393.333,o),
(126.833,367.833,o),
(139.5,356.5,cs),
(152.167,345.167,o),
(194,318.667,o),
(206,312,cs),
(265.333,280.667,o),
(308.333,253.667,o),
(335,231,cs),
(363,207,o),
(377,178.333,o),
(377,145,cs),
(377,74.333,o),
(325.5,30,o),
(239.5,30,cs),
(153.5,30,o),
(102,96,o),
(94,192,c)
);
},
{
closed = 1;
nodes = (
(220,817,o),
(142,716.667,o),
(134,702,c),
(162,681,l),
(277,771,l),
(392,681,l),
(420,702,l),
(412,716.667,o),
(334,817,o),
(318,829,c),
(307.333,830.333,o),
(293.667,831,o),
(277,831,cs),
(260.333,831,o),
(246.667,830.333,o),
(236,829,c)
);
}
);
};
layerId = "619f1a1e-fd92-11ee-b280-8aa624eb3053";
shapes = (
{
ref = S;
},
{
pos = (114,0);
ref = circumflexcomb.case;
}
);
width = 524;
},
{
background = {
shapes = (
{
closed = 1;
nodes = (
(157.333,40,o),
(112,105.667,o),
(104,199,c),
(52,188,l),
(49.333,175.333,o),
(48,146.5,o),
(48,101.5,cs),
(48,56.5,o),
(48.667,29.667,o),
(50,21,c),
(166.305,-28.463,o),
(317.751,-34.624,o),
(413.5,36,cs),
(460.5,70.667,o),
(484,121,o),
(484,187,cs),
(484,237.667,o),
(465.333,279.333,o),
(428,312,cs),
(388,345.333,o),
(368.333,357.833,o),
(303,394.5,cs),
(270.333,412.833,o),
(243.333,430,o),
(222,446,cs),
(193.333,467.333,o),
(179,492,o),
(179,520,cs),
(179,577.333,o),
(217,612,o),
(269,612,cs),
(310.333,612,o),
(342.333,603.667,o),
(365,587,c),
(373,566.333,o),
(379.333,529,o),
(384,475,c),
(433,482,l),
(441,511.333,o),
(457.667,608,o),
(459,640,c),
(361,657.333,o),
(300.333,666,o),
(277,666,cs),
(147.667,666,o),
(55,599,o),
(55,487,cs),
(55,450.333,o),
(64,420,o),
(82,396,cs),
(102,370.667,o),
(111.333,357,o),
(146,333,cs),
(163.333,321,o),
(175.667,312.833,o),
(183,308.5,cs),
(190.333,304.167,o),
(208.167,293.833,o),
(236.5,277.5,cs),
(264.833,261.167,o),
(290,243.667,o),
(312,225,cs),
(338.667,202.333,o),
(352,175.667,o),
(352,145,cs),
(352,79.667,o),
(308,40,o),
(248,40,cs)
);
},
{
closed = 1;
nodes = (
(208,835,o),
(134.333,736.333,o),
(125,719,c),
(169,688,l),
(277,777,l),
(385,688,l),
(428,719,l),
(416,739,o),
(346,836.333,o),
(330,847,c),
(317.333,850.333,o),
(299.833,852,o),
(277.5,852,cs),
(255.167,852,o),
(237.333,850.333,o),
(224,847,c)
);
}
);
};
layerId = "66e3d46a-fd92-11ee-8244-8aa624eb3053";
shapes = (
{
ref = S;
},
{
pos = (115,0);
ref = circumflexcomb.case;
}
);
width = 524;
}
);
unicode = 348;
},
{
glyphname = T;
lastChange = "2024-04-29 12:55:19 +0000";
layers = (
{
anchors = (
{
name = bottom;
pos = (296,0);
},
{
name = top;
pos = (285.548,0);
}
);
layerId = "619f1a1e-fd92-11ee-b280-8aa624eb3053";
shapes = (
{
closed = 1;
nodes = (
(313,0,o),
(381,-3,o),
(422,-8,c),
(430,26,l),
(430,26,o),
(366,34,o),
(347,43,cs),
(333,49,o),
(331,55,o),
(331,72,cs),
(331,603,l),
(498,603,l),
(507,578,o),
(517,506,o),
(519,478,c),
(555,484,l),
(560,521,o),
(566,620,o),
(564,657,c),
(540,654,o),
(484,650,o),
(463,650,cs),
(110,650,ls),
(89,650,o),
(33,654,o),
(9,657,c),
(7,620,o),
(12,521,o),
(17,484,c),
(54,478,l),
(56,506,o),
(66,578,o),
(75,603,c),
(242,603,l),
(242,72,ls),
(242,55,o),
(240,49,o),
(226,43,cs),
(207,34,o),
(143,26,o),
(143,26,c),
(151,-8,l),
(192,-3,o),
(259,0,o),
(286,0,cs)
);
}
);
width = 573;
},
{
anchors = (
{
name = bottom;
pos = (296,0);
},
{
name = top;
pos = (288.548,0);
}
);
layerId = "66e3d46a-fd92-11ee-8244-8aa624eb3053";
shapes = (
{
closed = 1;
nodes = (
(319,0,o),
(398,-4,o),
(441,-9,c),
(450,31,l),
(450,31,o),
(389,43,o),
(370,53,cs),
(357,60,o),
(354,65,o),
(354,82,cs),
(354,588,l),
(486,588,l),
(495,565,o),
(505,496,o),
(507,470,c),
(563,479,l),
(567,517,o),
(574,620,o),
(572,658,c),
(547,655,o),
(488,650,o),
(466,650,cs),
(113,650,ls),
(91,650,o),
(32,655,o),
(7,658,c),
(5,620,o),
(10,517,o),
(15,479,c),
(72,470,l),
(75,496,o),
(84,565,o),
(93,588,c),
(225,588,l),
(225,82,ls),
(225,65,o),
(223,61,o),
(209,53,cs),
(190,43,o),
(129,31,o),
(129,31,c),
(138,-9,l),
(181,-4,o),
(259,0,o),
(289,0,cs)
);
}
);
width = 579;
}
);
unicode = 84;
},
{
glyphname = Tbar;
lastChange = "2024-04-29 12:55:01 +0000";
layers = (
{
background = {
shapes = (
{
closed = 1;
nodes = (
(414,28,ls),
(378.667,34,o),
(356,39,o),
(346,43,cs),
(334,48.333,o),
(331,54.667,o),
(331,72,cs),
(331,315,l),
(487,315,l),
(496,361,l),
(331,361,l),
(331,603,l),
(498,603,l),
(508,575,o),
(515,533.333,o),
(519,478,c),
(555,484,l),
(561.667,533.333,o),
(565,571.5,o),
(565,598.5,cs),
(564,657,l),
(526.667,652.333,o),
(493,650,o),
(463,650,cs),
(110,650,ls),
(80,650,o),
(46.333,652.333,o),
(9,657,c),
(8,595,ls),
(8,567,o),
(11,530,o),
(17,484,c),
(54,478,l),
(58,533.333,o),
(65,575,o),
(75,603,c),
(242,603,l),
(242,361,l),
(86,361,l),
(77,315,l),
(242,315,l),
(242,72,ls),
(242,54.667,o),
(240.833,49.167,o),
(221.5,40.5,cs),
(211.833,36.167,o),
(185.667,31.333,o),
(143,26,c),
(151,-8,l),
(195,-2.667,o),
(240.167,0,o),
(286.5,0,cs),
(332.833,0,o),
(378,-2.667,o),
(422,-8,c),
(430,26,l)
);
}
);
};
layerId = "619f1a1e-fd92-11ee-b280-8aa624eb3053";
shapes = (
{
closed = 1;
nodes = (
(487,315,l),
(496,361,l),
(86,361,l),
(77,315,l)
);
},
{
ref = T;
}
);
width = 573;
},
{
background = {
shapes = (
{
closed = 1;
nodes = (
(434,34,ls),
(401.333,41.333,o),
(378.667,48.667,o),
(366,56,cs),
(358,60,o),
(354,68.667,o),
(354,82,cs),
(354,311,l),
(494,311,l),
(504,363,l),
(354,363,l),
(354,588,l),
(486,588,l),
(496,562.667,o),
(503,523.333,o),
(507,470,c),
(563,479,l),
(569.667,541.667,o),
(573,585.167,o),
(573,609.5,cs),
(572,658,l),
(527.333,652.667,o),
(492,650,o),
(466,650,cs),
(113,650,ls),
(87,650,o),
(51.667,652.667,o),
(7,658,c),
(6,593.5,ls),
(6,564.5,o),
(9,526.333,o),
(15,479,c),
(72,470,l),
(79.333,530.667,o),
(86.333,570,o),
(93,588,c),
(225,588,l),
(225,363,l),
(84,363,l),
(74,311,l),
(225,311,l),
(225,82,ls),
(225,73.333,o),
(224,67.333,o),
(222,64,cs),
(215.333,52.667,o),
(184.333,41.667,o),
(129,31,c),
(138,-9,l),
(189.333,-3,o),
(239.833,0,o),
(289.5,0,cs),
(339.167,0,o),
(389.667,-3,o),
(441,-9,c),
(450,31,l)
);
}
);
};
layerId = "66e3d46a-fd92-11ee-8244-8aa624eb3053";
shapes = (
{
closed = 1;
nodes = (
(494,311,l),
(504,363,l),
(84,363,l),
(74,311,l)
);
},
{
ref = T;
}
);
width = 579;
}
);
unicode = 358;
},
{
glyphname = Tcedilla;
lastChange = "2024-04-29 12:55:25 +0000";
layers = (
{
background = {
shapes = (
{
closed = 1;
nodes = (
(242,54.667,o),
(240.833,49.167,o),
(221.5,40.5,cs),
(211.833,36.167,o),
(185.667,31.333,o),
(143,26,c),
(151,-8,l),
(191.667,-2.667,o),
(234.333,0,o),
(279,0,c),
(227,-92,l),
(240,-113,l),
(248.667,-111,o),
(258,-110,o),
(268,-110,cs),
(278,-110,o),
(288,-112.667,o),
(298,-118,cs),
(313.333,-127.333,o),
(321,-140.667,o),
(321,-158,cs),
(321,-184.667,o),
(303.333,-198,o),
(268,-198,cs),
(249.333,-198,o),
(226.667,-192,o),
(200,-180,c),
(185,-211,l),
(253,-249.667,o),
(309.833,-245.833,o),
(346.5,-214.5,cs),
(364.833,-198.833,o),
(374,-178.5,o),
(374,-153.5,cs),
(374,-103.5,o),
(339.667,-71,o),
(297,-71,c),
(319,0,l),
(357.667,-1.333,o),
(392,-4,o),
(422,-8,c),
(430,26,l),
(414,28,ls),
(378.667,34,o),
(356,39,o),
(346,43,cs),
(334,48.333,o),
(331,54.667,o),
(331,72,cs),
(331,603,l),
(498,603,l),
(508,575,o),
(515,533.333,o),
(519,478,c),
(555,484,l),
(561.667,533.333,o),
(565,571.5,o),
(565,598.5,cs),
(565,625.5,o),
(564.667,645,o),
(564,657,c),
(526.667,652.333,o),
(493,650,o),
(463,650,cs),
(110,650,ls),
(80,650,o),
(46.333,652.333,o),
(9,657,c),
(8.333,643.667,o),
(8,623,o),
(8,595,cs),
(8,567,o),
(11,530,o),
(17,484,c),
(54,478,l),
(58,533.333,o),
(65,575,o),
(75,603,c),
(242,603,l),
(242,72,l),
(242,72,l)
);
}
);
};
layerId = "619f1a1e-fd92-11ee-b280-8aa624eb3053";
shapes = (
{
ref = T;
},
{
pos = (127,0);
ref = cedillacomb;
}
);
width = 573;
},
{
background = {
shapes = (
{
closed = 1;
nodes = (
(225,73.333,o),
(224,67.333,o),
(222,64,cs),
(215.333,52.667,o),
(184.333,41.667,o),
(129,31,c),
(138,-9,l),
(160.667,-6.333,o),
(199.667,-3.333,o),
(255,0,c),
(204,-92,l),
(222,-118,l),
(255.068,-108.981,o),
(293,-122.781,o),
(293,-158,cs),
(293,-181.333,o),
(280.333,-193,o),
(255,-193,cs),
(233.667,-193,o),
(207.667,-185.333,o),
(177,-170,c),
(158,-207,l),
(229.529,-255.538,o),
(298.007,-255.027,o),
(340.5,-219.5,cs),
(360.833,-202.5,o),
(371,-181,o),
(371,-155,cs),
(371,-103,o),
(336.667,-71,o),
(294,-71,c),
(316,0,l),
(376,-3.333,o),
(417.667,-6.333,o),
(441,-9,c),
(450,31,l),
(434,34,ls),
(401.333,41.333,o),
(378.667,48.667,o),
(366,56,cs),
(358,60,o),
(354,68.667,o),
(354,82,cs),
(354,588,l),
(486,588,l),
(496,562.667,o),
(503,523.333,o),
(507,470,c),
(563,479,l),
(569.667,541.667,o),
(573,585.167,o),
(573,609.5,cs),
(573,633.833,o),
(572.667,650,o),
(572,658,c),
(527.333,652.667,o),
(492,650,o),
(466,650,cs),
(113,650,ls),
(87,650,o),
(51.667,652.667,o),
(7,658,c),
(6.333,644,o),
(6,622.5,o),
(6,593.5,cs),
(6,564.5,o),
(9,526.333,o),
(15,479,c),
(72,470,l),
(79.333,530.667,o),
(86.333,570,o),
(93,588,c),
(225,588,l),
(225,82,l),
(225,82,l)
);
}
);
};
layerId = "66e3d46a-fd92-11ee-8244-8aa624eb3053";
shapes = (
{
ref = T;
},
{
pos = (116,0);
ref = cedillacomb;
}
);
width = 579;
}
);
unicode = 354;
},
{
glyphname = U;
lastChange = "2024-04-29 11:08:33 +0000";
layers = (
{
anchors = (
{
name = ogonek;
pos = (385,-3);
},
{
name = top;
pos = (372,0);
}
);
layerId = "619f1a1e-fd92-11ee-b280-8aa624eb3053";
shapes = (
{
closed = 1;
nodes = (
(558,117,o),
(495,46,o),
(383,46,cs),
(246,46,o),
(190,112,o),
(190,249,cs),
(190,581,ls),
(190,598,o),
(191,604,o),
(206,611,cs),
(225,619,o),
(270,625,o),
(270,625,c),
(263,658,l),
(221,653,o),
(173,650,o),
(146,650,cs),
(120,650,o),
(75,653,o),
(33,658,c),
(26,625,l),
(26,625,o),
(66,620,o),
(85,612,cs),
(100,605,o),
(101,599,o),
(101,582,cs),
(101,233,ls),
(101,61,o),
(185,-14,o),
(357,-14,cs),
(528,-14,o),
(623,74,o),
(623,245,cs),
(623,582,ls),
(623,598,o),
(624,604,o),
(639,611,cs),
(658,619,o),
(700,624,o),
(700,624,c),
(693,658,l),
(651,653,o),
(618,650,o),
(591,650,cs),
(565,650,o),
(529,653,o),
(487,658,c),
(480,624,l),
(480,624,o),
(523,618,o),
(542,610,cs),
(557,603,o),
(558,598,o),
(558,581,cs),
(558,229,ls)
);
}
);
width = 724;
},
{
anchors = (
{
name = ogonek;
pos = (408,-3);
},
{
name = top;
pos = (392,0);
}
);
layerId = "66e3d46a-fd92-11ee-8244-8aa624eb3053";
shapes = (
{
closed = 1;
nodes = (
(563,126,o),
(506,61,o),
(403,61,cs),
(285,61,o),
(235,121,o),
(235,249,cs),
(235,572,ls),
(235,589,o),
(236,594,o),
(251,602,cs),
(268,612,o),
(309,620,o),
(309,620,c),
(302,659,l),
(256,653,o),
(201,650,o),
(171,650,cs),
(142,650,o),
(87,653,o),
(41,659,c),
(34,620,l),
(34,620,o),
(73,612,o),
(90,602,cs),
(105,594,o),
(106,589,o),
(106,572,cs),
(106,233,ls),
(106,61,o),
(196,-14,o),
(377,-14,cs),
(551,-14,o),
(648,74,o),
(648,245,cs),
(648,572,ls),
(648,589,o),
(649,594,o),
(664,602,cs),
(681,612,o),
(722,620,o),
(722,620,c),
(715,659,l),
(675,653,o),
(627,650,o),
(600,650,cs),
(577,650,o),
(532,653,o),
(498,659,c),
(491,620,l),
(491,620,o),
(531,612,o),
(547,602,c),
(562,594,o),
(563,589,o),
(563,572,cs),
(563,229,ls)
);
}
);
width = 754;
}
);
unicode = 85;
},
{
glyphname = Uhorn;
lastChange = "2024-04-29 11:08:09 +0000";
layers = (
{
layerId = "619f1a1e-fd92-11ee-b280-8aa624eb3053";
shapes = (
{
closed = 1;
nodes = (
(36,624,ls),
(60,620,o),
(76.667,616,o),
(86,612,cs),
(99.333,605.333,o),
(101,600.667,o),
(101,582,cs),
(101,233,ls),
(101,62.333,o),
(183.833,-14,o),
(356.5,-14,cs),
(529.167,-14,o),
(623,75.667,o),
(623,245,cs),
(623,582,ls),
(623,600.667,o),
(628.333,611.667,o),
(639,615,cs),
(746,643,o),
(808,672,o),
(808,752,cs),
(808,780,o),
(792,810.333,o),
(768,821,c),
(749.333,817,o),
(706,794.333,o),
(690,781,c),
(690,758,l),
(712.667,752.667,o),
(734,734.333,o),
(734,717,cs),
(734,688.333,o),
(709.667,667.667,o),
(661,655,cs),
(649,651.667,o),
(628.167,650,o),
(598.5,650,cs),
(568.833,650,o),
(531.667,652.667,o),
(487,658,c),
(480,624,l),
(492,622,ls),
(514,619.333,o),
(531.333,615.333,o),
(544,610,cs),
(556,603.333,o),
(558,598.333,o),
(558,581,cs),
(558,229,ls),
(558,115.667,o),
(496.667,46,o),
(374,46,cs),
(251.333,46,o),
(190,110.333,o),
(190,249,cs),
(190,581,ls),
(190,590.333,o),
(190.667,596.667,o),
(192,600,cs),
(196.667,610.667,o),
(222.667,619,o),
(270,625,c),
(263,658,l),
(218.333,652.667,o),
(180,650,o),
(148,650,cs),
(116,650,o),
(77.667,652.667,o),
(33,658,c),
(26,625,l)
);
}
);
width = 724;
},
{
layerId = "66e3d46a-fd92-11ee-8244-8aa624eb3053";
shapes = (
{
closed = 1;
nodes = (
(44,618,ls),
(64.667,612.667,o),
(80.667,607,o),
(92,601,cs),
(104,594.333,o),
(106,589.333,o),
(106,572,cs),
(106,233,ls),
(106,62.333,o),
(195.333,-14,o),
(374,-14,cs),
(552.667,-14,o),
(648,75.667,o),
(648,245,cs),
(648,572,l),
(648,592.667,o),
(653.667,605,o),
(665,609,cs),
(771,645,o),
(845,677,o),
(845,746,cs),
(845,775.333,o),
(823.333,809.667,o),
(794,823,c),
(770,817.667,o),
(717.667,788,o),
(699,772,c),
(699,752,l),
(721.667,746.667,o),
(742,731.333,o),
(742,714,cs),
(742,679.333,o),
(697.667,655.833,o),
(671,652.5,cs),
(658,651,o),
(638,650,o),
(614,650,cs),
(579,650,o),
(537,652,o),
(498,659,c),
(491,620,l),
(502,618,ls),
(522.667,612.667,o),
(538.333,607,o),
(549,601,cs),
(561,594.333,o),
(563,589.333,o),
(563,572,cs),
(563,229,ls),
(563,125,o),
(506.333,61,o),
(397,61,cs),
(287.667,61,o),
(235,119.667,o),
(235,249,cs),
(235,572,ls),
(235,580.667,o),
(236,586.667,o),
(238,590,c),
(242.667,602,o),
(266.333,612,o),
(309,620,c),
(302,659,l),
(256,653,o),
(212.5,650,o),
(171.5,650,cs),
(130.5,650,o),
(87,653,o),
(41,659,c),
(34,620,l)
);
}
);
width = 754;
}
);
unicode = 431;
},
{
glyphname = Uhungarumlaut;
lastChange = "2024-04-29 10:32:56 +0000";
layers = (
{
layerId = "619f1a1e-fd92-11ee-b280-8aa624eb3053";
shapes = (
{
ref = U;
},
{
pos = (243,0);
ref = hungarumlautcomb.case;
}
);
width = 724;
},
{
background = {
shapes = (
{
closed = 1;
nodes = (
(648,580.667,o),
(648.667,586.667,o),
(650,590,cs),
(655.333,602,o),
(679.333,612,o),
(722,620,c),
(715,659,l),
(675,653,o),
(637.333,650,o),
(602,650,cs),
(566.667,650,o),
(532,653,o),
(498,659,c),
(491,620,l),
(502,618,ls),
(522.667,612.667,o),
(538.333,607,o),
(549,601,cs),
(561,594.333,o),
(563,589.333,o),
(563,572,cs),
(563,229,ls),
(563,125,o),
(506.333,61,o),
(397,61,cs),
(287.667,61,o),
(235,119.667,o),
(235,249,cs),
(235,572,ls),
(235,580.667,o),
(236,586.667,o),
(238,590,c),
(242.667,602,o),
(266.333,612,o),
(309,620,c),
(302,659,l),
(256,653,o),
(212.5,650,o),
(171.5,650,cs),
(130.5,650,o),
(87,653,o),
(41,659,c),
(34,620,l),
(44,618,ls),
(64.667,612.667,o),
(80.667,607,o),
(92,601,cs),
(104,594.333,o),
(106,589.333,o),
(106,572,cs),
(106,233,ls),
(106,62.333,o),
(195.333,-14,o),
(374,-14,cs),
(552.667,-14,o),
(648,75.667,o),
(648,245,cs),
(648,572,l),
(648,572,l)
);
},
{
closed = 1;
nodes = (
(560.667,887.333,o),
(493.333,871.667,o),
(476,865,c),
(465.333,851.667,o),
(425.667,725.667,o),
(419,699,c),
(470,680,l),
(595,866,l),
(578,890,l),
(578,890,l)
);
},
{
closed = 1;
nodes = (
(391.667,887.333,o),
(324.333,871.667,o),
(307,865,c),
(296.333,851.667,o),
(256.667,725.667,o),
(250,699,c),
(301,680,l),
(426,866,l),
(409,890,l),
(409,890,l)
);
}
);
};
layerId = "66e3d46a-fd92-11ee-8244-8aa624eb3053";
shapes = (
{
ref = U;
},
{
pos = (265,0);
ref = hungarumlautcomb.case;
}
);
width = 754;
}
);
unicode = 368;
},
{
glyphname = Uogonek;
lastChange = "2024-04-29 11:08:39 +0000";
layers = (
{
background = {
shapes = (
{
closed = 1;
nodes = (
(333,-104.333,o),
(360,-60,o),
(414,-10,c),
(550,7.333,o),
(623,94.333,o),
(623,245,cs),
(623,582,ls),
(623,596.667,o),
(628.833,606.5,o),
(640.5,611.5,cs),
(652.167,616.5,o),
(672,620.667,o),
(700,624,c),
(693,658,l),
(648.333,652.667,o),
(614,650,o),
(590,650,cs),
(566,650,o),
(531.667,652.667,o),
(487,658,c),
(480,624,l),
(492,622,ls),
(514,619.333,o),
(531.333,615.333,o),
(544,610,cs),
(556,603.333,o),
(558,598.333,o),
(558,581,cs),
(558,229,ls),
(558,115.667,o),
(496.667,46,o),
(374,46,cs),
(251.333,46,o),
(190,110.333,o),
(190,249,cs),
(190,581,ls),
(190,590.333,o),
(190.667,596.667,o),
(192,600,cs),
(196.667,610.667,o),
(222.667,619,o),
(270,625,c),
(263,658,l),
(218.333,652.667,o),
(180,650,o),
(148,650,cs),
(116,650,o),
(77.667,652.667,o),
(33,658,c),
(26,625,l),
(36,624,ls),
(60,620,o),
(76.667,616,o),
(86,612,cs),
(99.333,605.333,o),
(101,600.667,o),
(101,582,cs),
(101,233,ls),
(101,62.333,o),
(183.667,-14,o),
(357,-14,cs),
(366,-14,l),
(294,-70,o),
(263,-100.833,o),
(263,-153.5,cs),
(263,-206.167,o),
(300.5,-240,o),
(358.5,-240,cs),
(387.5,-240,o),
(418.667,-228.667,o),
(452,-206,c),
(437,-176,l),
(371.012,-205.801,o),
(333,-184.668,o),
(333,-143,cs)
);
}
);
};
layerId = "619f1a1e-fd92-11ee-b280-8aa624eb3053";
shapes = (
{
ref = U;
},
{
pos = (208,-3);
ref = ogonekcomb;
}
);
width = 724;
},
{
background = {
shapes = (
{
closed = 1;
nodes = (
(370,-103.667,o),
(392.667,-59.333,o),
(438,-10,c),
(574,8.667,o),
(648,95.667,o),
(648,245,cs),
(648,572,ls),
(648,580.667,o),
(648.667,586.667,o),
(650,590,cs),
(655.333,602,o),
(679.333,612,o),
(722,620,c),
(715,659,l),
(675,653,o),
(637.333,650,o),
(602,650,cs),
(566.667,650,o),
(532,653,o),
(498,659,c),
(491,620,l),
(502,618,ls),
(522.667,612.667,o),
(538.333,607,o),
(549,601,cs),
(561,594.333,o),
(563,589.333,o),
(563,572,cs),
(563,229,ls),
(563,125,o),
(506.333,61,o),
(397,61,cs),
(287.667,61,o),
(235,119.667,o),
(235,249,cs),
(235,572,ls),
(235,580.667,o),
(236,586.667,o),
(238,590,c),
(242.667,602,o),
(266.333,612,o),
(309,620,c),
(302,659,l),
(256,653,o),
(212.5,650,o),
(171.5,650,cs),
(130.5,650,o),
(87,653,o),
(41,659,c),
(34,620,l),
(44,618,ls),
(64.667,612.667,o),
(80.667,607,o),
(92,601,cs),
(104,594.333,o),
(106,589.333,o),
(106,572,cs),
(106,233,ls),
(106,62.333,o),
(194.333,-14,o),
(377,-14,cs),
(387,-14,l),
(312.333,-70,o),
(280,-100.5,o),
(280,-154.5,cs),
(280,-208.5,o),
(317.833,-245,o),
(382.5,-245,cs),
(414.833,-245,o),
(450.333,-231.333,o),
(489,-204,c),
(469,-171,l),
(430.165,-194.802,o),
(394.34,-196.076,o),
(380,-176,cs),
(373.333,-166.667,o),
(370,-155.667,o),
(370,-143,cs)
);
}
);
};
layerId = "66e3d46a-fd92-11ee-8244-8aa624eb3053";
shapes = (
{
ref = U;
},
{
pos = (231,-3);
ref = ogonekcomb;
}
);
width = 754;
}
);
unicode = 370;
},
{
glyphname = Uring;
lastChange = "2024-04-29 12:44:32 +0000";
layers = (
{
background = {
shapes = (
{
closed = 1;
nodes = (
(558,115.667,o),
(496.667,46,o),
(374,46,cs),
(251.333,46,o),
(190,110.333,o),
(190,249,cs),
(190,581,ls),
(190,590.333,o),
(190.667,596.667,o),
(192,600,cs),
(196.667,610.667,o),
(222.667,619,o),
(270,625,c),
(263,658,l),
(218.333,652.667,o),
(180,650,o),
(148,650,cs),
(116,650,o),
(77.667,652.667,o),
(33,658,c),
(26,625,l),
(36,624,ls),
(60,620,o),
(76.667,616,o),
(86,612,cs),
(99.333,605.333,o),
(101,600.667,o),
(101,582,cs),
(101,233,ls),
(101,62.333,o),
(183.833,-14,o),
(356.5,-14,cs),
(529.167,-14,o),
(623,75.667,o),
(623,245,cs),
(623,582,ls),
(623,596.667,o),
(628.833,606.5,o),
(640.5,611.5,cs),
(652.167,616.5,o),
(672,620.667,o),
(700,624,c),
(693,658,l),
(648.333,652.667,o),
(614,650,o),
(590,650,cs),
(566,650,o),
(531.667,652.667,o),
(487,658,c),
(480,624,l),
(492,622,ls),
(514,619.333,o),
(531.333,615.333,o),
(544,610,cs),
(556,603.333,o),
(558,598.333,o),
(558,581,cs),
(558,229,l),
(558,229,l)
);
},
{
closed = 1;
nodes = (
(336,791,l),
(364.579,821.621,o),
(418,802.565,o),
(418,754,cs),
(418,724.667,o),
(396.667,702,o),
(370,702,cs),
(324.633,702,o),
(307.738,760.719,o),
(336,791,c)
);
},
{
closed = 1;
nodes = (
(309.5,694.5,l),
(343.762,660.238,o),
(396.238,660.238,o),
(430.5,694.5,cs),
(447.5,711.5,o),
(456,731.333,o),
(456,754,cs),
(456,799.333,o),
(416.667,839,o),
(370,839,cs),
(323.333,839,o),
(284,799.333,o),
(284,754,cs),
(284,731.333,o),
(292.5,711.5,o),
(309.5,694.5,c)
);
}
);
};
layerId = "619f1a1e-fd92-11ee-b280-8aa624eb3053";
shapes = (
{
ref = U;
},
{
alignment = -1;
pos = (209,166);
ref = ringcomb;
}
);
width = 724;
},
{
background = {
shapes = (
{
closed = 1;
nodes = (
(648,580.667,o),
(648.667,586.667,o),
(650,590,cs),
(655.333,602,o),
(679.333,612,o),
(722,620,c),
(715,659,l),
(675,653,o),
(637.333,650,o),
(602,650,cs),
(566.667,650,o),
(532,653,o),
(498,659,c),
(491,620,l),
(502,618,ls),
(522.667,612.667,o),
(538.333,607,o),
(549,601,cs),
(561,594.333,o),
(563,589.333,o),
(563,572,cs),
(563,229,ls),
(563,125,o),
(506.333,61,o),
(397,61,cs),
(287.667,61,o),
(235,119.667,o),
(235,249,cs),
(235,572,ls),
(235,580.667,o),
(236,586.667,o),
(238,590,c),
(242.667,602,o),
(266.333,612,o),
(309,620,c),
(302,659,l),
(256,653,o),
(212.5,650,o),
(171.5,650,cs),
(130.5,650,o),
(87,653,o),
(41,659,c),
(34,620,l),
(44,618,ls),
(64.667,612.667,o),
(80.667,607,o),
(92,601,cs),
(104,594.333,o),
(106,589.333,o),
(106,572,cs),
(106,233,ls),
(106,62.333,o),
(195.333,-14,o),
(374,-14,cs),
(552.667,-14,o),
(648,75.667,o),
(648,245,cs),
(648,572,l),
(648,572,l)
);
},
{
closed = 1;
nodes = (
(361,814,l),
(387.483,842.69,o),
(432,820.404,o),
(432,782,cs),
(432,756.667,o),
(412.667,737,o),
(390,737,cs),
(351.804,737,o),
(336.617,787.585,o),
(361,814,c)
);
},
{
closed = 1;
nodes = (
(319,718.5,l),
(359.187,683.001,o),
(420.67,683.025,o),
(461.5,718.5,cs),
(481.833,736.167,o),
(492,757.333,o),
(492,782,cs),
(492,831.333,o),
(444.667,872,o),
(390,872,cs),
(335.333,872,o),
(289,831.333,o),
(289,782,cs),
(289,757.333,o),
(299,736.167,o),
(319,718.5,c)
);
}
);
};
layerId = "66e3d46a-fd92-11ee-8244-8aa624eb3053";
shapes = (
{
ref = U;
},
{
alignment = -1;
pos = (229,194);
ref = ringcomb;
}
);
width = 754;
}
);
unicode = 366;
},
{
glyphname = Utilde;
lastChange = "2024-04-29 10:50:36 +0000";
layers = (
{
background = {
shapes = (
{
closed = 1;
nodes = (
(558,115.667,o),
(496.667,46,o),
(374,46,cs),
(251.333,46,o),
(190,110.333,o),
(190,249,cs),
(190,581,ls),
(190,590.333,o),
(190.667,596.667,o),
(192,600,cs),
(196.667,610.667,o),
(222.667,619,o),
(270,625,c),
(263,658,l),
(218.333,652.667,o),
(180,650,o),
(148,650,cs),
(116,650,o),
(77.667,652.667,o),
(33,658,c),
(26,625,l),
(36,624,ls),
(60,620,o),
(76.667,616,o),
(86,612,cs),
(99.333,605.333,o),
(101,600.667,o),
(101,582,cs),
(101,233,ls),
(101,62.333,o),
(183.833,-14,o),
(356.5,-14,cs),
(529.167,-14,o),
(623,75.667,o),
(623,245,cs),
(623,582,ls),
(623,596.667,o),
(628.833,606.5,o),
(640.5,611.5,cs),
(652.167,616.5,o),
(672,620.667,o),
(700,624,c),
(693,658,l),
(648.333,652.667,o),
(614,650,o),
(590,650,cs),
(566,650,o),
(531.667,652.667,o),
(487,658,c),
(480,624,l),
(492,622,ls),
(514,619.333,o),
(531.333,615.333,o),
(544,610,cs),
(556,603.333,o),
(558,598.333,o),
(558,581,cs),
(558,229,l),
(558,229,l)
);
},
{
closed = 1;
nodes = (
(285.905,741.53,o),
(305.093,742.736,o),
(372,713,cs),
(402,699.667,o),
(421,692.333,o),
(429,691,c),
(452,695,l),
(469.333,708.333,o),
(512.333,759,o),
(527,783,c),
(500,800,l),
(458.118,748.545,o),
(440.607,747.204,o),
(373,776.5,cs),
(343,789.5,o),
(324,796.667,o),
(316,798,c),
(293,794,l),
(274.333,779.333,o),
(231.333,731,o),
(218,707,c),
(245,691,l),
(245,691,l)
);
}
);
};
layerId = "619f1a1e-fd92-11ee-b280-8aa624eb3053";
shapes = (
{
ref = U;
},
{
pos = (151,0);
ref = tildecomb.case;
}
);
width = 724;
},
{
background = {
shapes = (
{
closed = 1;
nodes = (
(648,580.667,o),
(648.667,586.667,o),
(650,590,cs),
(655.333,602,o),
(679.333,612,o),
(722,620,c),
(715,659,l),
(675,653,o),
(637.333,650,o),
(602,650,cs),
(566.667,650,o),
(532,653,o),
(498,659,c),
(491,620,l),
(502,618,ls),
(522.667,612.667,o),
(538.333,607,o),
(549,601,cs),
(561,594.333,o),
(563,589.333,o),
(563,572,cs),
(563,229,ls),
(563,125,o),
(506.333,61,o),
(397,61,cs),
(287.667,61,o),
(235,119.667,o),
(235,249,cs),
(235,572,ls),
(235,580.667,o),
(236,586.667,o),
(238,590,c),
(242.667,602,o),
(266.333,612,o),
(309,620,c),
(302,659,l),
(256,653,o),
(212.5,650,o),
(171.5,650,cs),
(130.5,650,o),
(87,653,o),
(41,659,c),
(34,620,l),
(44,618,ls),
(64.667,612.667,o),
(80.667,607,o),
(92,601,cs),
(104,594.333,o),
(106,589.333,o),
(106,572,cs),
(106,233,ls),
(106,62.333,o),
(195.333,-14,o),
(374,-14,cs),
(552.667,-14,o),
(648,75.667,o),
(648,245,cs),
(648,572,l),
(648,572,l)
);
},
{
closed = 1;
nodes = (
(472,689,l),
(489.333,703.667,o),
(539,767,o),
(555,795,c),
(523,817,l),
(479.993,767.849,o),
(458.037,766.759,o),
(393,800,cs),
(363,815.333,o),
(344,823.667,o),
(336,825,c),
(313,821,l),
(294.333,803.667,o),
(244,731.333,o),
(228,702,c),
(259,683,l),
(302.785,737.435,o),
(323.524,739.956,o),
(392,708,cs),
(422,694,o),
(441,686.333,o),
(449,685,c)
);
}
);
};
layerId = "66e3d46a-fd92-11ee-8244-8aa624eb3053";
shapes = (
{
ref = U;
},
{
pos = (171,0);
ref = tildecomb.case;
}
);
width = 754;
}
);
unicode = 360;
},
{
glyphname = V;
lastChange = "2024-04-18 14:46:39 +0000";
layers = (
{
layerId = "619f1a1e-fd92-11ee-b280-8aa624eb3053";
shapes = (
{
closed = 1;
nodes = (
(338,80,l),
(331,83,l),
(321,124,l),
(167,571,ls),
(159,593,o),
(168,605,o),
(190,612,cs),
(212,619,o),
(249,625,o),
(249,625,c),
(243,658,l),
(201,652,o),
(138,650,o),
(111,650,cs),
(85,650,o),
(45,652,o),
(5,658,c),
(-2,625,l),
(55,613,o),
(58,606,o),
(78,549,cs),
(278,-7,l),
(352,-7,l),
(563,549,ls),
(584,606,o),
(584,613,o),
(641,625,c),
(634,658,l),
(594,652,o),
(567,650,o),
(541,650,cs),
(514,650,o),
(466,652,o),
(425,658,c),
(419,625,l),
(419,625,o),
(458,619,o),
(480,612,cs),
(502,606,o),
(510,592,o),
(503,571,cs),
(344,124,l)
);
}
);
width = 643;
},
{
layerId = "66e3d46a-fd92-11ee-8244-8aa624eb3053";
shapes = (
{
closed = 1;
nodes = (
(353,133,l),
(346,136,l),
(336,177,l),
(203,561,ls),
(195,583,o),
(205,593,o),
(226,602,cs),
(247,610,o),
(283,620,o),
(283,620,c),
(276,659,l),
(226,653,o),
(151,650,o),
(120,650,cs),
(92,650,o),
(47,653,o),
(3,659,c),
(-6,620,l),
(47,607,o),
(50,599,o),
(72,539,cs),
(269,-7,l),
(363,-7,l),
(570,539,ls),
(590,600,o),
(593,607,o),
(646,620,c),
(638,659,l),
(598,653,o),
(569,650,o),
(543,650,cs),
(515,650,o),
(463,653,o),
(420,659,c),
(413,620,l),
(413,620,o),
(452,609,o),
(472,602,cs),
(494,595,o),
(502,581,o),
(495,561,cs),
(359,177,l)
);
}
);
width = 640;
}
);
unicode = 86;
},
{
glyphname = W;
lastChange = "2024-04-29 10:40:04 +0000";
layers = (
{
anchors = (
{
name = top;
pos = (529,0);
}
);
layerId = "619f1a1e-fd92-11ee-b280-8aa624eb3053";
shapes = (
{
closed = 1;
nodes = (
(962,606,o),
(963,613,o),
(1020,625,c),
(1013,658,l),
(973,652,o),
(946,650,o),
(920,650,cs),
(893,650,o),
(847,652,o),
(806,658,c),
(800,625,l),
(800,625,o),
(839,619,o),
(861,612,cs),
(878,607,o),
(887,598,o),
(886,584,cs),
(886,580,o),
(886,576,o),
(884,571,cs),
(749,138,l),
(743,108,l),
(738,109,l),
(732,135,l),
(564,649,l),
(492,649,l),
(325,142,l),
(321,109,l),
(315,110,l),
(309,139,l),
(167,571,ls),
(165,576,o),
(165,581,o),
(165,585,cs),
(165,598,o),
(173,607,o),
(190,612,cs),
(212,619,o),
(249,625,o),
(249,625,c),
(243,658,l),
(201,652,o),
(138,650,o),
(111,650,cs),
(85,650,o),
(45,652,o),
(5,658,c),
(-2,625,l),
(55,613,o),
(59,606,o),
(78,549,cs),
(263,-8,l),
(332,-8,l),
(497,487,l),
(505,521,l),
(510,520,l),
(516,493,l),
(685,-8,l),
(753,-8,l),
(942,549,ls)
);
}
);
width = 1018;
},
{
anchors = (
{
name = top;
pos = (536,0);
}
);
layerId = "66e3d46a-fd92-11ee-8244-8aa624eb3053";
shapes = (
{
closed = 1;
nodes = (
(969,600,o),
(973,607,o),
(1026,620,c),
(1018,659,l),
(978,653,o),
(949,650,o),
(923,650,cs),
(895,650,o),
(845,653,o),
(802,659,c),
(795,620,l),
(795,620,o),
(834,609,o),
(854,602,c),
(871,597,o),
(879,587,o),
(879,574,cs),
(879,570,o),
(879,566,o),
(877,561,c),
(759,185,l),
(753,155,l),
(748,156,l),
(742,182,l),
(590,649,l),
(488,649,l),
(336,182,l),
(332,149,l),
(326,150,l),
(320,179,l),
(201,561,l),
(199,566,o),
(199,570,o),
(199,574,cs),
(199,587,o),
(207,596,o),
(224,602,c),
(245,611,o),
(281,620,o),
(281,620,c),
(274,659,l),
(224,653,o),
(151,650,o),
(120,650,cs),
(92,650,o),
(46,653,o),
(2,659,c),
(-6,620,l),
(47,607,o),
(52,600,o),
(72,539,cs),
(254,-8,l),
(348,-8,l),
(498,447,l),
(506,481,l),
(511,480,l),
(517,453,l),
(671,-8,l),
(764,-8,l),
(950,539,ls)
);
}
);
width = 1020;
}
);
unicode = 87;
},
{
glyphname = Wcircumflex;
lastChange = "2024-04-29 10:44:58 +0000";
layers = (
{
background = {
shapes = (
{
closed = 1;
nodes = (
(54,613,o),
(58,607.667,o),
(78,549,cs),
(263,-8,l),
(332,-8,l),
(497,487,l),
(505,521,l),
(510,520,l),
(516,493,l),
(685,-8,l),
(753,-8,l),
(942,549,ls),
(963.333,609,o),
(965.333,613,o),
(1020,625,c),
(1013,658,l),
(977.667,652.667,o),
(943.5,650,o),
(910.5,650,cs),
(877.5,650,o),
(842.667,652.667,o),
(806,658,c),
(800,625,l),
(861,612,ls),
(878.333,607.333,o),
(887,598.333,o),
(887,585,cs),
(887,581,o),
(886,576.333,o),
(884,571,cs),
(749,138,l),
(743,108,l),
(738,109,l),
(732,135,l),
(564,649,l),
(492,649,l),
(325,142,l),
(321,109,l),
(315,110,l),
(309,139,l),
(167,571,ls),
(165.667,575.667,o),
(165,580,o),
(165,584,cs),
(165,610.667,o),
(199.667,617,o),
(249,625,c),
(243,658,l),
(205.667,652.667,o),
(165.5,650,o),
(122.5,650,cs),
(79.5,650,o),
(40.333,652.667,o),
(5,658,c),
(-2,625,l),
(-2,625,l)
);
},
{
closed = 1;
nodes = (
(472,817,o),
(394,716.667,o),
(386,702,c),
(414,681,l),
(529,771,l),
(644,681,l),
(672,702,l),
(664,716.667,o),
(586,817,o),
(570,829,c),
(559.333,830.333,o),
(545.667,831,o),
(529,831,cs),
(512.333,831,o),
(498.667,830.333,o),
(488,829,c)
);
}
);
};
layerId = "619f1a1e-fd92-11ee-b280-8aa624eb3053";
shapes = (
{
ref = W;
},
{
pos = (368,0);
ref = circumflexcomb.case;
}
);
width = 1018;
},
{
background = {
shapes = (
{
closed = 1;
nodes = (
(46,606.667,o),
(52,600.333,o),
(72,539,cs),
(254,-8,l),
(348,-8,l),
(498,447,l),
(506,481,l),
(511,480,l),
(517,453,l),
(671,-8,l),
(764,-8,l),
(950,539,ls),
(970,601.667,o),
(974,606.667,o),
(1026,620,c),
(1018,659,l),
(978,653,o),
(942.833,650,o),
(912.5,650,cs),
(882.167,650,o),
(845.333,653,o),
(802,659,c),
(795,620,l),
(854,602,ls),
(870.667,597.333,o),
(879,588,o),
(879,574,cs),
(879,568.667,o),
(878.333,564.333,o),
(877,561,cs),
(759,185,l),
(753,155,l),
(748,156,l),
(742,182,l),
(590,649,l),
(488,649,l),
(336,182,l),
(332,149,l),
(326,150,l),
(320,179,l),
(201,561,ls),
(199.667,564.333,o),
(199,568.667,o),
(199,574,cs),
(199,586.667,o),
(207.333,596,o),
(224,602,cs),
(238,608,o),
(257,614,o),
(281,620,c),
(274,659,l),
(224,653,o),
(177.167,650,o),
(133.5,650,cs),
(89.833,650,o),
(46,653,o),
(2,659,c),
(-6,620,l),
(-6,620,l)
);
},
{
closed = 1;
nodes = (
(467,836,o),
(393.333,737.333,o),
(384,720,c),
(428,689,l),
(536,778,l),
(644,689,l),
(687,720,l),
(675,740,o),
(605,837.333,o),
(589,848,c),
(576.333,851.333,o),
(558.833,853,o),
(536.5,853,cs),
(514.167,853,o),
(496.333,851.333,o),
(483,848,c)
);
}
);
};
layerId = "66e3d46a-fd92-11ee-8244-8aa624eb3053";
shapes = (
{
ref = W;
},
{
pos = (375,0);
ref = circumflexcomb.case;
}
);
width = 1020;
}
);
unicode = 372;
},
{
glyphname = Wdieresis;
lastChange = "2024-04-29 12:05:12 +0000";
layers = (
{
background = {
shapes = (
{
closed = 1;
nodes = (
(54,613,o),
(58,607.667,o),
(78,549,cs),
(263,-8,l),
(332,-8,l),
(497,487,l),
(505,521,l),
(510,520,l),
(516,493,l),
(685,-8,l),
(753,-8,l),
(942,549,ls),
(963.333,609,o),
(965.333,613,o),
(1020,625,c),
(1013,658,l),
(977.667,652.667,o),
(943.5,650,o),
(910.5,650,cs),
(877.5,650,o),
(842.667,652.667,o),
(806,658,c),
(800,625,l),
(861,612,ls),
(878.333,607.333,o),
(887,598.333,o),
(887,585,cs),
(887,581,o),
(886,576.333,o),
(884,571,cs),
(749,138,l),
(743,108,l),
(738,109,l),
(732,135,l),
(564,649,l),
(492,649,l),
(325,142,l),
(321,109,l),
(315,110,l),
(309,139,l),
(167,571,ls),
(165.667,575.667,o),
(165,580,o),
(165,584,cs),
(165,610.667,o),
(199.667,617,o),
(249,625,c),
(243,658,l),
(205.667,652.667,o),
(165.5,650,o),
(122.5,650,cs),
(79.5,650,o),
(40.333,652.667,o),
(5,658,c),
(-2,625,l),
(-2,625,l)
);
},
{
closed = 1;
nodes = (
(392.5,703.5,l),
(422.488,675.446,o),
(488,688.034,o),
(488,741,cs),
(488,771.667,o),
(465.167,794,o),
(432.5,794,cs),
(377.003,794,o),
(362.072,731.965,o),
(392.5,703.5,c)
);
},
{
closed = 1;
nodes = (
(584.5,703.5,l),
(614.488,675.446,o),
(680,688.034,o),
(680,741,cs),
(680,771.667,o),
(657.167,794,o),
(624.5,794,cs),
(569.003,794,o),
(554.072,731.965,o),
(584.5,703.5,c)
);
}
);
};
layerId = "619f1a1e-fd92-11ee-b280-8aa624eb3053";
shapes = (
{
ref = W;
},
{
alignment = -1;
pos = (337,153);
ref = dieresiscomb;
}
);
width = 1018;
},
{
background = {
shapes = (
{
closed = 1;
nodes = (
(46,606.667,o),
(52,600.333,o),
(72,539,cs),
(254,-8,l),
(348,-8,l),
(498,447,l),
(506,481,l),
(511,480,l),
(517,453,l),
(671,-8,l),
(764,-8,l),
(950,539,ls),
(970,601.667,o),
(974,606.667,o),
(1026,620,c),
(1018,659,l),
(978,653,o),
(942.833,650,o),
(912.5,650,cs),
(882.167,650,o),
(845.333,653,o),
(802,659,c),
(795,620,l),
(854,602,ls),
(870.667,597.333,o),
(879,588,o),
(879,574,cs),
(879,568.667,o),
(878.333,564.333,o),
(877,561,cs),
(759,185,l),
(753,155,l),
(748,156,l),
(742,182,l),
(590,649,l),
(488,649,l),
(336,182,l),
(332,149,l),
(326,150,l),
(320,179,l),
(201,561,ls),
(199.667,564.333,o),
(199,568.667,o),
(199,574,cs),
(199,586.667,o),
(207.333,596,o),
(224,602,cs),
(238,608,o),
(257,614,o),
(281,620,c),
(274,659,l),
(224,653,o),
(177.167,650,o),
(133.5,650,cs),
(89.833,650,o),
(46,653,o),
(2,659,c),
(-6,620,l),
(-6,620,l)
);
},
{
closed = 1;
nodes = (
(370,712.5,l),
(398.187,687.668,o),
(450.813,687.668,o),
(479,712.5,cs),
(493,724.833,o),
(500,741,o),
(500,761,cs),
(500,801,o),
(469.333,828,o),
(424,828,cs),
(378.667,828,o),
(349,801,o),
(349,761,cs),
(349,741,o),
(356,724.833,o),
(370,712.5,c)
);
},
{
closed = 1;
nodes = (
(593,712.5,l),
(621.187,687.668,o),
(673.813,687.668,o),
(702,712.5,cs),
(716,724.833,o),
(723,741,o),
(723,761,cs),
(723,801,o),
(692.333,828,o),
(647,828,cs),
(601.667,828,o),
(572,801,o),
(572,761,cs),
(572,741,o),
(579,724.833,o),
(593,712.5,c)
);
}
);
};
layerId = "66e3d46a-fd92-11ee-8244-8aa624eb3053";
shapes = (
{
ref = W;
},
{
alignment = -1;
pos = (344,177);
ref = dieresiscomb;
}
);
width = 1020;
}
);
unicode = 7812;
},
{
glyphname = X;
lastChange = "2024-04-18 14:57:15 +0000";
layers = (
{
layerId = "619f1a1e-fd92-11ee-b280-8aa624eb3053";
shapes = (
{
closed = 1;
nodes = (
(290,336,l),
(95,88,ls),
(60,43,o),
(42,32,o),
(8,24,c),
(15,-9,l),
(55,-3,o),
(89,0,o),
(115,0,cs),
(142,0,o),
(193,-2,o),
(234,-8,c),
(240,25,l),
(240,25,o),
(201,31,o),
(179,38,cs),
(163,42,o),
(151,53,o),
(151,65,cs),
(151,70,o),
(153,74,o),
(156,79,cs),
(322,300,l)
);
},
{
closed = 1;
nodes = (
(588,609,o),
(588,613,o),
(644,625,c),
(637,658,l),
(597,652,o),
(570,650,o),
(544,650,cs),
(517,650,o),
(469,652,o),
(428,658,c),
(422,625,l),
(422,625,o),
(462,621,o),
(483,612,cs),
(491,608,o),
(500,597,o),
(500,584,cs),
(500,580,o),
(499,575,o),
(496,571,cs),
(355,380,l),
(384,344,l),
(552,562,ls)
);
},
{
closed = 1;
nodes = (
(472,74,o),
(473,69,o),
(473,65,cs),
(473,53,o),
(461,43,o),
(445,38,cs),
(423,31,o),
(386,25,o),
(386,25,c),
(392,-8,l),
(434,-2,o),
(507,0,o),
(534,0,cs),
(560,0,o),
(614,-2,o),
(654,-8,c),
(661,25,l),
(619,32,o),
(606,46,o),
(568,99,cs),
(220,571,ls),
(217,576,o),
(215,581,o),
(215,586,cs),
(215,597,o),
(224,608,o),
(233,612,cs),
(254,621,o),
(292,625,o),
(292,625,c),
(286,658,l),
(245,652,o),
(174,650,o),
(147,650,cs),
(121,650,o),
(74,652,o),
(34,658,c),
(27,625,l),
(72,617,o),
(84,602,o),
(125,551,cs),
(468,79,ls)
);
}
);
width = 669;
},
{
layerId = "66e3d46a-fd92-11ee-8244-8aa624eb3053";
shapes = (
{
closed = 1;
nodes = (
(289,336,l),
(102,98,ls),
(65,51,o),
(43,38,o),
(9,29,c),
(17,-10,l),
(57,-4,o),
(95,0,o),
(121,0,cs),
(149,0,o),
(203,-3,o),
(246,-9,c),
(253,30,l),
(253,30,o),
(222,38,o),
(203,46,cs),
(187,53,o),
(175,61,o),
(175,73,cs),
(175,77,o),
(177,84,o),
(180,89,c),
(338,300,l)
);
},
{
closed = 1;
nodes = (
(613,602,o),
(618,607,o),
(674,620,c),
(665,659,l),
(625,653,o),
(594,650,o),
(568,650,cs),
(540,650,o),
(488,653,o),
(445,659,c),
(438,620,l),
(438,620,o),
(472,616,o),
(490,604,c),
(497,600,o),
(507,589,o),
(507,577,cs),
(507,573,o),
(506,565,o),
(503,561,cs),
(369,380,l),
(415,344,l),
(576,552,ls)
);
},
{
closed = 1;
nodes = (
(453,84,o),
(454,76,o),
(454,72,cs),
(454,60,o),
(441,53,o),
(426,46,cs),
(407,38,o),
(376,30,o),
(376,30,c),
(383,-9,l),
(429,-3,o),
(516,0,o),
(547,0,cs),
(575,0,o),
(635,-3,o),
(679,-9,c),
(687,30,l),
(645,39,o),
(629,53,o),
(589,109,cs),
(265,561,l),
(262,566,o),
(261,573,o),
(261,578,cs),
(261,590,o),
(269,599,o),
(278,604,cs),
(296,614,o),
(328,620,o),
(328,620,c),
(321,659,l),
(276,653,o),
(191,650,o),
(160,650,cs),
(132,650,o),
(79,653,o),
(35,659,c),
(27,620,l),
(72,611,o),
(92,595,o),
(130,541,cs),
(449,89,l)
);
}
);
width = 696;
}
);
unicode = 88;
},
{
glyphname = Y;
lastChange = "2024-04-29 12:08:38 +0000";
layers = (
{
anchors = (
{
name = bottom;
pos = (296,0);
},
{
name = top;
pos = (307,0);
}
);
layerId = "619f1a1e-fd92-11ee-b280-8aa624eb3053";
shapes = (
{
closed = 1;
nodes = (
(250,68,ls),
(250,51,o),
(249,44,o),
(234,37,cs),
(215,29,o),
(165,24,o),
(165,24,c),
(172,-8,l),
(213,-3,o),
(270,0,o),
(296,0,cs),
(323,0,o),
(378,-3,o),
(419,-8,c),
(427,23,l),
(427,23,o),
(374,29,o),
(355,37,cs),
(340,44,o),
(339,51,o),
(339,68,cs),
(339,276,l),
(505,562,ls),
(533,613,o),
(550,623,o),
(590,627,c),
(594,659,l),
(560,654,o),
(521,650,o),
(489,650,cs),
(451,650,o),
(410,654,o),
(371,659,c),
(374,627,l),
(387,624,o),
(426,617,o),
(443,606,c),
(450,601,o),
(454,595,o),
(454,586,cs),
(454,580,o),
(452,573,o),
(447,564,cs),
(316,330,l),
(184,563,ls),
(179,572,o),
(177,579,o),
(177,586,cs),
(177,600,o),
(186,609,o),
(199,614,cs),
(218,621,o),
(248,627,o),
(248,627,c),
(251,659,l),
(213,654,o),
(153,650,o),
(110,650,cs),
(69,650,o),
(34,653,o),
(-2,659,c),
(2,627,l),
(40,623,o),
(55,613,o),
(79,569,cs),
(250,274,l)
);
}
);
width = 592;
},
{
anchors = (
{
name = bottom;
pos = (304,0);
},
{
name = top;
pos = (323,0);
}
);
layerId = "66e3d46a-fd92-11ee-8244-8aa624eb3053";
shapes = (
{
closed = 1;
nodes = (
(245,78,ls),
(245,61,o),
(244,55,o),
(229,47,cs),
(210,37,o),
(162,29,o),
(162,29,c),
(170,-8,l),
(213,-3,o),
(274,0,o),
(301,0,cs),
(331,0,o),
(394,-3,o),
(441,-8,c),
(450,28,l),
(450,28,o),
(399,37,o),
(380,47,cs),
(365,55,o),
(364,61,o),
(364,78,cs),
(364,276,l),
(521,552,l),
(547,607,o),
(570,618,o),
(608,622,c),
(612,660,l),
(578,655,o),
(537,650,o),
(505,650,cs),
(465,650,o),
(421,655,o),
(380,660,c),
(383,622,l),
(395,619,o),
(433,611,o),
(449,601,c),
(455,596,o),
(458,588,o),
(458,580,cs),
(458,573,o),
(454,564,o),
(448,554,cs),
(342,360,l),
(231,553,ls),
(226,561,o),
(223,571,o),
(223,578,cs),
(223,591,o),
(231,601,o),
(240,606,cs),
(257,616,o),
(286,622,o),
(286,622,c),
(289,660,l),
(247,655,o),
(177,650,o),
(126,650,cs),
(79,650,o),
(38,654,o),
(-4,660,c),
(0,622,l),
(38,618,o),
(56,607,o),
(80,559,c),
(245,274,l)
);
}
);
width = 608;
}
);
unicode = 89;
},
{
glyphname = Ycircumflex;
lastChange = "2024-04-29 10:44:58 +0000";
layers = (
{
background = {
shapes = (
{
closed = 1;
nodes = (
(40.667,623,o),
(55,613,o),
(79,569,cs),
(250,274,l),
(250,68,ls),
(250,52,o),
(244.167,41.5,o),
(232.5,36.5,cs),
(220.833,31.5,o),
(198.333,27.333,o),
(165,24,c),
(172,-8,l),
(216,-2.667,o),
(257.167,0,o),
(295.5,0,cs),
(333.833,0,o),
(375,-2.667,o),
(419,-8,c),
(427,23,l),
(413,24,ls),
(385,27.333,o),
(365.667,31.667,o),
(355,37,cs),
(344.333,41.667,o),
(339,52,o),
(339,68,cs),
(339,276,l),
(505,562,ls),
(531.667,611.333,o),
(548.667,623,o),
(590,627,c),
(594,659,l),
(553.333,653,o),
(517.667,650,o),
(487,650,cs),
(456.333,650,o),
(417.667,653,o),
(371,659,c),
(374,627,l),
(412,618.333,o),
(435,611.333,o),
(443,606,cs),
(450.333,600.667,o),
(454,594.333,o),
(454,587,cs),
(454,579.667,o),
(451.667,572,o),
(447,564,cs),
(316,330,l),
(184,563,ls),
(171.735,584.463,o),
(170.325,603.973,o),
(197,613.5,cs),
(211,618.5,o),
(228,623,o),
(248,627,c),
(251,659,l),
(205.667,653,o),
(161.167,650,o),
(117.5,650,cs),
(73.833,650,o),
(34,653,o),
(-2,659,c),
(2,627,l),
(2,627,l)
);
},
{
closed = 1;
nodes = (
(250,817,o),
(172,716.667,o),
(164,702,c),
(192,681,l),
(307,771,l),
(422,681,l),
(450,702,l),
(442,716.667,o),
(364,817,o),
(348,829,c),
(337.333,830.333,o),
(323.667,831,o),
(307,831,cs),
(290.333,831,o),
(276.667,830.333,o),
(266,829,c)
);
}
);
};
layerId = "619f1a1e-fd92-11ee-b280-8aa624eb3053";
shapes = (
{
ref = Y;
},
{
pos = (146,0);
ref = circumflexcomb.case;
}
);
width = 592;
},
{
background = {
shapes = (
{
closed = 1;
nodes = (
(38.667,618,o),
(57.333,605.667,o),
(80,559,c),
(245,274,l),
(245,78,ls),
(245,68.667,o),
(244,62,o),
(242,58,cs),
(237.333,46.667,o),
(210.667,37,o),
(162,29,c),
(170,-8,l),
(216,-2.667,o),
(260.167,0,o),
(302.5,0,cs),
(344.833,0,o),
(391,-2.667,o),
(441,-8,c),
(450,28,l),
(436,30,ls),
(410.667,35.333,o),
(391.333,41.333,o),
(378,48,cs),
(366,54.667,o),
(364,59.333,o),
(364,78,cs),
(364,276,l),
(521,552,l),
(545,604,o),
(566.667,618,o),
(608,622,c),
(612,660,l),
(566.667,653.333,o),
(530.333,650,o),
(503,650,cs),
(475.667,650,o),
(434.667,653.333,o),
(380,660,c),
(383,622,l),
(436.937,609.015,o),
(458,603.074,o),
(458,582.5,cs),
(458,574.833,o),
(454.667,565.333,o),
(448,554,cs),
(342,360,l),
(231,553,ls),
(221.168,568.976,o),
(215.804,592.979,o),
(240,606.5,cs),
(251.333,612.833,o),
(266.667,618,o),
(286,622,c),
(289,660,l),
(233,653.333,o),
(181.833,650,o),
(135.5,650,cs),
(89.167,650,o),
(42.667,653.333,o),
(-4,660,c),
(0,622,l),
(0,622,l)
);
},
{
closed = 1;
nodes = (
(254,835,o),
(180.333,736.333,o),
(171,719,c),
(215,688,l),
(323,777,l),
(431,688,l),
(474,719,l),
(462,739,o),
(392,836.333,o),
(376,847,c),
(363.333,850.333,o),
(345.833,852,o),
(323.5,852,cs),
(301.167,852,o),
(283.333,850.333,o),
(270,847,c)
);
}
);
};
layerId = "66e3d46a-fd92-11ee-8244-8aa624eb3053";
shapes = (
{
ref = Y;
},
{
pos = (162,0);
ref = circumflexcomb.case;
}
);
width = 608;
}
);
unicode = 374;
},
{
glyphname = Ydieresis;
lastChange = "2024-04-29 12:04:50 +0000";
layers = (
{
background = {
shapes = (
{
closed = 1;
nodes = (
(40.667,623,o),
(55,613,o),
(79,569,cs),
(250,274,l),
(250,68,ls),
(250,52,o),
(244.167,41.5,o),
(232.5,36.5,cs),
(220.833,31.5,o),
(198.333,27.333,o),
(165,24,c),
(172,-8,l),
(216,-2.667,o),
(257.167,0,o),
(295.5,0,cs),
(333.833,0,o),
(375,-2.667,o),
(419,-8,c),
(427,23,l),
(413,24,ls),
(385,27.333,o),
(365.667,31.667,o),
(355,37,cs),
(344.333,41.667,o),
(339,52,o),
(339,68,cs),
(339,276,l),
(505,562,ls),
(531.667,611.333,o),
(548.667,623,o),
(590,627,c),
(594,659,l),
(553.333,653,o),
(517.667,650,o),
(487,650,cs),
(456.333,650,o),
(417.667,653,o),
(371,659,c),
(374,627,l),
(412,618.333,o),
(435,611.333,o),
(443,606,cs),
(450.333,600.667,o),
(454,594.333,o),
(454,587,cs),
(454,579.667,o),
(451.667,572,o),
(447,564,cs),
(316,330,l),
(184,563,ls),
(171.735,584.463,o),
(170.325,603.973,o),
(197,613.5,cs),
(211,618.5,o),
(228,623,o),
(248,627,c),
(251,659,l),
(205.667,653,o),
(161.167,650,o),
(117.5,650,cs),
(73.833,650,o),
(34,653,o),
(-2,659,c),
(2,627,l),
(2,627,l)
);
},
{
closed = 1;
nodes = (
(170.5,703.5,l),
(200.488,675.446,o),
(266,688.034,o),
(266,741,cs),
(266,771.667,o),
(243.167,794,o),
(210.5,794,cs),
(155.003,794,o),
(140.072,731.965,o),
(170.5,703.5,c)
);
},
{
closed = 1;
nodes = (
(362.5,703.5,l),
(392.488,675.446,o),
(458,688.034,o),
(458,741,cs),
(458,771.667,o),
(435.167,794,o),
(402.5,794,cs),
(347.003,794,o),
(332.072,731.965,o),
(362.5,703.5,c)
);
}
);
};
layerId = "619f1a1e-fd92-11ee-b280-8aa624eb3053";
shapes = (
{
ref = Y;
},
{
alignment = -1;
pos = (115,149);
ref = dieresiscomb;
}
);
width = 592;
},
{
background = {
shapes = (
{
closed = 1;
nodes = (
(38.667,618,o),
(57.333,605.667,o),
(80,559,c),
(245,274,l),
(245,78,ls),
(245,68.667,o),
(244,62,o),
(242,58,cs),
(237.333,46.667,o),
(210.667,37,o),
(162,29,c),
(170,-8,l),
(216,-2.667,o),
(260.167,0,o),
(302.5,0,cs),
(344.833,0,o),
(391,-2.667,o),
(441,-8,c),
(450,28,l),
(436,30,ls),
(410.667,35.333,o),
(391.333,41.333,o),
(378,48,cs),
(366,54.667,o),
(364,59.333,o),
(364,78,cs),
(364,276,l),
(521,552,l),
(545,604,o),
(566.667,618,o),
(608,622,c),
(612,660,l),
(566.667,653.333,o),
(530.333,650,o),
(503,650,cs),
(475.667,650,o),
(434.667,653.333,o),
(380,660,c),
(383,622,l),
(436.937,609.015,o),
(458,603.074,o),
(458,582.5,cs),
(458,574.833,o),
(454.667,565.333,o),
(448,554,cs),
(342,360,l),
(231,553,ls),
(221.168,568.976,o),
(215.804,592.979,o),
(240,606.5,cs),
(251.333,612.833,o),
(266.667,618,o),
(286,622,c),
(289,660,l),
(233,653.333,o),
(181.833,650,o),
(135.5,650,cs),
(89.167,650,o),
(42.667,653.333,o),
(-4,660,c),
(0,622,l),
(0,622,l)
);
},
{
closed = 1;
nodes = (
(157,712.5,l),
(185.187,687.668,o),
(237.813,687.668,o),
(266,712.5,cs),
(280,724.833,o),
(287,741,o),
(287,761,cs),
(287,801,o),
(256.333,828,o),
(211,828,cs),
(165.667,828,o),
(136,801,o),
(136,761,cs),
(136,741,o),
(143,724.833,o),
(157,712.5,c)
);
},
{
closed = 1;
nodes = (
(380,712.5,l),
(408.187,687.668,o),
(460.813,687.668,o),
(489,712.5,cs),
(503,724.833,o),
(510,741,o),
(510,761,cs),
(510,801,o),
(479.333,828,o),
(434,828,cs),
(388.667,828,o),
(359,801,o),
(359,761,cs),
(359,741,o),
(366,724.833,o),
(380,712.5,c)
);
}
);
};
layerId = "66e3d46a-fd92-11ee-8244-8aa624eb3053";
shapes = (
{
ref = Y;
},
{
alignment = -1;
pos = (131,173);
ref = dieresiscomb;
}
);
width = 608;
}
);
unicode = 376;
},
{
glyphname = Z;
lastChange = "2024-04-29 10:24:41 +0000";
layers = (
{
anchors = (
{
name = top;
pos = (296,0);
}
);
layerId = "619f1a1e-fd92-11ee-b280-8aa624eb3053";
shapes = (
{
closed = 1;
nodes = (
(49,0,l),
(518,0,l),
(528,34,o),
(551,160,o),
(553,197,c),
(517,206,l),
(505,170,o),
(456,75,o),
(434,53,c),
(149,53,l),
(525,600,l),
(511,650,l),
(164,650,ls),
(123,650,o),
(93,662,o),
(93,662,c),
(69,650,l),
(62,612,o),
(56,502,o),
(58,463,c),
(93,456,l),
(102,496,o),
(124,568,o),
(144,597,c),
(418,597,l),
(40,47,l)
);
}
);
width = 587;
},
{
anchors = (
{
name = top;
pos = (297,0);
}
);
layerId = "66e3d46a-fd92-11ee-8244-8aa624eb3053";
shapes = (
{
closed = 1;
nodes = (
(46,0,l),
(527,0,l),
(537,35,o),
(560,164,o),
(562,202,c),
(511,214,l),
(499,180,o),
(450,88,o),
(428,68,c),
(188,68,l),
(539,595,l),
(530,650,l),
(168,650,ls),
(127,650,o),
(97,663,o),
(97,663,c),
(63,645,l),
(57,607,o),
(57,498,o),
(57,459,c),
(107,450,l),
(116,488,o),
(138,555,o),
(158,582,c),
(386,582,l),
(32,52,l)
);
}
);
width = 595;
}
);
unicode = 90;
},
{
glyphname = uni1E00;
lastChange = "2024-04-29 12:45:15 +0000";
layers = (
{
background = {
shapes = (
{
closed = 1;
nodes = (
(134,71,o),
(134.667,75.667,o),
(136,79,cs),
(190,237,l),
(423,237,l),
(480,79,ls),
(482,74.333,o),
(483,69.667,o),
(483,65,cs),
(483,39.667,o),
(446.667,33,o),
(400,25,c),
(406,-8,l),
(443.333,-2.667,o),
(483.167,0,o),
(525.5,0,cs),
(567.833,0,o),
(607.667,-2.667,o),
(645,-8,c),
(652,25,l),
(596,37,o),
(589.333,43.667,o),
(568,101,cs),
(353,674,l),
(331.667,661.333,o),
(306.333,651.667,o),
(277,645,c),
(78,101,ls),
(56.667,42.333,o),
(52,37,o),
(-4,25,c),
(3,-8,l),
(40.333,-2.667,o),
(75.333,0,o),
(108,0,cs),
(140.667,0,o),
(175.333,-2.667,o),
(212,-8,c),
(218,25,l),
(159,38,ls),
(142.333,42.667,o),
(134,51.667,o),
(134,65,cs)
);
},
{
closed = 1;
nodes = (
(306,572,l),
(317,530,l),
(405,287,l),
(207,287,l),
(294,537,l),
(299,575,l),
(299,575,l)
);
},
{
closed = 1;
nodes = (
(273,-122,l),
(301.579,-91.379,o),
(355,-110.435,o),
(355,-159,cs),
(355,-188.333,o),
(333.667,-211,o),
(307,-211,cs),
(261.633,-211,o),
(244.738,-152.281,o),
(273,-122,c)
);
},
{
closed = 1;
nodes = (
(246.5,-218.5,l),
(280.762,-252.762,o),
(333.238,-252.762,o),
(367.5,-218.5,cs),
(384.5,-201.5,o),
(393,-181.667,o),
(393,-159,cs),
(393,-113.667,o),
(353.667,-74,o),
(307,-74,cs),
(260.333,-74,o),
(221,-113.667,o),
(221,-159,cs),
(221,-181.667,o),
(229.5,-201.5,o),
(246.5,-218.5,c)
);
}
);
};
layerId = "619f1a1e-fd92-11ee-b280-8aa624eb3053";
shapes = (
{
ref = A;
},
{
pos = (146,0);
ref = ringbelowcomb;
}
);
width = 650;
},
{
background = {
shapes = (
{
closed = 1;
nodes = (
(148,81,o),
(148.667,85.667,o),
(150,89,cs),
(197,228,l),
(399,228,l),
(450,89,ls),
(452,84.333,o),
(453,79.667,o),
(453,75,cs),
(453,52.333,o),
(417,43.333,o),
(373,30,c),
(379,-9,l),
(429,-3,o),
(475.833,0,o),
(519.5,0,cs),
(563.167,0,o),
(608,-3,o),
(654,-9,c),
(661,30,l),
(609,42,o),
(604,48.333,o),
(580,111,cs),
(362,675,l),
(334,661,o),
(304.333,651,o),
(273,645,c),
(77,111,ls),
(54.333,47,o),
(51,42,o),
(-9,30,c),
(-1,-9,l),
(45,-3,o),
(83,0,o),
(113,0,cs),
(143,0,o),
(179.667,-3,o),
(223,-9,c),
(229,30,l),
(173,48,ls),
(156.333,54,o),
(148,63,o),
(148,75,cs)
);
},
{
closed = 1;
nodes = (
(231,-217.5,l),
(271.187,-252.999,o),
(332.67,-252.975,o),
(373.5,-217.5,cs),
(393.833,-199.833,o),
(404,-178.667,o),
(404,-154,cs),
(404,-104.667,o),
(356.667,-64,o),
(302,-64,cs),
(247.333,-64,o),
(201,-104.667,o),
(201,-154,cs),
(201,-178.667,o),
(211,-199.833,o),
(231,-217.5,c)
);
},
{
closed = 1;
nodes = (
(298,520,l),
(309,478,l),
(376,292,l),
(219,292,l),
(286,485,l),
(291,523,l),
(291,523,l)
);
},
{
closed = 1;
nodes = (
(273,-122,l),
(299.483,-93.31,o),
(344,-115.596,o),
(344,-154,cs),
(344,-179.333,o),
(324.667,-199,o),
(302,-199,cs),
(263.804,-199,o),
(248.617,-148.415,o),
(273,-122,c)
);
}
);
};
layerId = "66e3d46a-fd92-11ee-8244-8aa624eb3053";
shapes = (
{
ref = A;
},
{
pos = (141,0);
ref = ringbelowcomb;
}
);
width = 652;
}
);
unicode = 7680;
},
{
glyphname = uni1EF4;
lastChange = "2024-04-29 12:08:51 +0000";
layers = (
{
background = {
shapes = (
{
closed = 1;
nodes = (
(40.667,623,o),
(55,613,o),
(79,569,cs),
(250,274,l),
(250,68,ls),
(250,52,o),
(244.167,41.5,o),
(232.5,36.5,cs),
(220.833,31.5,o),
(198.333,27.333,o),
(165,24,c),
(172,-8,l),
(216,-2.667,o),
(257.167,0,o),
(295.5,0,cs),
(333.833,0,o),
(375,-2.667,o),
(419,-8,c),
(427,23,l),
(413,24,ls),
(385,27.333,o),
(365.667,31.667,o),
(355,37,cs),
(344.333,41.667,o),
(339,52,o),
(339,68,cs),
(339,276,l),
(505,562,ls),
(531.667,611.333,o),
(548.667,623,o),
(590,627,c),
(594,659,l),
(553.333,653,o),
(517.667,650,o),
(487,650,cs),
(456.333,650,o),
(417.667,653,o),
(371,659,c),
(374,627,l),
(412,618.333,o),
(435,611.333,o),
(443,606,cs),
(450.333,600.667,o),
(454,594.333,o),
(454,587,cs),
(454,579.667,o),
(451.667,572,o),
(447,564,cs),
(316,330,l),
(184,563,ls),
(171.735,584.463,o),
(170.325,603.973,o),
(197,613.5,cs),
(211,618.5,o),
(228,623,o),
(248,627,c),
(251,659,l),
(205.667,653,o),
(161.167,650,o),
(117.5,650,cs),
(73.833,650,o),
(34,653,o),
(-2,659,c),
(2,627,l),
(2,627,l)
);
},
{
closed = 1;
nodes = (
(254.5,-190.5,l),
(284.488,-218.554,o),
(350,-205.966,o),
(350,-153,cs),
(350,-122.333,o),
(327.167,-100,o),
(294.5,-100,cs),
(239.003,-100,o),
(224.072,-162.035,o),
(254.5,-190.5,c)
);
}
);
};
layerId = "619f1a1e-fd92-11ee-b280-8aa624eb3053";
shapes = (
{
ref = Y;
},
{
pos = (154,0);
ref = dotbelowcomb;
}
);
width = 592;
},
{
background = {
shapes = (
{
closed = 1;
nodes = (
(38.667,618,o),
(57.333,605.667,o),
(80,559,c),
(245,274,l),
(245,78,ls),
(245,68.667,o),
(244,62,o),
(242,58,cs),
(237.333,46.667,o),
(210.667,37,o),
(162,29,c),
(170,-8,l),
(216,-2.667,o),
(260.167,0,o),
(302.5,0,cs),
(344.833,0,o),
(391,-2.667,o),
(441,-8,c),
(450,28,l),
(436,30,ls),
(410.667,35.333,o),
(391.333,41.333,o),
(378,48,cs),
(366,54.667,o),
(364,59.333,o),
(364,78,cs),
(364,276,l),
(521,552,l),
(545,604,o),
(566.667,618,o),
(608,622,c),
(612,660,l),
(566.667,653.333,o),
(530.333,650,o),
(503,650,cs),
(475.667,650,o),
(434.667,653.333,o),
(380,660,c),
(383,622,l),
(436.937,609.015,o),
(458,603.074,o),
(458,582.5,cs),
(458,574.833,o),
(454.667,565.333,o),
(448,554,cs),
(342,360,l),
(231,553,ls),
(221.168,568.976,o),
(215.804,592.979,o),
(240,606.5,cs),
(251.333,612.833,o),
(266.667,618,o),
(286,622,c),
(289,660,l),
(233,653.333,o),
(181.833,650,o),
(135.5,650,cs),
(89.167,650,o),
(42.667,653.333,o),
(-4,660,c),
(0,622,l),
(0,622,l)
);
},
{
closed = 1;
nodes = (
(243,-213.5,l),
(273.955,-241.09,o),
(331.915,-241.053,o),
(363.5,-213.5,cs),
(379.167,-199.833,o),
(387,-182.333,o),
(387,-161,cs),
(387,-118.333,o),
(352.333,-88,o),
(303,-88,cs),
(253.667,-88,o),
(220,-118.333,o),
(220,-161,cs),
(220,-182.333,o),
(227.667,-199.833,o),
(243,-213.5,c)
);
}
);
};
layerId = "66e3d46a-fd92-11ee-8244-8aa624eb3053";
shapes = (
{
ref = Y;
},
{
pos = (164,0);
ref = dotbelowcomb;
}
);
width = 608;
}
);
unicode = 7924;
},
{
glyphname = uni1EF6;
lastChange = "2024-04-29 12:57:30 +0000";
layers = (
{
background = {
shapes = (
{
closed = 1;
nodes = (
(121.667,-244,o),
(165,-209,o),
(195,-139,cs),
(406,352,ls),
(419.333,385.333,o),
(422.667,389.667,o),
(452,391,c),
(459,422,l),
(425.667,418,o),
(397.667,416,o),
(375,416,cs),
(352.333,416,o),
(324.333,418,o),
(291,422,c),
(293,393,l),
(338,384,l),
(348.667,380.667,o),
(354,374.667,o),
(354,366,cs),
(354,362,o),
(352.667,357.333,o),
(350,352,cs),
(256,118,l),
(249,88,l),
(243,88,l),
(238,113,l),
(133,353,ls),
(131,358.333,o),
(130,363,o),
(130,367,cs),
(130,375.667,o),
(134.667,381.5,o),
(144,384.5,cs),
(153.333,387.5,o),
(168.667,390.667,o),
(190,394,c),
(192,423,l),
(149.333,418.333,o),
(116.167,416,o),
(92.5,416,cs),
(68.833,416,o),
(35.667,418.333,o),
(-7,423,c),
(-1,392,l),
(28.333,390.667,o),
(31,386.333,o),
(47,353,cs),
(207,-1,l),
(165,-93,ls),
(147,-131.667,o),
(122,-151,o),
(90,-151,cs),
(74.667,-151,o),
(57.667,-146.667,o),
(39,-138,c),
(21,-147,l),
(27,-186.333,o),
(37.667,-218.667,o),
(53,-244,c),
(65,-244,l),
(65,-244,l)
);
},
{
closed = 1;
nodes = (
(301,626.333,o),
(295.333,617.667,o),
(284,609,cs),
(273.714,600.429,o),
(245.315,600.315,o),
(225,580,c),
(216,560,l),
(218.667,546.667,o),
(242,500,o),
(250,492,c),
(285,503,l),
(279,517,o),
(276,530.667,o),
(276,544,cs),
(276,552,o),
(291.333,563,o),
(322,577,cs),
(346,587.667,o),
(369,612,o),
(369,648,cs),
(369,684,o),
(326.5,709,o),
(272.5,709,cs),
(245.5,709,o),
(213,698.667,o),
(175,678,c),
(193,643,l),
(215.667,659.667,o),
(239.333,668,o),
(264,668,cs),
(288.667,668,o),
(301,657,o),
(301,635,cs)
);
}
);
};
layerId = "619f1a1e-fd92-11ee-b280-8aa624eb3053";
shapes = (
{
ref = y;
},
{
pos = (116,0);
ref = hook;
}
);
width = 466;
},
{
background = {
shapes = (
{
closed = 1;
nodes = (
(135.333,-244,o),
(183,-209,o),
(213,-139,cs),
(423,352,ls),
(436.333,382.667,o),
(444,389.667,o),
(476,391,c),
(483,428,l),
(432.333,423.333,o),
(396,421,o),
(374,421,cs),
(352,421,o),
(324.667,423.333,o),
(292,428,c),
(294,393,l),
(329.333,389,o),
(347,381,o),
(347,369,cs),
(347,363.667,o),
(346,358,o),
(344,352,cs),
(258,123,l),
(170,348,l),
(167.333,357.333,o),
(166,364.333,o),
(166,369,cs),
(166,375,o),
(170.667,380,o),
(180,384,c),
(197.189,388.911,o),
(212.981,391.991,o),
(217,394,c),
(221,429,l),
(161,423.667,o),
(119.333,421,o),
(96,421,cs),
(72.667,421,o),
(34.333,423.667,o),
(-19,429,c),
(-12,392,l),
(21.333,388,o),
(27,384,o),
(43,348,cs),
(196,-9,l),
(162,-88,l),
(145.333,-116.667,o),
(121.333,-131,o),
(90,-131,cs),
(75.333,-131,o),
(58.333,-125,o),
(39,-113,c),
(16,-127,l),
(24.667,-177.667,o),
(37,-216.667,o),
(53,-244,c),
(70,-244,l),
(70,-244,l)
);
},
{
closed = 1;
nodes = (
(286,599.981,o),
(261.657,603.329,o),
(211,578,c),
(201,557,l),
(203.667,545,o),
(231.333,495.667,o),
(242,485,c),
(298,502,l),
(292.667,516,o),
(290,528.167,o),
(290,538.5,cs),
(290,548.833,o),
(296.667,557,o),
(310,563,cs),
(357.333,585,o),
(381,611.333,o),
(381,642,cs),
(381,700.783,o),
(282.319,737.039,o),
(162,675,c),
(186,632,l),
(214.667,652,o),
(238,662,o),
(256,662,cs),
(276,662,o),
(286,652,o),
(286,632,cs)
);
}
);
};
layerId = "66e3d46a-fd92-11ee-8244-8aa624eb3053";
shapes = (
{
ref = y;
},
{
pos = (117,-1);
ref = hook;
}
);
width = 465;
}
);
unicode = 7926;
},
{
glyphname = a;
lastChange = "2024-04-29 12:49:13 +0000";
layers = (
{
anchors = (
{
name = bottom;
pos = (250,0);
},
{
name = ogonek;
pos = (313,0);
},
{
name = top;
pos = (220,0);
}
);
layerId = "619f1a1e-fd92-11ee-b280-8aa624eb3053";
shapes = (
{
closed = 1;
nodes = (
(153,44,o),
(127,75,o),
(127,112,cs),
(127,157,o),
(159,176,o),
(206,184,cs),
(283,198,l),
(283,84,l),
(252,60,o),
(216,44,o),
(191,44,cs)
);
},
{
closed = 1;
nodes = (
(363,385,o),
(320,432,o),
(221,432,cs),
(178,432,o),
(98,398,o),
(65,383,c),
(67,358,o),
(84,291,o),
(90,271,c),
(132,283,l),
(132,305,o),
(132,354,o),
(138,375,c),
(151,382,o),
(177,387,o),
(202,387,cs),
(269,387,o),
(283,341,o),
(283,272,cs),
(283,227,l),
(191,217,ls),
(108,209,o),
(44,182,o),
(44,100,cs),
(44,31,o),
(87,-16,o),
(156,-16,cs),
(193,-16,o),
(225,0,o),
(286,51,c),
(293,21,o),
(312,-2,o),
(333,-16,c),
(366,-2,o),
(400,10,o),
(437,18,c),
(429,47,l),
(429,47,o),
(416,46,o),
(402,46,cs),
(380,46,o),
(363,52,o),
(363,82,cs),
(363,286,ls)
);
}
);
width = 455;
},
{
anchors = (
{
name = bottom;
pos = (240,0);
},
{
name = ogonek;
pos = (293,0);
},
{
name = top;
pos = (222,0);
}
);
layerId = "66e3d46a-fd92-11ee-8244-8aa624eb3053";
shapes = (
{
closed = 1;
nodes = (
(167,59,o),
(150,84,o),
(150,112,cs),
(150,154,o),
(173,171,o),
(208,179,cs),
(260,190,l),
(260,88,l),
(239,70,o),
(213,59,o),
(193,59,cs)
);
},
{
closed = 1;
nodes = (
(380,390,o),
(331,437,o),
(223,437,cs),
(176,437,o),
(84,400,o),
(47,383,c),
(48,354,o),
(69,286,o),
(77,261,c),
(139,278,l),
(139,300,o),
(139,348,o),
(145,369,c),
(157,375,o),
(181,382,o),
(204,382,cs),
(251,382,o),
(260,340,o),
(260,277,cs),
(260,230,l),
(193,222,ls),
(101,211,o),
(30,187,o),
(30,100,cs),
(30,31,o),
(80,-16,o),
(158,-16,cs),
(185,-16,o),
(212,-3,o),
(263,48,c),
(271,18,o),
(292,-2,o),
(315,-16,c),
(360,-2,o),
(401,10,o),
(450,18,c),
(441,52,l),
(441,52,o),
(427,52,o),
(416,54,cs),
(394,57,o),
(380,62,o),
(380,92,cs),
(380,291,ls)
);
}
);
width = 459;
}
);
unicode = 97;
},
{
glyphname = abreve;
lastChange = "2024-04-29 10:12:53 +0000";
layers = (
{
background = {
shapes = (
{
closed = 1;
nodes = (
(127,151.333,o),
(153.333,175.333,o),
(206,184,cs),
(283,198,l),
(283,84,l),
(219.775,35.366,o),
(171.795,34.228,o),
(145,64,cs),
(133,77.333,o),
(127,93.333,o),
(127,112,cs)
);
},
{
closed = 1;
nodes = (
(363,386,o),
(319.667,432,o),
(221,432,cs),
(189,432,o),
(137,415.667,o),
(65,383,c),
(67,357,o),
(75.333,319.667,o),
(90,271,c),
(132,283,l),
(132,330.333,o),
(134,361,o),
(138,375,c),
(189.272,402.967,o),
(250.59,384.288,o),
(266,358,cs),
(277.333,338.667,o),
(283,310,o),
(283,272,cs),
(283,227,l),
(191,217,ls),
(99,207.667,o),
(44,175.167,o),
(44,102.5,cs),
(44,29.833,o),
(88,-16,o),
(156,-16,cs),
(193.333,-16,o),
(226,0.333,o),
(286,51,c),
(292.667,23,o),
(308.333,0.667,o),
(333,-16,c),
(369.667,-0.667,o),
(404.333,10.667,o),
(437,18,c),
(429,47,l),
(402,46,ls),
(376,46,o),
(363,58,o),
(363,82,cs),
(363,286,ls)
);
},
{
closed = 1;
nodes = (
(322,655,l),
(312,602.333,o),
(280,576,o),
(226,576,cs),
(172,576,o),
(140,602.333,o),
(130,655,c),
(99,646,l),
(99,564.667,o),
(145.5,511,o),
(223.5,511,cs),
(301.5,511,o),
(353,567.333,o),
(353,646,c)
);
}
);
};
layerId = "619f1a1e-fd92-11ee-b280-8aa624eb3053";
shapes = (
{
ref = a;
},
{
pos = (65,0);
ref = brevecomb;
}
);
width = 455;
},
{
background = {
shapes = (
{
closed = 1;
nodes = (
(150,148,o),
(169.333,170.333,o),
(208,179,cs),
(260,190,l),
(260,88,l),
(218.332,52.46,o),
(179.54,51.844,o),
(162,74.5,cs),
(154,84.833,o),
(150,97.333,o),
(150,112,cs)
);
},
{
closed = 1;
nodes = (
(380,391,o),
(331,437,o),
(223,437,cs),
(184.333,437,o),
(125.667,419,o),
(47,383,c),
(47.667,361.667,o),
(57.667,321,o),
(77,261,c),
(139,278,l),
(139,324.667,o),
(141,355,o),
(145,369,c),
(194.517,393.758,o),
(236.921,382.178,o),
(248.5,356,cs),
(256.167,338.667,o),
(260,312.333,o),
(260,277,cs),
(260,230,l),
(193,222,ls),
(87.667,210,o),
(30,178.667,o),
(30,104,cs),
(30,29.333,o),
(80.667,-16,o),
(158,-16,cs),
(185.333,-16,o),
(220.333,5.333,o),
(263,48,c),
(269.667,22,o),
(287,0.667,o),
(315,-16,c),
(369,0.667,o),
(414,12,o),
(450,18,c),
(441,52,l),
(416,54,ls),
(390.667,58,o),
(380,64,o),
(380,92,cs),
(380,291,ls)
);
},
{
closed = 1;
nodes = (
(326,659,l),
(316,615,o),
(283.333,593,o),
(228,593,cs),
(172.667,593,o),
(140,615,o),
(130,659,c),
(96,649,l),
(96,563.667,o),
(144.833,506,o),
(225.5,506,cs),
(306.167,506,o),
(360,566.333,o),
(360,649,c)
);
}
);
};
layerId = "66e3d46a-fd92-11ee-8244-8aa624eb3053";
shapes = (
{
ref = a;
},
{
pos = (67,0);
ref = brevecomb;
}
);
width = 459;
}
);
unicode = 259;
},
{
glyphname = amacron;
lastChange = "2024-04-29 10:11:22 +0000";
layers = (
{
background = {
shapes = (
{
closed = 1;
nodes = (
(127,151.333,o),
(153.333,175.333,o),
(206,184,cs),
(283,198,l),
(283,84,l),
(219.775,35.366,o),
(171.795,34.228,o),
(145,64,cs),
(133,77.333,o),
(127,93.333,o),
(127,112,cs)
);
},
{
closed = 1;
nodes = (
(363,386,o),
(319.667,432,o),
(221,432,cs),
(189,432,o),
(137,415.667,o),
(65,383,c),
(67,357,o),
(75.333,319.667,o),
(90,271,c),
(132,283,l),
(132,330.333,o),
(134,361,o),
(138,375,c),
(189.272,402.967,o),
(250.59,384.288,o),
(266,358,cs),
(277.333,338.667,o),
(283,310,o),
(283,272,cs),
(283,227,l),
(191,217,ls),
(99,207.667,o),
(44,175.167,o),
(44,102.5,cs),
(44,29.833,o),
(88,-16,o),
(156,-16,cs),
(193.333,-16,o),
(226,0.333,o),
(286,51,c),
(292.667,23,o),
(308.333,0.667,o),
(333,-16,c),
(369.667,-0.667,o),
(404.333,10.667,o),
(437,18,c),
(429,47,l),
(402,46,ls),
(376,46,o),
(363,58,o),
(363,82,cs),
(363,286,ls)
);
},
{
closed = 1;
nodes = (
(351,618,l),
(101,618,l),
(90,557,l),
(340,557,l)
);
}
);
};
layerId = "619f1a1e-fd92-11ee-b280-8aa624eb3053";
shapes = (
{
ref = a;
},
{
pos = (55,0);
ref = macroncomb;
}
);
width = 455;
},
{
background = {
shapes = (
{
closed = 1;
nodes = (
(150,148,o),
(169.333,170.333,o),
(208,179,cs),
(260,190,l),
(260,88,l),
(218.332,52.46,o),
(179.54,51.844,o),
(162,74.5,cs),
(154,84.833,o),
(150,97.333,o),
(150,112,cs)
);
},
{
closed = 1;
nodes = (
(380,391,o),
(331,437,o),
(223,437,cs),
(184.333,437,o),
(125.667,419,o),
(47,383,c),
(47.667,361.667,o),
(57.667,321,o),
(77,261,c),
(139,278,l),
(139,324.667,o),
(141,355,o),
(145,369,c),
(194.517,393.758,o),
(236.921,382.178,o),
(248.5,356,cs),
(256.167,338.667,o),
(260,312.333,o),
(260,277,cs),
(260,230,l),
(193,222,ls),
(87.667,210,o),
(30,178.667,o),
(30,104,cs),
(30,29.333,o),
(80.667,-16,o),
(158,-16,cs),
(185.333,-16,o),
(220.333,5.333,o),
(263,48,c),
(269.667,22,o),
(287,0.667,o),
(315,-16,c),
(369,0.667,o),
(414,12,o),
(450,18,c),
(441,52,l),
(416,54,ls),
(390.667,58,o),
(380,64,o),
(380,92,cs),
(380,291,ls)
);
},
{
closed = 1;
nodes = (
(366,624,l),
(93,624,l),
(79,548,l),
(352,548,l)
);
}
);
};
layerId = "66e3d46a-fd92-11ee-8244-8aa624eb3053";
shapes = (
{
ref = a;
},
{
pos = (57,0);
ref = macroncomb;
}
);
width = 459;
}
);
unicode = 257;
},
{
glyphname = aogonek;
lastChange = "2024-04-29 11:09:12 +0000";
layers = (
{
background = {
shapes = (
{
closed = 1;
nodes = (
(262,-104.333,o),
(288,-61,o),
(340,-13,c),
(369.333,-0.333,o),
(401.667,10,o),
(437,18,c),
(429,47,l),
(402,46,ls),
(376,46,o),
(363,58,o),
(363,82,cs),
(363,286,ls),
(363,386,o),
(319.667,432,o),
(221,432,cs),
(189,432,o),
(137,415.667,o),
(65,383,c),
(67,357,o),
(75.333,319.667,o),
(90,271,c),
(132,283,l),
(132,330.333,o),
(134,361,o),
(138,375,c),
(189.272,402.967,o),
(250.59,384.288,o),
(266,358,cs),
(277.333,338.667,o),
(283,310,o),
(283,272,cs),
(283,227,l),
(191,217,ls),
(99,207.667,o),
(44,175.167,o),
(44,102.5,cs),
(44,29.833,o),
(88,-16,o),
(156,-16,cs),
(193.333,-16,o),
(226,0.333,o),
(286,51,c),
(290.667,31,o),
(300,14,o),
(314,0,c),
(274,-31.333,o),
(245.667,-55.333,o),
(229,-72,cs),
(199.667,-100,o),
(192,-121.667,o),
(192,-151,cs),
(192,-238.129,o),
(286.235,-270.44,o),
(381,-206,c),
(366,-176,l),
(296.284,-206.501,o),
(262,-182.776,o),
(262,-143,cs)
);
},
{
closed = 1;
nodes = (
(127,151.333,o),
(153.333,175.333,o),
(206,184,cs),
(283,198,l),
(283,84,l),
(219.775,35.366,o),
(171.795,34.228,o),
(145,64,cs),
(133,77.333,o),
(127,93.333,o),
(127,112,cs)
);
}
);
};
layerId = "619f1a1e-fd92-11ee-b280-8aa624eb3053";
shapes = (
{
ref = a;
},
{
pos = (136,0);
ref = ogonekcomb;
}
);
width = 455;
},
{
background = {
shapes = (
{
closed = 1;
nodes = (
(256,-105,o),
(277.333,-62,o),
(320,-14,c),
(370,1.333,o),
(413.333,12,o),
(450,18,c),
(441,52,l),
(416,54,ls),
(390.667,58,o),
(380,64,o),
(380,92,cs),
(380,291,ls),
(380,391,o),
(331,437,o),
(223,437,cs),
(184.333,437,o),
(125.667,419,o),
(47,383,c),
(47.667,361.667,o),
(57.667,321,o),
(77,261,c),
(139,278,l),
(139,324.667,o),
(141,355,o),
(145,369,c),
(194.517,393.758,o),
(236.921,382.178,o),
(248.5,356,cs),
(256.167,338.667,o),
(260,312.333,o),
(260,277,cs),
(260,230,l),
(193,222,ls),
(87.667,210,o),
(30,178.667,o),
(30,104,cs),
(30,29.333,o),
(80.667,-16,o),
(158,-16,cs),
(185.333,-16,o),
(220.333,5.333,o),
(263,48,c),
(267.667,29.333,o),
(277.667,13.333,o),
(293,0,c),
(253,-29.333,o),
(223.333,-53.333,o),
(204,-72,cs),
(174.667,-100,o),
(166,-121.667,o),
(166,-151,cs),
(166,-209.667,o),
(203.833,-245,o),
(268.5,-245,cs),
(300.833,-245,o),
(336.333,-231.333,o),
(375,-204,c),
(355,-171,l),
(316.165,-194.802,o),
(280.34,-196.076,o),
(266,-176,cs),
(259.333,-166.667,o),
(256,-155.667,o),
(256,-143,cs)
);
},
{
closed = 1;
nodes = (
(150,148,o),
(169.333,170.333,o),
(208,179,cs),
(260,190,l),
(260,88,l),
(218.332,52.46,o),
(179.54,51.844,o),
(162,74.5,cs),
(154,84.833,o),
(150,97.333,o),
(150,112,cs)
);
}
);
};
layerId = "66e3d46a-fd92-11ee-8244-8aa624eb3053";
shapes = (
{
ref = a;
},
{
pos = (116,0);
ref = ogonekcomb;
}
);
width = 459;
}
);
unicode = 261;
},
{
glyphname = aringacute;
lastChange = "2024-04-29 13:01:59 +0000";
layers = (
{
background = {
shapes = (
{
closed = 1;
nodes = (
(127,151.333,o),
(153.333,175.333,o),
(206,184,cs),
(283,198,l),
(283,84,l),
(219.775,35.366,o),
(171.795,34.228,o),
(145,64,cs),
(133,77.333,o),
(127,93.333,o),
(127,112,cs)
);
},
{
closed = 1;
nodes = (
(363,386,o),
(319.667,432,o),
(221,432,cs),
(189,432,o),
(137,415.667,o),
(65,383,c),
(67,357,o),
(75.333,319.667,o),
(90,271,c),
(132,283,l),
(132,330.333,o),
(134,361,o),
(138,375,c),
(189.272,402.967,o),
(250.59,384.288,o),
(266,358,cs),
(277.333,338.667,o),
(283,310,o),
(283,272,cs),
(283,227,l),
(191,217,ls),
(99,207.667,o),
(44,175.167,o),
(44,102.5,cs),
(44,29.833,o),
(88,-16,o),
(156,-16,cs),
(193.333,-16,o),
(226,0.333,o),
(286,51,c),
(292.667,23,o),
(308.333,0.667,o),
(333,-16,c),
(369.667,-0.667,o),
(404.333,10.667,o),
(437,18,c),
(429,47,l),
(402,46,ls),
(376,46,o),
(363,58,o),
(363,82,cs),
(363,286,ls)
);
},
{
closed = 1;
nodes = (
(212.579,655.621,o),
(266,636.565,o),
(266,588,cs),
(266,558.667,o),
(244.667,536,o),
(218,536,cs),
(172.633,536,o),
(155.738,594.719,o),
(184,625,cs)
);
},
{
closed = 1;
nodes = (
(191.762,494.238,o),
(244.238,494.238,o),
(278.5,528.5,cs),
(295.5,545.5,o),
(304,565.333,o),
(304,588,cs),
(304,633.333,o),
(264.667,673,o),
(218,673,cs),
(171.333,673,o),
(132,633.333,o),
(132,588,cs),
(132,565.333,o),
(140.5,545.5,o),
(157.5,528.5,cs)
);
},
{
closed = 1;
nodes = (
(328,823.667,o),
(277.333,833,o),
(260,833,c),
(245.333,823.667,o),
(150.667,725.333,o),
(136,708,c),
(162,681,l),
(350,799,l),
(344,817,l)
);
}
);
};
layerId = "619f1a1e-fd92-11ee-b280-8aa624eb3053";
shapes = (
{
ref = a;
},
{
pos = (57,0);
ref = ringcomb;
},
{
pos = (90,0);
ref = acutecomb.case;
}
);
width = 455;
},
{
background = {
shapes = (
{
closed = 1;
nodes = (
(150,148,o),
(169.333,170.333,o),
(208,179,cs),
(260,190,l),
(260,88,l),
(218.332,52.46,o),
(179.54,51.844,o),
(162,74.5,cs),
(154,84.833,o),
(150,97.333,o),
(150,112,cs)
);
},
{
closed = 1;
nodes = (
(380,391,o),
(331,437,o),
(223,437,cs),
(184.333,437,o),
(125.667,419,o),
(47,383,c),
(47.667,361.667,o),
(57.667,321,o),
(77,261,c),
(139,278,l),
(139,324.667,o),
(141,355,o),
(145,369,c),
(194.517,393.758,o),
(236.921,382.178,o),
(248.5,356,cs),
(256.167,338.667,o),
(260,312.333,o),
(260,277,cs),
(260,230,l),
(193,222,ls),
(87.667,210,o),
(30,178.667,o),
(30,104,cs),
(30,29.333,o),
(80.667,-16,o),
(158,-16,cs),
(185.333,-16,o),
(220.333,5.333,o),
(263,48,c),
(269.667,22,o),
(287,0.667,o),
(315,-16,c),
(369,0.667,o),
(414,12,o),
(450,18,c),
(441,52,l),
(416,54,ls),
(390.667,58,o),
(380,64,o),
(380,92,cs),
(380,291,ls)
);
},
{
closed = 1;
nodes = (
(217.483,648.69,o),
(262,626.404,o),
(262,588,cs),
(262,562.667,o),
(242.667,543,o),
(220,543,cs),
(181.804,543,o),
(166.617,593.585,o),
(191,620,cs)
);
},
{
closed = 1;
nodes = (
(189.187,489.001,o),
(250.67,489.025,o),
(291.5,524.5,cs),
(311.833,542.167,o),
(322,563.333,o),
(322,588,cs),
(322,637.333,o),
(274.667,678,o),
(220,678,cs),
(165.333,678,o),
(119,637.333,o),
(119,588,cs),
(119,563.333,o),
(129,542.167,o),
(149,524.5,cs)
);
},
{
closed = 1;
nodes = (
(315.667,838.667,o),
(281,845,o),
(249,847,c),
(234.333,839,o),
(148.667,742,o),
(130,718,c),
(168,680,l),
(358,799,l),
(353,828,l)
);
}
);
};
layerId = "66e3d46a-fd92-11ee-8244-8aa624eb3053";
shapes = (
{
ref = a;
},
{
pos = (59,0);
ref = ringcomb;
},
{
pos = (92,0);
ref = acutecomb.case;
}
);
width = 459;
}
);
unicode = 507;
},
{
glyphname = ae;
lastChange = "2024-04-29 11:56:05 +0000";
layers = (
{
anchors = (
{
name = top;
pos = (343,0);
}
);
layerId = "619f1a1e-fd92-11ee-b280-8aa624eb3053";
shapes = (
{
closed = 1;
nodes = (
(363,286,ls),
(363,385,o),
(321,432,o),
(221,432,cs),
(178,432,o),
(98,398,o),
(65,383,c),
(68,359,o),
(82,295,o),
(88,276,c),
(129,286,l),
(129,307,o),
(129,354,o),
(133,374,c),
(146,381,o),
(177,387,o),
(202,387,cs),
(269,387,o),
(283,341,o),
(283,272,cs),
(283,227,l),
(191,217,ls),
(108,209,o),
(44,182,o),
(44,100,cs),
(44,31,o),
(87,-16,o),
(156,-16,cs),
(222,-16,o),
(288,45,o),
(333,89,c),
(313,111,l),
(284,80,o),
(230,44,o),
(191,44,cs),
(153,44,o),
(127,75,o),
(127,112,cs),
(127,157,o),
(159,176,o),
(206,184,cs),
(283,198,l),
(363,82,l)
);
},
{
closed = 1;
nodes = (
(642,348,o),
(590,432,o),
(472,432,cs),
(355,432,o),
(283,322,o),
(283,200,cs),
(283,68,o),
(359,-16,o),
(474,-16,cs),
(512,-16,o),
(563,-5,o),
(640,68,c),
(624,90,l),
(593,67,o),
(549,47,o),
(507,47,cs),
(421,47,o),
(371,102,o),
(366,210,c),
(642,230,l)
);
},
{
closed = 1;
nodes = (
(531,391,o),
(552,332,o),
(552,270,c),
(366,246,l),
(366,316,o),
(394,391,o),
(466,391,cs)
);
}
);
width = 679;
},
{
anchors = (
{
name = top;
pos = (353,0);
}
);
layerId = "66e3d46a-fd92-11ee-8244-8aa624eb3053";
shapes = (
{
closed = 1;
nodes = (
(384,291,ls),
(384,390,o),
(338,437,o),
(222,437,cs),
(178,437,o),
(95,400,o),
(61,383,c),
(64,358,o),
(78,291,o),
(84,271,c),
(140,285,l),
(140,305,o),
(140,345,o),
(144,364,c),
(155,370,o),
(182,377,o),
(203,377,cs),
(262,377,o),
(274,337,o),
(274,277,cs),
(274,232,l),
(192,222,ls),
(100,211,o),
(30,186,o),
(30,100,cs),
(30,31,o),
(79,-16,o),
(157,-16,cs),
(223,-16,o),
(289,42,o),
(334,84,c),
(314,116,l),
(286,87,o),
(234,54,o),
(197,54,cs),
(171,54,o),
(153,81,o),
(153,112,cs),
(153,154,o),
(175,172,o),
(207,179,cs),
(274,193,l),
(384,82,l)
);
},
{
closed = 1;
nodes = (
(658,351,o),
(600,437,o),
(473,437,cs),
(350,437,o),
(274,323,o),
(274,195,cs),
(274,66,o),
(354,-16,o),
(475,-16,cs),
(515,-16,o),
(570,-4,o),
(651,73,c),
(633,100,l),
(600,77,o),
(554,57,o),
(508,57,cs),
(437,57,o),
(397,108,o),
(392,210,c),
(658,230,l)
);
},
{
closed = 1;
nodes = (
(512,386,o),
(528,331,o),
(528,275,c),
(392,256,l),
(392,320,o),
(414,386,o),
(467,386,cs)
);
}
);
width = 680;
}
);
unicode = 230;
},
{
glyphname = aeacute;
lastChange = "2024-04-29 11:56:09 +0000";
layers = (
{
background = {
shapes = (
{
closed = 1;
nodes = (
(418.333,47,o),
(371.333,101.333,o),
(366,210,c),
(642,230,l),
(642,354,o),
(583.667,432,o),
(477,432,cs),
(423.667,432,o),
(379.667,413,o),
(345,375,c),
(324.333,413,o),
(283,432,o),
(221,432,cs),
(189,432,o),
(137,415.667,o),
(65,383,c),
(69.667,345,o),
(77.333,309.333,o),
(88,276,c),
(129,286,l),
(129,331.333,o),
(130.333,360.667,o),
(133,374,c),
(189.043,404.357,o),
(251.495,382.745,o),
(266,358,cs),
(277.333,338.667,o),
(283,310,o),
(283,272,cs),
(283,227,l),
(191,217,ls),
(99,207.667,o),
(44,175.167,o),
(44,102.5,cs),
(44,29.833,o),
(88,-16,o),
(156,-16,cs),
(200.667,-16,o),
(253.333,13,o),
(314,71,c),
(348.667,13,o),
(402,-16,o),
(474,-16,cs),
(525.333,-16,o),
(580.667,12,o),
(640,68,c),
(624,90,l),
(585.333,61.333,o),
(546.333,47,o),
(507,47,cs)
);
},
{
closed = 1;
nodes = (
(366,246,l),
(366,324.667,o),
(400.167,391,o),
(463.5,391,cs),
(526.833,391,o),
(552,339.333,o),
(552,270,c)
);
},
{
closed = 1;
nodes = (
(153.667,44,o),
(127,74.667,o),
(127,112,cs),
(127,151.333,o),
(153.333,175.333,o),
(206,184,cs),
(283,198,l),
(283,160,o),
(289,127,o),
(301,99,c),
(260.333,62.333,o),
(223.667,44,o),
(191,44,cs)
);
},
{
closed = 1;
nodes = (
(348.333,658,o),
(284.333,542.333,o),
(271,517,c),
(303,498,l),
(454,660,l),
(444,676,l),
(441.333,676,o),
(431,676,o),
(413,676,cs),
(395,676,o),
(377,674,o),
(359,670,c)
);
}
);
};
layerId = "619f1a1e-fd92-11ee-b280-8aa624eb3053";
shapes = (
{
ref = ae;
},
{
pos = (208,0);
ref = acutecomb;
}
);
width = 679;
},
{
background = {
shapes = (
{
closed = 1;
nodes = (
(436,57,o),
(397.333,108,o),
(392,210,c),
(658,230,l),
(658,356.667,o),
(595.667,437,o),
(473,437,cs),
(427.667,437,o),
(388,422,o),
(354,392,c),
(328.667,422,o),
(284.667,437,o),
(222,437,cs),
(186.667,437,o),
(133,419,o),
(61,383,c),
(65.667,343.667,o),
(73.333,306.333,o),
(84,271,c),
(140,285,l),
(140,325,o),
(141.333,351.333,o),
(144,364,c),
(191.708,389.842,o),
(244.246,376.59,o),
(259,352,cs),
(269,335.333,o),
(274,310.333,o),
(274,277,cs),
(274,232,l),
(192,222,ls),
(88,210,o),
(30,178.667,o),
(30,104,cs),
(30,29.333,o),
(78.5,-16,o),
(160.5,-16,cs),
(201.5,-16,o),
(251.667,10.333,o),
(311,63,c),
(347.667,10.333,o),
(402.333,-16,o),
(475,-16,cs),
(529.667,-16,o),
(588.333,13.667,o),
(651,73,c),
(633,100,l),
(591.667,71.333,o),
(550,57,o),
(508,57,cs)
);
},
{
closed = 1;
nodes = (
(419.667,685,o),
(384.667,682,o),
(356,676,c),
(344,664,o),
(286,550.333,o),
(274,521,c),
(321,494,l),
(474,658,l),
(461,685,l),
(461,685,l)
);
},
{
closed = 1;
nodes = (
(171.667,54,o),
(153,80,o),
(153,112,cs),
(153,148.667,o),
(171,171,o),
(207,179,cs),
(274,193,l),
(274,157.667,o),
(280.333,125.333,o),
(293,96,c),
(256.333,68,o),
(224.333,54,o),
(197,54,cs)
);
},
{
closed = 1;
nodes = (
(392,256,l),
(392,326.667,o),
(418.667,386,o),
(464,386,cs),
(509.333,386,o),
(528,337.667,o),
(528,275,c)
);
}
);
};
layerId = "66e3d46a-fd92-11ee-8244-8aa624eb3053";
shapes = (
{
ref = ae;
},
{
pos = (218,0);
ref = acutecomb;
}
);
width = 680;
}
);
unicode = 509;
},
{
glyphname = b;
lastChange = "2024-04-18 14:46:39 +0000";
layers = (
{
layerId = "619f1a1e-fd92-11ee-b280-8aa624eb3053";
shapes = (
{
closed = 1;
nodes = (
(385,-16,o),
(475,86,o),
(475,224,cs),
(475,348,o),
(422,432,o),
(308,432,cs),
(240,432,o),
(163,375,o),
(163,375,c),
(163,602,ls),
(163,643,o),
(164,674,o),
(171,700,c),
(156,718,l),
(118,715,o),
(48,697,o),
(10,680,c),
(16,650,l),
(16,650,o),
(41,656,o),
(58,656,cs),
(80,656,o),
(83,644,o),
(83,622,cs),
(83,25,l),
(134,4,o),
(201,-16,o),
(261,-16,cs)
);
},
{
closed = 1;
nodes = (
(342,373,o),
(386,322,o),
(386,201,cs),
(386,77,o),
(331,25,o),
(265,25,cs),
(206,25,o),
(163,57,o),
(163,107,cs),
(163,336,l),
(163,336,o),
(208,373,o),
(267,373,cs)
);
}
);
width = 517;
},
{
layerId = "66e3d46a-fd92-11ee-8244-8aa624eb3053";
shapes = (
{
closed = 1;
nodes = (
(388,-16,o),
(484,88,o),
(484,229,cs),
(484,353,o),
(425,437,o),
(302,437,cs),
(247,437,o),
(182,383,o),
(182,383,c),
(182,602,ls),
(182,641,o),
(182,670,o),
(195,695,c),
(175,718,l),
(130,715,o),
(39,695,o),
(-6,678,c),
(0,640,l),
(0,640,o),
(22,645,o),
(37,645,cs),
(59,645,o),
(62,634,o),
(62,612,cs),
(62,25,l),
(116,4,o),
(189,-16,o),
(255,-16,cs)
);
},
{
closed = 1;
nodes = (
(321,363,o),
(355,316,o),
(355,206,cs),
(355,90,o),
(310,40,o),
(259,40,cs),
(215,40,o),
(182,66,o),
(182,107,cs),
(182,337,l),
(182,337,o),
(217,363,o),
(261,363,cs)
);
}
);
width = 515;
}
);
unicode = 98;
},
{
glyphname = c;
lastChange = "2024-04-29 10:45:23 +0000";
layers = (
{
anchors = (
{
name = bottom;
pos = (242,0);
},
{
name = top;
pos = (243,0);
}
);
layerId = "619f1a1e-fd92-11ee-b280-8aa624eb3053";
shapes = (
{
closed = 1;
nodes = (
(374,285,o),
(395,368,o),
(398,394,c),
(371,406,o),
(289,432,o),
(243,432,cs),
(115,432,o),
(42,324,o),
(42,200,cs),
(42,68,o),
(124,-16,o),
(242,-16,cs),
(288,-16,o),
(339,5,o),
(405,64,c),
(389,88,l),
(357,66,o),
(313,47,o),
(275,47,cs),
(189,47,o),
(131,105,o),
(131,223,cs),
(131,321,o),
(158,390,o),
(235,390,cs),
(275,390,o),
(304,381,o),
(318,371,c),
(327,354,o),
(330,295,o),
(328,265,c),
(362,259,l)
);
}
);
width = 435;
},
{
anchors = (
{
name = bottom;
pos = (246,0);
},
{
name = top;
pos = (247,0);
}
);
layerId = "66e3d46a-fd92-11ee-8244-8aa624eb3053";
shapes = (
{
closed = 1;
nodes = (
(388,282,o),
(409,371,o),
(412,399,c),
(383,411,o),
(295,437,o),
(247,437,cs),
(110,437,o),
(31,329,o),
(31,205,cs),
(31,70,o),
(119,-16,o),
(246,-16,cs),
(294,-16,o),
(348,6,o),
(418,69,c),
(398,98,l),
(365,79,o),
(319,62,o),
(279,62,cs),
(208,62,o),
(160,116,o),
(160,228,cs),
(160,320,o),
(182,385,o),
(239,385,cs),
(275,385,o),
(300,376,o),
(312,368,c),
(321,352,o),
(325,292,o),
(322,264,c),
(376,254,l)
);
}
);
width = 437;
}
);
unicode = 99;
},
{
glyphname = cacute;
lastChange = "2024-04-29 11:09:32 +0000";
layers = (
{
background = {
shapes = (
{
closed = 1;
nodes = (
(374,284.333,o),
(395.333,366,o),
(398,394,c),
(363.333,408.667,o),
(284.333,432,o),
(243,432,cs),
(120.333,432,o),
(42,329.5,o),
(42,199.5,cs),
(42,69.5,o),
(123.333,-16,o),
(242,-16,cs),
(291.333,-16,o),
(345.667,10.667,o),
(405,64,c),
(389,88,l),
(267.24,4.797,o),
(131,46.67,o),
(131,223,cs),
(131,334.333,o),
(165.667,390,o),
(235,390,cs),
(272.333,390,o),
(300,383.667,o),
(318,371,c),
(325.333,356.333,o),
(329,329,o),
(329,289,cs),
(329,279.667,o),
(328.667,271.667,o),
(328,265,c),
(362,259,l),
(362,259,l)
);
},
{
closed = 1;
nodes = (
(248.333,658,o),
(184.333,542.333,o),
(171,517,c),
(203,498,l),
(354,660,l),
(344,676,l),
(341.333,676,o),
(331,676,o),
(313,676,cs),
(295,676,o),
(277,674,o),
(259,670,c)
);
}
);
};
layerId = "619f1a1e-fd92-11ee-b280-8aa624eb3053";
shapes = (
{
ref = c;
},
{
pos = (108,0);
ref = acutecomb;
}
);
width = 435;
},
{
background = {
shapes = (
{
closed = 1;
nodes = (
(388,280.667,o),
(409.333,369.667,o),
(412,399,c),
(374.667,413.667,o),
(289.667,437,o),
(247,437,cs),
(115,437,o),
(31,334.833,o),
(31,203.5,cs),
(31,72.167,o),
(118,-16,o),
(246,-16,cs),
(298,-16,o),
(355.333,12.333,o),
(418,69,c),
(398,98,l),
(272.571,26.326,o),
(160,55.323,o),
(160,228,cs),
(160,332.667,o),
(186.333,385,o),
(239,385,cs),
(270.333,385,o),
(294.667,379.333,o),
(312,368,c),
(319.333,354.667,o),
(323,327.333,o),
(323,286,cs),
(323,277.333,o),
(322.667,270,o),
(322,264,c),
(376,254,l),
(376,254,l)
);
},
{
closed = 1;
nodes = (
(313.667,685,o),
(278.667,682,o),
(250,676,c),
(238,664,o),
(180,550.333,o),
(168,521,c),
(215,494,l),
(368,658,l),
(355,685,l),
(355,685,l)
);
}
);
};
layerId = "66e3d46a-fd92-11ee-8244-8aa624eb3053";
shapes = (
{
ref = c;
},
{
pos = (112,0);
ref = acutecomb;
}
);
width = 437;
}
);
unicode = 263;
},
{
glyphname = ccircumflex;
lastChange = "2024-04-29 10:45:27 +0000";
layers = (
{
background = {
shapes = (
{
closed = 1;
nodes = (
(374,284.333,o),
(395.333,366,o),
(398,394,c),
(363.333,408.667,o),
(284.333,432,o),
(243,432,cs),
(120.333,432,o),
(42,329.5,o),
(42,199.5,cs),
(42,69.5,o),
(123.333,-16,o),
(242,-16,cs),
(291.333,-16,o),
(345.667,10.667,o),
(405,64,c),
(389,88,l),
(267.24,4.797,o),
(131,46.67,o),
(131,223,cs),
(131,334.333,o),
(165.667,390,o),
(235,390,cs),
(272.333,390,o),
(300,383.667,o),
(318,371,c),
(325.333,356.333,o),
(329,329,o),
(329,289,cs),
(328,265,l),
(362,259,l)
);
},
{
closed = 1;
nodes = (
(190,662,o),
(124.333,545,o),
(111,517,c),
(143,498,l),
(243,610,l),
(343,498,l),
(375,517,l),
(361.667,545,o),
(296,662,o),
(284,674,c),
(273.333,675.333,o),
(259.667,676,o),
(243,676,cs),
(226.333,676,o),
(212.667,675.333,o),
(202,674,c)
);
}
);
};
layerId = "619f1a1e-fd92-11ee-b280-8aa624eb3053";
shapes = (
{
ref = c;
},
{
pos = (82,0);
ref = circumflexcomb;
}
);
width = 435;
},
{
background = {
shapes = (
{
closed = 1;
nodes = (
(388,280.667,o),
(409.333,369.667,o),
(412,399,c),
(374.667,413.667,o),
(289.667,437,o),
(247,437,cs),
(115,437,o),
(31,334.833,o),
(31,203.5,cs),
(31,72.167,o),
(118,-16,o),
(246,-16,cs),
(298,-16,o),
(355.333,12.333,o),
(418,69,c),
(398,98,l),
(272.571,26.326,o),
(160,55.323,o),
(160,228,cs),
(160,332.667,o),
(186.333,385,o),
(239,385,cs),
(270.333,385,o),
(294.667,379.333,o),
(312,368,c),
(319.333,354.667,o),
(323,327.333,o),
(323,286,cs),
(322,264,l),
(376,254,l)
);
},
{
closed = 1;
nodes = (
(180.667,661,o),
(117.667,545,o),
(107,521,c),
(154,494,l),
(247,598,l),
(340,494,l),
(387,521,l),
(376.333,545,o),
(313.333,661,o),
(300,673,c),
(282,676.333,o),
(265.333,678,o),
(250,678,cs),
(234.667,678,o),
(216,676.333,o),
(194,673,c)
);
}
);
};
layerId = "66e3d46a-fd92-11ee-8244-8aa624eb3053";
shapes = (
{
ref = c;
},
{
pos = (86,0);
ref = circumflexcomb;
}
);
width = 437;
}
);
unicode = 265;
},
{
glyphname = d;
lastChange = "2024-04-18 14:46:39 +0000";
layers = (
{
layerId = "619f1a1e-fd92-11ee-b280-8aa624eb3053";
shapes = (
{
closed = 1;
nodes = (
(432,602,ls),
(432,643,o),
(433,674,o),
(439,700,c),
(424,718,l),
(385,715,o),
(305,698,o),
(266,680,c),
(271,650,l),
(271,650,o),
(315,659,o),
(334,656,cs),
(348,654,o),
(352,641,o),
(352,622,cs),
(352,411,l),
(329,422,o),
(291,432,o),
(258,432,cs),
(124,432,o),
(42,331,o),
(42,192,cs),
(42,68,o),
(103,-16,o),
(223,-16,cs),
(258,-16,o),
(294,2,o),
(355,52,c),
(362,21,o),
(381,-1,o),
(401,-16,c),
(435,-2,o),
(482,11,o),
(518,18,c),
(511,48,l),
(494,46,o),
(463,46,o),
(448,52,cs),
(437,57,o),
(432,72,o),
(432,85,cs)
);
},
{
closed = 1;
nodes = (
(182,43,o),
(131,94,o),
(131,215,cs),
(131,338,o),
(182,391,o),
(249,391,cs),
(286,391,o),
(329,368,o),
(352,332,c),
(352,83,l),
(315,54,o),
(284,43,o),
(254,43,cs)
);
}
);
width = 528;
},
{
layerId = "66e3d46a-fd92-11ee-8244-8aa624eb3053";
shapes = (
{
closed = 1;
nodes = (
(461,602,ls),
(461,641,o),
(461,670,o),
(473,695,c),
(453,718,l),
(407,715,o),
(306,695,o),
(260,675,c),
(267,635,l),
(280,638,o),
(299,644,o),
(323,644,cs),
(337,644,o),
(341,629,o),
(341,607,cs),
(341,419,l),
(323,430,o),
(293,437,o),
(272,437,cs),
(129,437,o),
(41,336,o),
(41,197,cs),
(41,70,o),
(106,-16,o),
(232,-16,cs),
(268,-16,o),
(304,4,o),
(344,49,c),
(352,20,o),
(373,-2,o),
(395,-16,c),
(434,-2,o),
(491,11,o),
(537,18,c),
(530,53,l),
(515,53,o),
(490,53,o),
(477,62,c),
(466,67,o),
(461,82,o),
(461,95,cs)
);
},
{
closed = 1;
nodes = (
(211,58,o),
(170,107,o),
(170,220,cs),
(170,332,o),
(211,381,o),
(263,381,cs),
(290,381,o),
(323,360,o),
(341,333,c),
(341,87,l),
(314,65,o),
(290,58,o),
(268,58,cs)
);
}
);
width = 542;
}
);
unicode = 100;
},
{
glyphname = dcaron;
lastChange = "2024-04-29 12:59:42 +0000";
layers = (
{
background = {
shapes = (
{
closed = 1;
nodes = (
(432,647,o),
(434,680,o),
(439,700,c),
(424,718,l),
(381,715,o),
(303,697,o),
(266,680,c),
(271,650,l),
(282,652,ls),
(305,656,o),
(323,657,o),
(334,656,cs),
(346,654,o),
(352,643,o),
(352,622,cs),
(352,411,l),
(323,425,o),
(291,432,o),
(258,432,cs),
(126,432,o),
(42,332,o),
(42,197,cs),
(42,62,o),
(106,-16,o),
(223,-16,cs),
(256,-16,o),
(300,7,o),
(355,52,c),
(361,25,o),
(376,3,o),
(401,-16,c),
(436,-2,o),
(475,9,o),
(518,18,c),
(511,48,l),
(480,44,o),
(432,39,o),
(432,85,cs),
(432,602,l),
(432,602,l)
);
},
{
closed = 1;
nodes = (
(283,29,o),
(208,29,o),
(164,86,cs),
(142,114,o),
(131,157,o),
(131,216,cs),
(131,332,o),
(178,391,o),
(249,391,cs),
(286,391,o),
(329,368,o),
(352,332,c),
(352,83,l),
(352,83,l)
);
},
{
closed = 1;
nodes = (
(511,707,o),
(484,678,o),
(473,661,c),
(480,645,l),
(543,638,o),
(554,621,o),
(519,568,cs),
(506,548,o),
(492,531,o),
(478,517,c),
(500,499,l),
(545,538,o),
(604,611,o),
(604,650,cs),
(604,689,o),
(563,715,o),
(527,718,c)
);
},
{
closed = 0;
nodes = (
(311,527,l)
);
}
);
};
layerId = "619f1a1e-fd92-11ee-b280-8aa624eb3053";
shapes = (
{
alignment = -1;
ref = d;
},
{
pos = (428,759);
ref = commaaccentcomb;
}
);
width = 595;
},
{
background = {
shapes = (
{
closed = 1;
nodes = (
(461,647.333,o),
(465,678.333,o),
(473,695,c),
(453,718,l),
(403.667,715.333,o),
(304,693.667,o),
(260,675,c),
(267,635,l),
(293,641,o),
(311.833,644,o),
(323.5,644,cs),
(335.167,644,o),
(341,631.667,o),
(341,607,cs),
(341,419,l),
(321.667,431,o),
(298.667,437,o),
(272,437,cs),
(130.667,437,o),
(41,337,o),
(41,201,cs),
(41,65,o),
(109.333,-16,o),
(232,-16,cs),
(268,-16,o),
(305.333,5.667,o),
(344,49,c),
(351.333,23,o),
(368.333,1.333,o),
(395,-16,c),
(435,-1.333,o),
(482.333,10,o),
(537,18,c),
(530,53,l),
(503.333,53,o),
(485.667,56,o),
(477,62,c),
(466.333,66.667,o),
(461,77.667,o),
(461,95,cs),
(461,602,l),
(461,602,l)
);
},
{
closed = 1;
nodes = (
(287.672,44.041,o),
(229.554,47.983,o),
(196.5,98.5,cs),
(178.833,125.5,o),
(170,165.833,o),
(170,219.5,cs),
(170,326.833,o),
(208.333,381,o),
(263,381,cs),
(289.667,381,o),
(322.333,359.667,o),
(341,333,c),
(341,87,l),
(341,87,l)
);
},
{
closed = 1;
nodes = (
(542.333,706.667,o),
(511.667,670.667,o),
(497,648,c),
(506,629,l),
(562.094,623.501,o),
(570.381,607.039,o),
(540,557,cs),
(528.667,538.333,o),
(517,522.667,o),
(505,510,c),
(534,486,l),
(588.667,524.667,o),
(658,601.5,o),
(658,643.5,cs),
(658,685.5,o),
(606.333,717.333,o),
(561,720,c)
);
}
);
};
layerId = "66e3d46a-fd92-11ee-8244-8aa624eb3053";
shapes = (
{
alignment = -1;
ref = d;
},
{
pos = (470,756);
ref = commaaccentcomb;
}
);
width = 626;
}
);
unicode = 271;
},
{
glyphname = dslash;
lastChange = "2024-04-29 13:06:50 +0000";
layers = (
{
background = {
shapes = (
{
closed = 0;
nodes = (
(352,587,l),
(209,587,l),
(209,587,l),
(201,545,l),
(352,545,l)
);
},
{
closed = 0;
nodes = (
(432,545,l),
(506,545,l),
(514,587,l),
(432,587,l)
);
}
);
};
layerId = "619f1a1e-fd92-11ee-b280-8aa624eb3053";
shapes = (
{
ref = d;
},
{
closed = 1;
nodes = (
(200,546,l),
(506,546,l),
(514,588,l),
(209,587,l)
);
}
);
width = 528;
},
{
background = {
shapes = (
{
closed = 0;
nodes = (
(341,607,ls),
(341,588,l),
(207,588,l),
(207,588,l),
(197,536,l),
(341,536,l)
);
},
{
closed = 0;
nodes = (
(461,536,l),
(522,536,l),
(532,588,l),
(461,588,l),
(461,602,ls)
);
}
);
};
layerId = "66e3d46a-fd92-11ee-8244-8aa624eb3053";
shapes = (
{
ref = d;
},
{
closed = 1;
nodes = (
(197,536,l),
(522,536,l),
(532,588,l),
(207,588,l)
);
}
);
width = 542;
}
);
unicode = 273;
},
{
glyphname = eth;
lastChange = "2024-04-18 14:46:39 +0000";
layers = (
{
layerId = "619f1a1e-fd92-11ee-b280-8aa624eb3053";
shapes = (
{
closed = 1;
nodes = (
(3,72,o),
(74,-16,o),
(212,-16,cs),
(384,-16,o),
(421,133,o),
(421,290,cs),
(421,554,o),
(236,711,o),
(63,718,c),
(60,686,l),
(209,662,o),
(289,540,o),
(314,400,c),
(285,420,o),
(250,432,o),
(211,432,cs),
(86,432,o),
(3,334,o),
(3,197,cs)
);
},
{
closed = 1;
nodes = (
(92,334,o),
(127,391,o),
(197,391,cs),
(248,391,o),
(294,366,o),
(319,320,c),
(325,288,o),
(326,248,o),
(326,197,cs),
(326,81,o),
(292,25,o),
(225,25,cs),
(142,25,o),
(92,93,o),
(92,219,cs)
);
},
{
closed = 1;
nodes = (
(128,509,l),
(393,661,l),
(379,701,l),
(114,549,l)
);
}
);
width = 460;
},
{
layerId = "66e3d46a-fd92-11ee-8244-8aa624eb3053";
shapes = (
{
closed = 1;
nodes = (
(-12,72,o),
(65,-16,o),
(212,-16,cs),
(396,-16,o),
(436,133,o),
(436,290,cs),
(436,554,o),
(239,711,o),
(58,718,c),
(53,680,l),
(190,656,o),
(264,540,o),
(288,404,c),
(276,417,o),
(238,432,o),
(211,432,cs),
(77,432,o),
(-12,334,o),
(-12,197,cs)
);
},
{
closed = 1;
nodes = (
(117,325,o),
(142,376,o),
(197,376,cs),
(238,376,o),
(274,355,o),
(294,315,c),
(300,284,o),
(301,246,o),
(301,197,cs),
(301,87,o),
(277,35,o),
(225,35,cs),
(157,35,o),
(117,99,o),
(117,219,cs)
);
},
{
closed = 1;
nodes = (
(127,505,l),
(397,661,l),
(381,708,l),
(111,552,l)
);
}
);
width = 460;
}
);
unicode = 240;
},
{
glyphname = e;
lastChange = "2024-04-29 11:10:02 +0000";
layers = (
{
anchors = (
{
name = ogonek;
pos = (273,0);
},
{
name = top;
pos = (240,0);
}
);
layerId = "619f1a1e-fd92-11ee-b280-8aa624eb3053";
shapes = (
{
closed = 1;
nodes = (
(413,348,o),
(361,432,o),
(240,432,cs),
(118,432,o),
(42,322,o),
(42,200,cs),
(42,68,o),
(121,-16,o),
(242,-16,cs),
(281,-16,o),
(332,-5,o),
(411,68,c),
(395,90,l),
(363,67,o),
(319,47,o),
(275,47,cs),
(186,47,o),
(136,102,o),
(131,210,c),
(413,230,l)
);
},
{
closed = 1;
nodes = (
(303,391,o),
(323,332,o),
(323,270,c),
(131,246,l),
(131,316,o),
(158,391,o),
(234,391,cs)
);
}
);
width = 450;
},
{
anchors = (
{
name = ogonek;
pos = (267,0);
},
{
name = top;
pos = (240,0);
}
);
layerId = "66e3d46a-fd92-11ee-8244-8aa624eb3053";
shapes = (
{
closed = 1;
nodes = (
(428,349,o),
(370,437,o),
(240,437,cs),
(109,437,o),
(27,327,o),
(27,205,cs),
(27,70,o),
(112,-16,o),
(242,-16,cs),
(283,-16,o),
(338,-4,o),
(421,73,c),
(400,105,l),
(367,82,o),
(321,62,o),
(275,62,cs),
(201,62,o),
(161,111,o),
(156,207,c),
(428,225,l)
);
},
{
closed = 1;
nodes = (
(283,386,o),
(298,330,o),
(298,275,c),
(156,255,l),
(156,319,o),
(178,386,o),
(234,386,cs)
);
}
);
width = 450;
}
);
unicode = 101;
},
{
glyphname = eogonek;
lastChange = "2024-04-29 11:10:09 +0000";
layers = (
{
background = {
shapes = (
{
closed = 1;
nodes = (
(221,-101,o),
(251.667,-53.333,o),
(313,0,c),
(342.333,12,o),
(375,34.667,o),
(411,68,c),
(395,90,l),
(355,61.333,o),
(315,47,o),
(275,47,cs),
(184.333,47,o),
(136.333,101.333,o),
(131,210,c),
(413,230,l),
(413,354,o),
(356.167,432,o),
(239.5,432,cs),
(122.833,432,o),
(42,327.333,o),
(42,198,cs),
(42,68.667,o),
(120.667,-16,o),
(242,-16,cs),
(252,-16,l),
(182.667,-69.333,o),
(151,-100.833,o),
(151,-153.5,cs),
(151,-206.167,o),
(188.5,-240,o),
(246.5,-240,cs),
(275.5,-240,o),
(306.667,-228.667,o),
(340,-206,c),
(325,-176,l),
(259.012,-205.801,o),
(221,-184.668,o),
(221,-143,cs)
);
},
{
closed = 1;
nodes = (
(293.333,391,o),
(323,350.667,o),
(323,270,c),
(131,246,l),
(131,326,o),
(163.333,391,o),
(234,391,cs)
);
}
);
};
layerId = "619f1a1e-fd92-11ee-b280-8aa624eb3053";
shapes = (
{
ref = e;
},
{
pos = (96,0);
ref = ogonekcomb;
}
);
width = 450;
},
{
background = {
shapes = (
{
closed = 1;
nodes = (
(230,-102.333,o),
(254,-56.667,o),
(302,-6,c),
(337.333,6,o),
(377,32.333,o),
(421,73,c),
(400,105,l),
(358.667,76.333,o),
(317,62,o),
(275,62,cs),
(201,62,o),
(161.333,110.333,o),
(156,207,c),
(428,225,l),
(428,354.333,o),
(365.5,437,o),
(239.5,437,cs),
(113.5,437,o),
(27,332.667,o),
(27,202,cs),
(27,71.333,o),
(111.333,-16,o),
(242,-16,cs),
(245,-16,l),
(171.667,-69.333,o),
(140,-100.5,o),
(140,-154.5,cs),
(140,-208.5,o),
(177.833,-245,o),
(242.5,-245,cs),
(274.833,-245,o),
(310.333,-231.333,o),
(349,-204,c),
(329,-171,l),
(290.165,-194.802,o),
(254.34,-196.076,o),
(240,-176,cs),
(233.333,-166.667,o),
(230,-155.667,o),
(230,-143,cs)
);
},
{
closed = 1;
nodes = (
(156,327,o),
(182.667,386,o),
(232,386,cs),
(276,386,o),
(298,349,o),
(298,275,c),
(156,255,l),
(156,255,l)
);
}
);
};
layerId = "66e3d46a-fd92-11ee-8244-8aa624eb3053";
shapes = (
{
ref = e;
},
{
pos = (90,0);
ref = ogonekcomb;
}
);
width = 450;
}
);
unicode = 281;
},
{
glyphname = f;
lastChange = "2024-04-18 14:46:39 +0000";
layers = (
{
layerId = "619f1a1e-fd92-11ee-b280-8aa624eb3053";
shapes = (
{
closed = 1;
nodes = (
(107,372,l),
(107,66,ls),
(107,49,o),
(106,45,o),
(92,37,c),
(73,28,o),
(34,22,o),
(34,22,c),
(42,-8,l),
(93,-3,o),
(121,0,o),
(147,0,cs),
(174,0,o),
(215,-3,o),
(268,-8,c),
(276,22,l),
(276,22,o),
(223,29,o),
(204,38,cs),
(189,46,o),
(187,50,o),
(187,67,cs),
(187,370,l),
(297,367,l),
(306,420,l),
(187,412,l),
(187,531,ls),
(187,593,o),
(205,675,o),
(267,675,cs),
(316,675,o),
(342,625,o),
(342,573,c),
(371,575,l),
(381,602,o),
(401,666,o),
(406,700,c),
(369,710,o),
(321,718,o),
(296,718,cs),
(170,718,o),
(107,600,o),
(107,474,cs),
(107,416,l),
(41,401,l),
(44,373,l)
);
}
);
width = 327;
},
{
layerId = "66e3d46a-fd92-11ee-8244-8aa624eb3053";
shapes = (
{
closed = 1;
nodes = (
(95,367,l),
(95,76,ls),
(95,59,o),
(93,54,o),
(80,46,cs),
(63,35,o),
(27,27,o),
(27,27,c),
(35,-9,l),
(90,-4,o),
(122,0,o),
(150,0,cs),
(181,0,o),
(230,-4,o),
(291,-9,c),
(299,27,l),
(299,27,o),
(251,36,o),
(232,47,cs),
(217,56,o),
(215,60,o),
(215,77,cs),
(215,365,l),
(318,361,l),
(327,426,l),
(215,416,l),
(215,536,ls),
(215,592,o),
(229,665,o),
(275,665,cs),
(318,665,o),
(336,624,o),
(336,573,c),
(377,565,l),
(388,593,o),
(413,660,o),
(419,695,c),
(380,708,o),
(330,718,o),
(304,718,cs),
(166,718,o),
(95,602,o),
(95,479,cs),
(95,422,l),
(34,407,l),
(39,367,l)
);
}
);
width = 326;
}
);
unicode = 102;
},
{
glyphname = g;
lastChange = "2024-04-29 10:51:42 +0000";
layers = (
{
anchors = (
{
name = top;
pos = (241,0);
}
);
layerId = "619f1a1e-fd92-11ee-b280-8aa624eb3053";
shapes = (
{
closed = 1;
nodes = (
(66,66,o),
(62,50,o),
(62,45,cs),
(62,16,o),
(83,-7,o),
(128,-19,c),
(29,-94,l),
(23,-106,o),
(20,-126,o),
(20,-140,cs),
(20,-220,o),
(90,-260,o),
(194,-260,cs),
(308,-260,o),
(448,-184,o),
(448,-75,cs),
(448,-16,o),
(405,29,o),
(319,36,cs),
(220,43,ls),
(159,47,o),
(144,58,o),
(144,75,cs),
(144,91,o),
(164,107,o),
(186,124,c),
(186,124,o),
(202,120,o),
(225,120,cs),
(327,120,o),
(407,175,o),
(407,277,cs),
(407,343,o),
(367,379,o),
(367,379,c),
(399,376,o),
(434,377,o),
(452,380,c),
(463,428,l),
(450,442,l),
(421,429,o),
(372,416,o),
(339,412,c),
(326,410,l),
(326,410,o),
(289,432,o),
(230,432,cs),
(128,432,o),
(48,379,o),
(48,277,cs),
(48,166,o),
(147,134,o),
(147,134,c),
(69,72,l)
);
},
{
closed = 1;
nodes = (
(359,-41,o),
(381,-68,o),
(381,-110,cs),
(381,-170,o),
(319,-211,o),
(235,-211,cs),
(152,-211,o),
(100,-173,o),
(100,-125,cs),
(100,-90,o),
(122,-68,o),
(172,-27,c),
(292,-36,ls)
);
},
{
closed = 1;
nodes = (
(132,348,o),
(159,394,o),
(225,394,cs),
(290,394,o),
(322,336,o),
(322,270,cs),
(322,205,o),
(295,159,o),
(230,159,cs),
(164,159,o),
(132,217,o),
(132,283,cs)
);
}
);
width = 471;
},
{
anchors = (
{
name = top;
pos = (233,0);
}
);
layerId = "66e3d46a-fd92-11ee-8244-8aa624eb3053";
shapes = (
{
closed = 1;
nodes = (
(46,66,o),
(43,50,o),
(43,45,cs),
(43,10,o),
(59,-19,o),
(99,-34,c),
(15,-94,l),
(8,-106,o),
(6,-126,o),
(6,-140,cs),
(6,-220,o),
(82,-260,o),
(195,-260,cs),
(315,-260,o),
(464,-184,o),
(464,-75,cs),
(464,-13,o),
(415,34,o),
(320,41,cs),
(221,48,ls),
(168,51,o),
(155,61,o),
(155,75,cs),
(155,91,o),
(172,106,o),
(192,123,c),
(196,122,o),
(206,120,o),
(226,120,cs),
(337,120,o),
(423,176,o),
(423,281,cs),
(423,319,o),
(408,351,o),
(385,376,c),
(415,374,o),
(447,374,o),
(464,377,c),
(480,434,l),
(462,453,l),
(429,438,o),
(371,424,o),
(338,421,c),
(316,421,l),
(289,432,o),
(260,437,o),
(231,437,cs),
(120,437,o),
(34,383,o),
(34,281,cs),
(34,170,o),
(139,137,o),
(139,137,c),
(50,72,l)
);
},
{
closed = 1;
nodes = (
(340,-70,o),
(357,-86,o),
(357,-110,cs),
(357,-164,o),
(305,-201,o),
(236,-201,cs),
(168,-201,o),
(126,-167,o),
(126,-125,cs),
(126,-100,o),
(137,-83,o),
(163,-52,c),
(293,-66,ls)
);
},
{
closed = 1;
nodes = (
(158,346,o),
(178,389,o),
(226,389,cs),
(276,389,o),
(298,334,o),
(298,274,cs),
(298,212,o),
(278,169,o),
(231,169,cs),
(180,169,o),
(158,224,o),
(158,287,cs)
);
}
);
width = 471;
}
);
unicode = 103;
},
